RobotoAvar2-opsz144-wdth151-wght100.ufo
<glyph name="exclam" format="2">
  <advance width="518.0472983315475"/>
  <unicode hex="0021"/>
  <outline>
    <contour>
      <point x="231.91726618705036" y="16.744680851063833" type="qcurve" smooth="yes"/>
      <point x="231.91726618705036" y="27.57446808510639"/>
      <point x="245.02364916577375" y="42.76595744680853"/>
      <point x="259.02364916577375" y="42.76595744680853" type="qcurve" smooth="yes"/>
      <point x="273.0236491657738" y="42.76595744680853"/>
      <point x="286.13003214449714" y="27.57446808510639"/>
      <point x="286.13003214449714" y="16.744680851063833" type="qcurve" smooth="yes"/>
      <point x="286.13003214449714" y="5.914893617021278"/>
      <point x="273.0236491657738" y="-9.27659574468085"/>
      <point x="259.02364916577375" y="-9.27659574468085" type="qcurve" smooth="yes"/>
      <point x="245.02364916577375" y="-9.27659574468085"/>
      <point x="231.91726618705036" y="5.914893617021278"/>
    </contour>
    <contour>
      <point x="254.34279810194397" y="410.0" type="line"/>
      <point x="254.02364916577378" y="1456.0" type="line"/>
      <point x="265.0023725700291" y="1456.0" type="line"/>
      <point x="264.6832236338589" y="410.0" type="line"/>
    </contour>
  </outline>
</glyph>
<glyph name="quotedbl" format="2">
  <advance width="945.1258992805756"/>
  <unicode hex="0022"/>
  <outline>
    <contour>
      <point x="222.96808510638297" y="966.0" type="line"/>
      <point x="222.64893617021278" y="1320.0" type="line"/>
      <point x="222.64893617021278" y="1456.0" type="line"/>
      <point x="233.32978723404256" y="1456.0" type="line"/>
      <point x="233.32978723404256" y="1320.0" type="line"/>
      <point x="233.01063829787233" y="966.0" type="line"/>
    </contour>
    <contour>
      <point x="712.1152609827031" y="966.0" type="line"/>
      <point x="711.7961120465329" y="1320.0" type="line"/>
      <point x="711.7961120465329" y="1456.0" type="line"/>
      <point x="722.4769631103627" y="1456.0" type="line"/>
      <point x="722.4769631103627" y="1320.0" type="line"/>
      <point x="722.1578141741925" y="966.0" type="line"/>
    </contour>
  </outline>
</glyph>
<glyph name="numbersign" format="2">
  <advance width="1827.3273381294964"/>
  <unicode hex="0023"/>
  <outline>
    <contour>
      <point x="322.65584415584414" y="-20.0" type="line"/>
      <point x="759.6558441558442" y="1501.0" type="line"/>
      <point x="770.2142857142857" y="1501.0" type="line"/>
      <point x="333.2142857142857" y="-20.0" type="line"/>
    </contour>
    <contour>
      <point x="1036.9831822853405" y="-20.0" type="line"/>
      <point x="1473.9831822853405" y="1501.0" type="line"/>
      <point x="1484.5416238437822" y="1501.0" type="line"/>
      <point x="1047.5416238437822" y="-20.0" type="line"/>
    </contour>
    <contour>
      <point x="101.5" y="468.59574468085106" type="line"/>
      <point x="101.5" y="478.3829787234043" type="line"/>
      <point x="1650.8273381294964" y="478.3829787234043" type="line"/>
      <point x="1650.8273381294964" y="468.59574468085106" type="line"/>
    </contour>
    <contour>
      <point x="152.5" y="1003.5957446808511" type="line"/>
      <point x="152.5" y="1013.3829787234042" type="line"/>
      <point x="1700.8273381294964" y="1013.3829787234042" type="line"/>
      <point x="1700.8273381294964" y="1003.5957446808511" type="line"/>
    </contour>
  </outline>
</glyph>
<glyph name="dollar" format="2">
  <advance width="971.6087555487525"/>
  <unicode hex="0024"/>
  <outline>
    <contour>
      <point x="58.5" y="381.0" type="qcurve" smooth="yes"/>
      <point x="58.5" y="392.0" type="line"/>
      <point x="69.11702127659575" y="392.0" type="line"/>
      <point x="69.11702127659575" y="381.0" type="line" smooth="yes"/>
      <point x="69.11702127659575" y="201.58441558441558"/>
      <point x="299.4671567526305" y="4.6883116883117"/>
      <point x="485.22853206796265" y="4.6883116883117" type="qcurve" smooth="yes"/>
      <point x="669.2884685343739" y="4.6883116883117"/>
      <point x="890.5342874636461" y="202.66233766233768"/>
      <point x="890.5342874636461" y="365.0" type="qcurve" smooth="yes"/>
      <point x="890.5342874636461" y="533.6245216592683"/>
      <point x="676.288075922241" y="673.4275983468544"/>
      <point x="487.0185213531302" y="727.7117710087249" type="qcurve" smooth="yes"/>
      <point x="289.23901729680085" y="786.5909995407928"/>
      <point x="84.54255319148936" y="935.886116638604"/>
      <point x="84.54255319148936" y="1084.9712230215828" type="qcurve" smooth="yes"/>
      <point x="84.54255319148936" y="1259.7090157661105"/>
      <point x="293.14357875401805" y="1458.0"/>
      <point x="469.1928669830093" y="1458.0" type="qcurve" smooth="yes"/>
      <point x="647.9223174651768" y="1458.0"/>
      <point x="854.2124598193786" y="1248.7021276595744"/>
      <point x="864.0326037042707" y="1076.0" type="qcurve" smooth="yes"/>
      <point x="864.0326037042707" y="1065.0" type="line"/>
      <point x="853.415582427675" y="1065.0" type="line"/>
      <point x="853.415582427675" y="1076.0" type="line" smooth="yes"/>
      <point x="853.415582427675" y="1244.3116883116884"/>
      <point x="646.3260280971134" y="1447.2857142857142"/>
      <point x="468.21414357875403" y="1447.2857142857142" type="qcurve" smooth="yes"/>
      <point x="291.39363590641716" y="1447.2857142857142"/>
      <point x="95.11702127659575" y="1260.373031224095"/>
      <point x="95.11702127659575" y="1099.0" type="qcurve" smooth="yes"/>
      <point x="95.11702127659575" y="939.3754783407317"/>
      <point x="303.51010255625283" y="800.117403949181"/>
      <point x="499.4151997550896" y="740.3898668299403" type="qcurve" smooth="yes"/>
      <point x="692.0855655900812" y="681.939614266034"/>
      <point x="901.1087555487525" y="539.0713301699066"/>
      <point x="901.1087555487525" y="379.0287769784173" type="qcurve" smooth="yes"/>
      <point x="901.1087555487525" y="206.9265268636155"/>
      <point x="671.4034134394611" y="-6.0"/>
      <point x="484.2498086637073" y="-6.0" type="qcurve" smooth="yes"/>
      <point x="297.07492729220877" y="-6.0"/>
      <point x="58.5" y="197.10638297872342"/>
    </contour>
    <contour>
      <point x="487.12352671054646" y="-170.0" type="line"/>
      <point x="487.12352671054646" y="758.0" type="line"/>
      <point x="496.8682075616103" y="758.0" type="line"/>
      <point x="496.8682075616103" y="421.96720545641404" type="line"/>
      <point x="497.16607990203585" y="421.7074651966738" type="line"/>
      <point x="497.16607990203585" y="-170.0" type="line"/>
    </contour>
    <contour>
      <point x="487.42139905097196" y="758.0" type="line"/>
      <point x="487.42139905097196" y="1452.2337662337663" type="line"/>
      <point x="487.12352671054646" y="1452.4935064935064" type="line"/>
      <point x="487.12352671054646" y="1586.0" type="line"/>
      <point x="497.16607990203585" y="1586.0" type="line"/>
      <point x="497.16607990203585" y="758.0" type="line"/>
    </contour>
  </outline>
</glyph>
<glyph name="ampersand" format="2">
  <advance width="1314.797413133323"/>
  <unicode hex="0026"/>
  <outline>
    <contour>
      <point x="114.56382978723404" y="380.0" type="qcurve" smooth="yes"/>
      <point x="114.56382978723404" y="508.92042000552647"/>
      <point x="280.27473009158297" y="707.8920674457947"/>
      <point x="409.3385231024906" y="764.3093058021116" type="qcurve" smooth="yes"/>
      <point x="564.5153426857851" y="835.356416276208" type="line" smooth="yes"/>
      <point x="711.1157003107103" y="914.8075057500283"/>
      <point x="822.4628807592223" y="1108.0237634705718"/>
      <point x="822.4628807592223" y="1179.7402597402597" type="qcurve" smooth="yes"/>
      <point x="822.4628807592223" y="1331.6382978723404"/>
      <point x="667.1244749433943" y="1475.2337662337663"/>
      <point x="532.4269095362008" y="1475.2337662337663" type="qcurve" smooth="yes"/>
      <point x="389.9230440461116" y="1475.2337662337663"/>
      <point x="253.32978723404256" y="1326.4849405913235"/>
      <point x="253.32978723404256" y="1179.4805194805194" type="qcurve" smooth="yes"/>
      <point x="253.32978723404256" y="1097.8297872340424"/>
      <point x="368.69546915658964" y="963.4907393234348"/>
      <point x="489.5492116944742" y="840.0" type="qcurve" smooth="yes"/>
      <point x="1345.2974131333233" y="0.0" type="line"/>
      <point x="1314.2295270166846" y="0.0" type="line"/>
      <point x="464.5650543395071" y="847.9862237869279" type="line" smooth="yes"/>
      <point x="350.55548752487374" y="959.7652686361548"/>
      <point x="242.60638297872342" y="1097.1914893617022"/>
      <point x="242.60638297872342" y="1179.4805194805194" type="qcurve" smooth="yes"/>
      <point x="242.60638297872342" y="1331.3191489361702"/>
      <point x="397.7039545484364" y="1486.0"/>
      <point x="533.8297872340426" y="1486.0" type="qcurve" smooth="yes"/>
      <point x="663.1045560898615" y="1486.0"/>
      <point x="832.2720802081739" y="1336.4302293451228"/>
      <point x="832.2720802081739" y="1180.0" type="qcurve" smooth="yes"/>
      <point x="832.2720802081739" y="1102.857142857143"/>
      <point x="705.4506998435515" y="904.4155367057556"/>
      <point x="559.5896209255309" y="827.0615715220032" type="qcurve" smooth="yes"/>
      <point x="405.11424019115736" y="756.0144610479066" type="line" smooth="yes"/>
      <point x="268.9892444154652" y="695.0146011955288"/>
      <point x="125.32978723404256" y="501.7024039789997"/>
      <point x="125.32978723404256" y="380.0" type="qcurve" smooth="yes"/>
      <point x="125.32978723404256" y="222.26802984249792"/>
      <point x="340.95208939231594" y="-9.233766233766232"/>
      <point x="541.4778765547937" y="-9.233766233766232" type="qcurve" smooth="yes"/>
      <point x="801.7074850757692" y="-9.233766233766232"/>
      <point x="1242.8174542432923" y="382.987012987013"/>
      <point x="1242.8174542432923" y="674.0" type="qcurve"/>
      <point x="1254.8046073779274" y="674.0" type="line"/>
      <point x="1254.8046073779274" y="380.0"/>
      <point x="813.0204347160569" y="-20.0"/>
      <point x="549.1937038929233" y="-20.0" type="qcurve" smooth="yes"/>
      <point x="338.2053421092913" y="-20.0"/>
      <point x="114.56382978723404" y="216.74468085106383"/>
    </contour>
  </outline>
</glyph>
<glyph name="parenleft" format="2">
  <advance width="694.8129496402878"/>
  <unicode hex="0028"/>
  <outline>
    <contour>
      <point x="621.3129496402878" y="-436.0" type="line"/>
      <point x="437.2774376243686" y="-334.3884892086331"/>
      <point x="161.5" y="120.42553191489361"/>
      <point x="161.5" y="515.0" type="qcurve" smooth="yes"/>
      <point x="161.5" y="525.0" type="line" smooth="yes"/>
      <point x="161.5" y="936.5744680851063"/>
      <point x="447.79902035818156" y="1383.5071942446043"/>
      <point x="621.3129496402878" y="1476.0" type="qcurve"/>
      <point x="619.910071942446" y="1465.3191489361702" type="line"/>
      <point x="461.1318689729068" y="1371.7021276595744"/>
      <point x="172.5" y="934.4042553191489"/>
      <point x="172.5" y="532.0" type="qcurve" smooth="yes"/>
      <point x="172.5" y="508.0" type="line" smooth="yes"/>
      <point x="172.5" y="122.53191489361703"/>
      <point x="462.1105923771621" y="-332.6808510638298"/>
      <point x="619.910071942446" y="-425.3191489361702" type="qcurve"/>
    </contour>
  </outline>
</glyph>
<glyph name="parenright" format="2">
  <advance width="694.8129496402878"/>
  <unicode hex="0029"/>
  <outline>
    <contour>
      <point x="73.5" y="-436.0" type="qcurve"/>
      <point x="74.90287769784172" y="-425.3191489361702" type="line"/>
      <point x="233.681080667381" y="-331.70212765957444"/>
      <point x="522.3129496402878" y="105.8936170212766"/>
      <point x="522.3129496402878" y="508.0" type="qcurve" smooth="yes"/>
      <point x="522.3129496402878" y="532.0" type="line" smooth="yes"/>
      <point x="522.3129496402878" y="917.7659574468086"/>
      <point x="232.70235726312566" y="1372.6808510638298"/>
      <point x="74.90287769784172" y="1465.3191489361702" type="qcurve"/>
      <point x="73.5" y="1476.0" type="line"/>
      <point x="256.83407316699834" y="1377.1942446043165"/>
      <point x="533.3129496402878" y="919.936170212766"/>
      <point x="533.3129496402878" y="525.0" type="qcurve" smooth="yes"/>
      <point x="533.3129496402878" y="515.0" type="line" smooth="yes"/>
      <point x="533.3129496402878" y="103.7872340425532"/>
      <point x="248.41680697994798" y="-335.08992805755395"/>
    </contour>
  </outline>
</glyph>
<glyph name="asterisk" format="2">
  <advance width="1234"/>
  <unicode hex="002A"/>
  <outline>
    <contour>
      <point x="123" y="1128" type="line"/>
      <point x="127" y="1140" type="line"/>
      <point x="612" y="973" type="line"/>
      <point x="610" y="1476" type="line"/>
      <point x="623" y="1476" type="line"/>
      <point x="621" y="973" type="line"/>
      <point x="1105" y="1140" type="line"/>
      <point x="1109" y="1128" type="line"/>
      <point x="625" y="961" type="line"/>
      <point x="930" y="549" type="line"/>
      <point x="919" y="542" type="line"/>
      <point x="616" y="954" type="line"/>
      <point x="313" y="542" type="line"/>
      <point x="302" y="549" type="line"/>
      <point x="607" y="961" type="line"/>
    </contour>
  </outline>
</glyph>
<glyph name="plus" format="2">
  <advance width="1298.910071942446"/>
  <unicode hex="002B"/>
  <outline>
    <contour>
      <point x="103.61870503597122" y="668.3191489361702" type="line"/>
      <point x="103.61870503597122" y="678.6595744680851" type="line"/>
      <point x="1195.9928057553957" y="678.6595744680851" type="line"/>
      <point x="1195.9928057553957" y="668.3191489361702" type="line"/>
    </contour>
    <contour>
      <point x="643.9759681616409" y="96.81294964028777" type="line"/>
      <point x="643.9759681616409" y="1251.1870503597122" type="line"/>
      <point x="654.6568192254707" y="1251.1870503597122" type="line"/>
      <point x="654.6568192254707" y="96.81294964028777" type="line"/>
    </contour>
  </outline>
</glyph>
<glyph name="hyphen" format="2">
  <advance width="957.3453237410072"/>
  <unicode hex="002D"/>
  <outline>
    <contour>
      <point x="112.5" y="632.7865452318995" type="line"/>
      <point x="112.5" y="642.5957446808511" type="line"/>
      <point x="844.8453237410072" y="642.5957446808511" type="line"/>
      <point x="844.8453237410072" y="632.7865452318995" type="line"/>
    </contour>
  </outline>
</glyph>
<glyph name="zero" format="2">
  <advance width="1462.431578141742"/>
  <unicode hex="0030"/>
  <outline>
    <contour>
      <point x="147.5" y="460.0" type="qcurve" smooth="yes"/>
      <point x="147.5" y="996.0" type="line" smooth="yes"/>
      <point x="147.5" y="1231.659574468085"/>
      <point x="453.0685749272922" y="1486.0"/>
      <point x="729.1849073932343" y="1486.0" type="qcurve" smooth="yes"/>
      <point x="1006.2374100719423" y="1486.0"/>
      <point x="1314.931578141742" y="1231.659574468085"/>
      <point x="1314.931578141742" y="996.0" type="qcurve" smooth="yes"/>
      <point x="1314.931578141742" y="460.0" type="line" smooth="yes"/>
      <point x="1314.931578141742" y="224.3404255319149"/>
      <point x="1006.2374100719423" y="-30.0"/>
      <point x="729.1849073932343" y="-30.0" type="qcurve" smooth="yes"/>
      <point x="453.0685749272922" y="-30.0"/>
      <point x="147.5" y="224.3404255319149"/>
    </contour>
    <contour>
      <point x="158.47872340425533" y="450.0" type="line" smooth="yes"/>
      <point x="158.47872340425533" y="227.18430505664548"/>
      <point x="458.68559620388794" y="-19.077922077922068"/>
      <point x="729.1849073932343" y="-19.077922077922068" type="qcurve" smooth="yes"/>
      <point x="1000.6629419868361" y="-19.077922077922068"/>
      <point x="1303.9528547374866" y="227.18430505664548"/>
      <point x="1303.9528547374866" y="450.0" type="qcurve" smooth="yes"/>
      <point x="1303.9528547374866" y="1006.0" type="line" smooth="yes"/>
      <point x="1303.9528547374866" y="1230.7731417518653"/>
      <point x="1000.6629419868361" y="1475.077922077922"/>
      <point x="729.1849073932343" y="1475.077922077922" type="qcurve" smooth="yes"/>
      <point x="458.68559620388794" y="1475.077922077922"/>
      <point x="158.47872340425533" y="1230.7731417518653"/>
      <point x="158.47872340425533" y="1006.0" type="qcurve" smooth="yes"/>
    </contour>
  </outline>
</glyph>
<glyph name="one" format="2">
  <advance width="1264.6258227460585"/>
  <unicode hex="0031"/>
  <outline>
    <contour>
      <point x="806.8705035971223" y="0.0" type="line"/>
      <point x="806.8705035971223" y="1477.1563967946945" type="line"/>
      <point x="170.35106382978722" y="1296.964551597186" type="line"/>
      <point x="170.35106382978722" y="1306.6658502984847" type="line"/>
      <point x="810.1951789217976" y="1487.6883116883116" type="line"/>
      <point x="817.8066738098883" y="1487.6883116883116" type="line"/>
      <point x="817.8066738098883" y="0.0" type="line"/>
    </contour>
  </outline>
</glyph>
<glyph name="two" format="2">
  <advance width="1471"/>
  <unicode hex="0032"/>
  <outline>
    <contour>
      <point x="137" y="0" type="line"/>
      <point x="137" y="9" type="line"/>
      <point x="863" y="525" type="line" smooth="yes"/>
      <point x="1000" y="623"/>
      <point x="1289" y="878"/>
      <point x="1289" y="1060" type="qcurve" smooth="yes"/>
      <point x="1289" y="1236"/>
      <point x="1008" y="1475"/>
      <point x="744" y="1475" type="qcurve" smooth="yes"/>
      <point x="486" y="1475"/>
      <point x="153" y="1256"/>
      <point x="153" y="1030" type="qcurve" smooth="yes"/>
      <point x="153" y="1020" type="line"/>
      <point x="142" y="1020" type="line"/>
      <point x="142" y="1032" type="line" smooth="yes"/>
      <point x="142" y="1259"/>
      <point x="481" y="1486"/>
      <point x="742" y="1486" type="qcurve" smooth="yes"/>
      <point x="1010" y="1486"/>
      <point x="1301" y="1242"/>
      <point x="1301" y="1060" type="qcurve" smooth="yes"/>
      <point x="1301" y="877"/>
      <point x="1020" y="622"/>
      <point x="885" y="526" type="qcurve" smooth="yes"/>
      <point x="162" y="11" type="line"/>
      <point x="1325" y="11" type="line"/>
      <point x="1325" y="0" type="line"/>
    </contour>
  </outline>
</glyph>
<glyph name="three" format="2">
  <advance width="1484"/>
  <unicode hex="0033"/>
  <outline>
    <contour>
      <point x="116" y="380" type="qcurve" smooth="yes"/>
      <point x="116" y="390" type="line"/>
      <point x="127" y="390" type="line"/>
      <point x="127" y="380" type="line" smooth="yes"/>
      <point x="127" y="204"/>
      <point x="444" y="-20"/>
      <point x="745" y="-20" type="qcurve" smooth="yes"/>
      <point x="1029" y="-20"/>
      <point x="1341" y="209"/>
      <point x="1341" y="387" type="qcurve"/>
      <point x="1341" y="551"/>
      <point x="995" y="757"/>
      <point x="707" y="757" type="qcurve" smooth="yes"/>
      <point x="340" y="757" type="line"/>
      <point x="340" y="767" type="line"/>
      <point x="704" y="769" type="line" smooth="yes"/>
      <point x="951" y="770"/>
      <point x="1255" y="952"/>
      <point x="1255" y="1114" type="qcurve"/>
      <point x="1255" y="1278"/>
      <point x="979" y="1475"/>
      <point x="734" y="1475" type="qcurve" smooth="yes"/>
      <point x="499" y="1475"/>
      <point x="178" y="1271"/>
      <point x="178" y="1100" type="qcurve" smooth="yes"/>
      <point x="178" y="1090" type="line"/>
      <point x="166" y="1090" type="line"/>
      <point x="166" y="1100" type="line" smooth="yes"/>
      <point x="166" y="1273"/>
      <point x="495" y="1486"/>
      <point x="733" y="1486" type="qcurve" smooth="yes"/>
      <point x="982" y="1486"/>
      <point x="1266" y="1284"/>
      <point x="1266" y="1114" type="qcurve"/>
      <point x="1266" y="952"/>
      <point x="1020" y="791"/>
      <point x="842" y="765" type="qcurve"/>
      <point x="842" y="761" type="line"/>
      <point x="1038" y="749"/>
      <point x="1352" y="556"/>
      <point x="1352" y="387" type="qcurve"/>
      <point x="1353" y="205"/>
      <point x="1032" y="-30"/>
      <point x="744" y="-30" type="qcurve" smooth="yes"/>
      <point x="438" y="-30"/>
      <point x="116" y="199"/>
    </contour>
  </outline>
</glyph>
<glyph name="four" format="2">
  <advance width="1374.751722026634"/>
  <unicode hex="0034"/>
  <outline>
    <contour>
      <point x="1120.5708709628043" y="0.0" type="line"/>
      <point x="1120.5708709628043" y="423.4468085106383" type="line"/>
      <point x="1120.5708709628043" y="427.48936170212767" type="line"/>
      <point x="1120.5708709628043" y="1506.3495828371845" type="line"/>
      <point x="1103.7007410926744" y="1506.3495828371845" type="line"/>
      <point x="114.00619233819909" y="430.51063829787233" type="line"/>
      <point x="1125.7177407010563" y="430.51063829787233" type="line"/>
      <point x="1129.3134853819072" y="430.51063829787233" type="line"/>
      <point x="1332.315551813868" y="430.51063829787233" type="line"/>
      <point x="1332.315551813868" y="420.29787234042556" type="line"/>
      <point x="60.839596573639135" y="420.29787234042556" type="line"/>
      <point x="60.839596573639135" y="430.08814589665656" type="line"/>
      <point x="1099.8120978210522" y="1456.0" type="line"/>
      <point x="1131.251722026634" y="1456.0" type="line"/>
      <point x="1131.251722026634" y="0.0" type="line"/>
    </contour>
  </outline>
</glyph>
<glyph name="five" format="2">
  <advance width="1484.8776213072097"/>
  <unicode hex="0035"/>
  <outline>
    <contour>
      <point x="124.77659574468085" y="365.0" type="qcurve" smooth="yes"/>
      <point x="124.77659574468085" y="375.0" type="line"/>
      <point x="136.2439920404102" y="375.0" type="line"/>
      <point x="136.2439920404102" y="365.0" type="line" smooth="yes"/>
      <point x="136.2439920404102" y="196.3000828958276"/>
      <point x="474.26423293528757" y="-19.077922077922068"/>
      <point x="731.8369049441299" y="-19.077922077922068" type="qcurve" smooth="yes"/>
      <point x="997.4120837068947" y="-19.077922077922068"/>
      <point x="1343.33506811572" y="231.63802155291518"/>
      <point x="1343.33506811572" y="465.0" type="qcurve" smooth="yes"/>
      <point x="1343.33506811572" y="664.1442387399834"/>
      <point x="1003.3971624579309" y="882.6103896103896"/>
      <point x="731.8322075139005" y="882.6103896103896" type="qcurve" smooth="yes"/>
      <point x="556.8535139282881" y="882.6103896103896"/>
      <point x="269.3730769460143" y="802.1903840840012"/>
      <point x="175.62765957446808" y="726.7234042553191" type="qcurve"/>
      <point x="169.88297872340425" y="730.0" type="line"/>
      <point x="243.88297872340425" y="1456.0" type="line"/>
      <point x="1289.092147558549" y="1456.0" type="line"/>
      <point x="1289.092147558549" y="1444.7662337662337" type="line"/>
      <point x="252.99461177120753" y="1444.7662337662337" type="line"/>
      <point x="181.4633896640632" y="742.5584415584416" type="line"/>
      <point x="262.90594901807214" y="810.5360596849958"/>
      <point x="549.9040605040145" y="893.5584415584416"/>
      <point x="721.3884067103875" y="893.5584415584416" type="qcurve" smooth="yes"/>
      <point x="1008.9448315346066" y="893.5584415584416"/>
      <point x="1354.2286851369968" y="668.5791655153357"/>
      <point x="1354.2286851369968" y="465.0" type="qcurve" smooth="yes"/>
      <point x="1354.2286851369968" y="226.19618679193147"/>
      <point x="1002.308740241849" y="-30.0"/>
      <point x="731.8369049441299" y="-30.0" type="qcurve" smooth="yes"/>
      <point x="464.99854584417574" y="-30.0"/>
      <point x="124.77659574468085" y="193.04255319148936"/>
    </contour>
  </outline>
</glyph>
<glyph name="six" format="2">
  <advance width="1492"/>
  <unicode hex="0036"/>
  <outline>
    <contour>
      <point x="125.5" y="614.0" type="qcurve" smooth="yes"/>
      <point x="125.5" y="644.0" type="line" smooth="yes"/>
      <point x="125.5" y="981.9148936170213"/>
      <point x="664" y="1458"/>
      <point x="1213" y="1458" type="qcurve" smooth="yes"/>
      <point x="1238" y="1458" type="line"/>
      <point x="1238" y="1447" type="line"/>
      <point x="1215" y="1447" type="line" smooth="yes"/>
      <point x="674" y="1447"/>
      <point x="136.35106382978725" y="979.5037303122409"/>
      <point x="136.35106382978725" y="634.4725062171871" type="qcurve" smooth="yes"/>
      <point x="136.35106382978725" y="623.5274937828129" type="line" smooth="yes"/>
      <point x="136.35106382978725" y="281.62945565073227"/>
      <point x="488.29452370681514" y="-19.077922077922068"/>
      <point x="783.1573549670902" y="-19.077922077922068" type="qcurve" smooth="yes"/>
      <point x="1075.7901522937493" y="-19.077922077922068"/>
      <point x="1371.4983927751416" y="228.94363083724784"/>
      <point x="1371.4983927751416" y="444.4725062171871" type="qcurve" smooth="yes"/>
      <point x="1371.4983927751416" y="660.9613152804642"/>
      <point x="1073.8421003456974" y="925.5974025974026"/>
      <point x="781.1999081585795" y="925.5974025974026" type="qcurve" smooth="yes"/>
      <point x="498.46018316598446" y="925.5974025974026"/>
      <point x="141.12171870682508" y="653.1503177673391"/>
      <point x="142.1004421110804" y="458.1276595744681" type="qcurve"/>
      <point x="134.7340425531915" y="458.1276595744681" type="line"/>
      <point x="133.75531914893617" y="656.6615087040619"/>
      <point x="492" y="937"/>
      <point x="786.4475022910657" y="936.5194805194806" type="qcurve" smooth="yes"/>
      <point x="1079" y="936"/>
      <point x="1382.3920097964183" y="667.4274661508704"/>
      <point x="1382.3920097964183" y="444.4725062171871" type="qcurve" smooth="yes"/>
      <point x="1382.3920097964183" y="222.49626968775905"/>
      <point x="1075.291519975509" y="-30.0"/>
      <point x="781.7544772692485" y="-30.0" type="qcurve" smooth="yes"/>
      <point x="481.9209398438696" y="-30.0"/>
      <point x="125.5" y="278.8936170212766"/>
    </contour>
  </outline>
</glyph>
<glyph name="seven" format="2">
  <advance width="1378.2589162712384"/>
  <unicode hex="0037"/>
  <outline>
    <contour>
      <point x="276.5281647022807" y="0.0" type="line"/>
      <point x="1212.8139445890097" y="1445.723404255319" type="line"/>
      <point x="150.8973672126129" y="1445.723404255319" type="line"/>
      <point x="150.8973672126129" y="1456.0" type="line"/>
      <point x="1256.3333843563446" y="1456.0" type="line"/>
      <point x="1256.3333843563446" y="1441.063829787234" type="line"/>
      <point x="302.55694168069795" y="0.0" type="line"/>
    </contour>
  </outline>
</glyph>
<glyph name="eight" format="2">
  <advance width="1476.4603551201592"/>
  <unicode hex="0038"/>
  <outline>
    <contour>
      <point x="137.58510638297872" y="386.0" type="qcurve" smooth="yes"/>
      <point x="137.58510638297872" y="535.5274937828129"/>
      <point x="393.72939183883614" y="743.0663166620614"/>
      <point x="613.5899817311114" y="747.9574468085107" type="qcurve"/>
      <point x="613.5899817311114" y="748.0425531914893" type="line"/>
      <point x="429.80566792766393" y="757.7753523072672"/>
      <point x="190.59949487218736" y="940.5744680851063"/>
      <point x="190.59949487218736" y="1087.0" type="qcurve" smooth="yes"/>
      <point x="190.59949487218736" y="1278.7446808510638"/>
      <point x="489.7624368590234" y="1486.0"/>
      <point x="741.2610592377162" y="1486.0" type="qcurve" smooth="yes"/>
      <point x="996.3972906780958" y="1486.0"/>
      <point x="1291.7332006735037" y="1279.7659574468084"/>
      <point x="1291.7332006735037" y="1087.0" type="qcurve" smooth="yes"/>
      <point x="1291.7332006735037" y="940.5744680851063"/>
      <point x="1049.7425488180884" y="757.7753523072672"/>
      <point x="864.7022270550511" y="748.0425531914893" type="qcurve"/>
      <point x="864.7022270550511" y="747.9574468085107" type="line"/>
      <point x="1083.8613780984056" y="743.0663166620614"/>
      <point x="1340.8326955456912" y="535.5274937828129"/>
      <point x="1340.8326955456912" y="386.0" type="qcurve" smooth="yes"/>
      <point x="1340.8326955456912" y="217.36170212765958"/>
      <point x="1034.58533598653" y="-30.0"/>
      <point x="741.2610592377162" y="-30.0" type="qcurve" smooth="yes"/>
      <point x="448.6382213378234" y="-30.0"/>
      <point x="137.58510638297872" y="217.36170212765958"/>
    </contour>
    <contour>
      <point x="148.43617021276597" y="386.21276595744683" type="qcurve" smooth="yes"/>
      <point x="148.43617021276597" y="219.48300635534676"/>
      <point x="451.54675165642567" y="-19.077922077922068"/>
      <point x="741.2610592377162" y="-19.077922077922068" type="qcurve" smooth="yes"/>
      <point x="1031.9493927930328" y="-19.077922077922068"/>
      <point x="1329.9816317159039" y="220.45703232937274"/>
      <point x="1329.9816317159039" y="386.21276595744683" type="qcurve" smooth="yes"/>
      <point x="1329.9816317159039" y="534.5675600994749"/>
      <point x="1023.3804510964317" y="741.0"/>
      <point x="741.2610592377162" y="741.0" type="qcurve" smooth="yes"/>
      <point x="458.1582465445162" y="741.0"/>
      <point x="148.43617021276597" y="534.5675600994749"/>
    </contour>
    <contour>
      <point x="205.57408541252107" y="1086.787234042553" type="qcurve" smooth="yes"/>
      <point x="205.57408541252107" y="935.7090356452059"/>
      <point x="504.30415910432754" y="755.8181818181818"/>
      <point x="741.2610592377162" y="755.8181818181818" type="qcurve" smooth="yes"/>
      <point x="980.1707087493862" y="755.8181818181818"/>
      <point x="1276.7586101331701" y="935.7090356452059"/>
      <point x="1276.7586101331701" y="1086.787234042553" type="qcurve" smooth="yes"/>
      <point x="1276.7586101331701" y="1274.7562862669247"/>
      <point x="992.7484926675957" y="1475.077922077922"/>
      <point x="741.2610592377162" y="1475.077922077922" type="qcurve" smooth="yes"/>
      <point x="492.6910062996854" y="1475.077922077922"/>
      <point x="205.57408541252107" y="1274.7562862669247"/>
    </contour>
  </outline>
</glyph>
<glyph name="nine" format="2">
  <advance width="1491.8920097964183"/>
  <unicode hex="0039"/>
  <outline>
    <contour>
      <point x="113.41489361702128" y="994.9856115107914" type="qcurve" smooth="yes"/>
      <point x="113.41489361702128" y="1223.578600949028"/>
      <point x="421.21682228685137" y="1486.0"/>
      <point x="714.7538649931118" y="1486.0" type="qcurve" smooth="yes"/>
      <point x="1014.5874024184908" y="1486.0"/>
      <point x="1370.3069034134394" y="1177.1063829787233"/>
      <point x="1370.3069034134394" y="842.0" type="qcurve" smooth="yes"/>
      <point x="1370.3069034134394" y="812.0" type="line" smooth="yes"/>
      <point x="1370.3069034134394" y="457.6781723557324"/>
      <point x="805.9690800551048" y="0.0"/>
      <point x="251.1285779886729" y="0.0" type="qcurve" smooth="yes"/>
      <point x="227.32282259298944" y="0.0" type="line"/>
      <point x="227.32282259298944" y="10.922077922077932" type="line"/>
      <point x="250.83001683759377" y="10.922077922077932" type="line" smooth="yes"/>
      <point x="785.4523189958671" y="10.922077922077932"/>
      <point x="1359.4558395836523" y="460.0611510791367"/>
      <point x="1359.4558395836523" y="821.5274937828129" type="qcurve" smooth="yes"/>
      <point x="1359.4558395836523" y="832.4725062171871" type="line" smooth="yes"/>
      <point x="1359.4558395836523" y="1171.44846642719"/>
      <point x="1010.1618705035971" y="1475.077922077922"/>
      <point x="713.3509872952701" y="1475.077922077922" type="qcurve" smooth="yes"/>
      <point x="417.796112046533" y="1475.077922077922"/>
      <point x="124.30851063829789" y="1215.8633501046636"/>
      <point x="124.30851063829789" y="994.9856115107914" type="qcurve" smooth="yes"/>
      <point x="124.30851063829789" y="770.2258613115035"/>
      <point x="420.7181899686109" y="516.8933009436607"/>
      <point x="713.3509872952701" y="516.8933009436607" type="qcurve" smooth="yes"/>
      <point x="996.1001071483238" y="516.8933009436607"/>
      <point x="1352.0509964794123" y="778.0368588246287"/>
      <point x="1351.0722730751568" y="991.0707178937702" type="qcurve"/>
      <point x="1361.072860860248" y="991.0707178937702" type="line"/>
      <point x="1362.0515842645034" y="776.1798561151079"/>
      <point x="993.1737283839688" y="505.9712230215827"/>
      <point x="708.103393162784" y="505.9712230215827" type="qcurve" smooth="yes"/>
      <point x="415.77911641397026" y="505.9712230215827"/>
      <point x="113.41489361702128" y="765.4138986682993"/>
    </contour>
  </outline>
</glyph>
<glyph name="colon" format="2">
  <advance width="689.7302158273382"/>
  <unicode hex="003A"/>
  <outline>
    <contour>
      <point x="318.1094443594061" y="4.0212765957446805" type="qcurve" smooth="yes"/>
      <point x="318.1094443594061" y="14.85106382978725"/>
      <point x="332.1945507423848" y="31.021276595744695"/>
      <point x="345.2158273381295" y="31.021276595744695" type="qcurve" smooth="yes"/>
      <point x="358.23710393387415" y="31.021276595744695"/>
      <point x="372.3222103168529" y="14.85106382978725"/>
      <point x="372.3222103168529" y="4.0212765957446805" type="qcurve" smooth="yes"/>
      <point x="372.3222103168529" y="-6.808510638297868"/>
      <point x="358.23710393387415" y="-22.0"/>
      <point x="345.2158273381295" y="-22.0" type="qcurve" smooth="yes"/>
      <point x="332.1945507423848" y="-22.0"/>
      <point x="318.1094443594061" y="-6.808510638297868"/>
    </contour>
    <contour>
      <point x="318.1094443594061" y="1041.9787234042553" type="qcurve" smooth="yes"/>
      <point x="318.1094443594061" y="1052.8085106382978"/>
      <point x="332.1945507423848" y="1068.0"/>
      <point x="345.2158273381295" y="1068.0" type="qcurve" smooth="yes"/>
      <point x="358.23710393387415" y="1068.0"/>
      <point x="372.3222103168529" y="1052.8085106382978"/>
      <point x="372.3222103168529" y="1041.9787234042553" type="qcurve" smooth="yes"/>
      <point x="372.3222103168529" y="1031.1489361702127"/>
      <point x="358.23710393387415" y="1014.9787234042553"/>
      <point x="345.2158273381295" y="1014.9787234042553" type="qcurve" smooth="yes"/>
      <point x="332.1945507423848" y="1014.9787234042553"/>
      <point x="318.1094443594061" y="1031.1489361702127"/>
    </contour>
  </outline>
</glyph>
<glyph name="semicolon" format="2">
  <advance width="942.2482014388489"/>
  <unicode hex="003B"/>
  <outline>
    <contour>
      <point x="375.6133476197765" y="-249.7268483085872" type="line"/>
      <point x="491.68460125516606" y="-192.18666768712689"/>
      <point x="601.9040257155978" y="-42.69041787846319"/>
      <point x="602.8827491198531" y="70.0" type="qcurve" smooth="yes"/>
      <point x="602.8827491198531" y="220.0" type="line"/>
      <point x="613.5636001836829" y="220.0" type="line"/>
      <point x="613.5636001836829" y="70.0" type="line" smooth="yes"/>
      <point x="613.5636001836829" y="-56.13309352517986"/>
      <point x="494.98591764885964" y="-212.32113883361396"/>
      <point x="385.1226082963417" y="-259.6808510638298" type="qcurve"/>
    </contour>
    <contour>
      <point x="570.6274299709169" y="1041.9787234042553" type="qcurve" smooth="yes"/>
      <point x="570.6274299709169" y="1052.8085106382978"/>
      <point x="584.7125363538955" y="1068.0"/>
      <point x="597.7338129496402" y="1068.0" type="qcurve" smooth="yes"/>
      <point x="610.7550895453849" y="1068.0"/>
      <point x="624.8401959283636" y="1052.8085106382978"/>
      <point x="624.8401959283636" y="1041.9787234042553" type="qcurve" smooth="yes"/>
      <point x="624.8401959283636" y="1031.1489361702127"/>
      <point x="610.7550895453849" y="1014.9787234042553"/>
      <point x="597.7338129496402" y="1014.9787234042553" type="qcurve" smooth="yes"/>
      <point x="584.7125363538955" y="1014.9787234042553"/>
      <point x="570.6274299709169" y="1031.1489361702127"/>
    </contour>
  </outline>
</glyph>
<glyph name="less" format="2">
  <advance width="1287"/>
  <unicode hex="003C"/>
  <outline>
    <contour>
      <point x="1143.4856115107914" y="284.6170212765957" type="line"/>
      <point x="137.5" y="670.468085106383" type="line"/>
      <point x="137.5" y="685.2765957446809" type="line"/>
      <point x="1143.4856115107914" y="1064.276595744681" type="line"/>
      <point x="1143" y="1054" type="line"/>
      <point x="149" y="678" type="line"/>
      <point x="1143" y="297" type="line"/>
    </contour>
  </outline>
</glyph>
<glyph name="greater" format="2">
  <advance width="1287"/>
  <unicode hex="003E"/>
  <outline>
    <contour>
      <point x="143.5" y="284.6170212765957" type="line"/>
      <point x="144" y="297" type="line"/>
      <point x="1136" y="678" type="line"/>
      <point x="144" y="1052" type="line"/>
      <point x="143.5" y="1064.276595744681" type="line"/>
      <point x="1149.4856115107914" y="685.2765957446809" type="line"/>
      <point x="1149.4856115107914" y="670.468085106383" type="line"/>
    </contour>
  </outline>
</glyph>
<glyph name="question" format="2">
  <advance width="1044"/>
  <unicode hex="003F"/>
  <outline>
    <contour>
      <point x="452" y="16" type="qcurve" smooth="yes"/>
      <point x="452" y="27"/>
      <point x="466" y="42"/>
      <point x="479" y="42" type="qcurve" smooth="yes"/>
      <point x="492" y="42"/>
      <point x="506" y="27"/>
      <point x="506" y="16" type="qcurve" smooth="yes"/>
      <point x="506" y="5"/>
      <point x="492" y="-10"/>
      <point x="479" y="-10" type="qcurve" smooth="yes"/>
      <point x="466" y="-10"/>
      <point x="452" y="5"/>
    </contour>
    <contour>
      <point x="60" y="1094" type="line"/>
      <point x="60" y="1114" type="line" smooth="yes"/>
      <point x="60" y="1276"/>
      <point x="329" y="1476"/>
      <point x="510" y="1476" type="qcurve" smooth="yes"/>
      <point x="695" y="1476"/>
      <point x="964" y="1307"/>
      <point x="964" y="1135" type="qcurve" smooth="yes"/>
      <point x="964" y="977"/>
      <point x="788" y="835"/>
      <point x="672" y="768" type="qcurve" smooth="yes"/>
      <point x="548" y="697"/>
      <point x="478" y="572"/>
      <point x="478" y="478" type="qcurve" smooth="yes"/>
      <point x="478" y="410" type="line"/>
      <point x="467" y="410" type="line"/>
      <point x="467" y="479" type="line" smooth="yes"/>
      <point x="467" y="575"/>
      <point x="533" y="702"/>
      <point x="659" y="774" type="qcurve" smooth="yes"/>
      <point x="779" y="842"/>
      <point x="953" y="983"/>
      <point x="953" y="1135" type="qcurve" smooth="yes"/>
      <point x="953" y="1301"/>
      <point x="687" y="1464"/>
      <point x="512" y="1464" type="qcurve" smooth="yes"/>
      <point x="334" y="1464"/>
      <point x="71" y="1268"/>
      <point x="71" y="1114" type="qcurve" smooth="yes"/>
      <point x="71" y="1094" type="line"/>
    </contour>
  </outline>
</glyph>
<glyph name="at" format="2">
  <advance width="2580.611510791367"/>
  <unicode hex="0040"/>
  <outline>
    <contour>
      <point x="802.4750497474361" y="378.468085106383" type="qcurve" smooth="yes"/>
      <point x="802.4750497474361" y="634.9787234042553"/>
      <point x="1144.2435328333077" y="1052.0"/>
      <point x="1338.2853683894555" y="1052.0" type="qcurve" smooth="yes"/>
      <point x="1425.225871251051" y="1052.0"/>
      <point x="1569.5779499086555" y="990.8723404255319"/>
      <point x="1614.7031226082963" y="946.0" type="qcurve"/>
      <point x="1676.761977651921" y="946.0" type="line"/>
      <point x="1548.7853206796265" y="350.0" type="line" smooth="yes"/>
      <point x="1521.180593629545" y="219.39375518098922"/>
      <point x="1695.3524235599086" y="10.350649350649348"/>
      <point x="1881.0452676819582" y="10.350649350649348" type="qcurve" smooth="yes"/>
      <point x="2094.791405670711" y="10.350649350649348"/>
      <point x="2329.7909842338895" y="365.2196739430782"/>
      <point x="2329.7909842338895" y="650.0" type="qcurve" smooth="yes"/>
      <point x="2329.7909842338895" y="995.2254766510085"/>
      <point x="1788.2785458839337" y="1475.1298701298701"/>
      <point x="1347.230215827338" y="1475.1298701298701" type="qcurve" smooth="yes"/>
      <point x="890.8418727300558" y="1475.1298701298701"/>
      <point x="250.11633246594215" y="899.3752417794971"/>
      <point x="250.11633246594215" y="460.0" type="qcurve" smooth="yes"/>
      <point x="250.11633246594215" y="47.32743851892788"/>
      <point x="785.1966231380742" y="-435.12987012987014"/>
      <point x="1243.021582733813" y="-435.12987012987014" type="qcurve" smooth="yes"/>
      <point x="1497.3561151079136" y="-435.12987012987014"/>
      <point x="1743.7313837241895" y="-389.6235167709988"/>
      <point x="1847.841726618705" y="-345.12987012987014" type="qcurve"/>
      <point x="1847.841726618705" y="-356.0" type="line"/>
      <point x="1743.4712230215828" y="-400.0"/>
      <point x="1393.5431654676258" y="-446.0"/>
      <point x="1245.8273381294964" y="-446.0" type="qcurve" smooth="yes"/>
      <point x="788.3273381294964" y="-446.0"/>
      <point x="238.6063829787234" y="40.0"/>
      <point x="238.6063829787234" y="460.0" type="qcurve" smooth="yes"/>
      <point x="238.6063829787234" y="905.4468085106383"/>
      <point x="892.2723863462421" y="1486.0"/>
      <point x="1344.1471758763203" y="1486.0" type="qcurve" smooth="yes"/>
      <point x="1786.2347313638452" y="1486.0"/>
      <point x="2339.0689575998776" y="1000.0"/>
      <point x="2339.0689575998776" y="650.0" type="qcurve" smooth="yes"/>
      <point x="2339.0689575998776" y="360.0"/>
      <point x="2085.806291137303" y="0.0"/>
      <point x="1853.5071942446043" y="0.0" type="qcurve" smooth="yes"/>
      <point x="1671.3604775753863" y="0.0"/>
      <point x="1512.9049232567525" y="165.85297421084962"/>
      <point x="1510.3243602410141" y="293.23597678916826" type="qcurve"/>
      <point x="1468.8920247057397" y="175.63084122367758"/>
      <point x="1226.6629012346905" y="0.0"/>
      <point x="1091.0506658502984" y="0.0" type="qcurve" smooth="yes"/>
      <point x="948.7172049594367" y="0.0"/>
      <point x="802.4750497474361" y="187.70212765957447"/>
    </contour>
    <contour>
      <point x="822.4873718046839" y="379.87096280422475" type="qcurve" smooth="yes"/>
      <point x="822.4873718046839" y="198.3474776409875"/>
      <point x="958.8614596026964" y="13.948472390918425"/>
      <point x="1099.086471082874" y="13.948472390918425" type="qcurve" smooth="yes"/>
      <point x="1245.599671796136" y="13.948472390918425"/>
      <point x="1505.449460381957" y="191.52680497215934"/>
      <point x="1532.0253060883706" y="326.13844000787213" type="qcurve" smooth="yes"/>
      <point x="1661.9099447162357" y="931.9606185181725" type="line"/>
      <point x="1612.465891448212" y="977.3980321683521"/>
      <point x="1457.6586749390208" y="1039.441137998692"/>
      <point x="1366.3197234420256" y="1039.441137998692" type="qcurve" smooth="yes"/>
      <point x="1168.9144880834763" y="1039.441137998692"/>
      <point x="822.4873718046839" y="633.6598507875103"/>
    </contour>
  </outline>
</glyph>
<glyph name="A" format="2">
  <advance width="1685.5837874050028"/>
  <unicode hex="0041"/>
  <anchor x="502.4391012497184" y="0.0" name="bottom"/>
  <anchor x="953.8847524603068" y="0.0" name="ogonek"/>
  <anchor x="511.0768204720339" y="1456.0" name="top"/>
  <anchor x="56.5244969577099" y="1074.0" name="tonos"/>
  <outline>
    <contour>
      <point x="66.96043165467626" y="0.0" type="line"/>
      <point x="832.2840106472435" y="1473.782812931749" type="line"/>
      <point x="843.7733723493711" y="1473.782812931749" type="line"/>
      <point x="1619.3247945992473" y="0.0" type="line"/>
      <point x="1591.3439371741072" y="0.0" type="line"/>
      <point x="896.5809933981525" y="1382.6866289228908" type="line" smooth="yes"/>
      <point x="881.2042139706307" y="1411.902150122952"/>
      <point x="850.7040320769081" y="1468.878118284593"/>
      <point x="839.0712446897968" y="1490.133437433529" type="qcurve"/>
      <point x="836.9010319238392" y="1490.133437433529" type="line"/>
      <point x="825.2682445367277" y="1468.878118284593"/>
      <point x="792.9410306515771" y="1410.4992724251103"/>
      <point x="778.9671289218969" y="1382.6866289228908" type="qcurve" smooth="yes"/>
      <point x="95.47251516277998" y="0.0" type="line"/>
    </contour>
    <contour>
      <point x="305.0346194445383" y="458.8961038961039" type="line"/>
      <point x="334.4824964565513" y="469.8181818181818" type="line"/>
      <point x="1344.8809003639863" y="469.8181818181818" type="line"/>
      <point x="1374.3075007802543" y="458.8961038961039" type="line"/>
    </contour>
  </outline>
</glyph>
<glyph name="D" format="2">
  <advance width="1638"/>
  <unicode hex="0044"/>
  <anchor x="837.8887188121843" y="0.0" name="bottom"/>
  <anchor x="223.06620235726314" y="728.0" name="center"/>
  <anchor x="834.9525485994184" y="1456.0" name="top"/>
  <outline>
    <contour>
      <point x="207" y="0" type="line"/>
      <point x="207" y="1456" type="line"/>
      <point x="849" y="1456" type="line" smooth="yes"/>
      <point x="1165" y="1456"/>
      <point x="1485" y="1065"/>
      <point x="1485" y="743" type="qcurve" smooth="yes"/>
      <point x="1485" y="704" type="line" smooth="yes"/>
      <point x="1485" y="381"/>
      <point x="1166" y="0"/>
      <point x="849" y="0" type="qcurve" smooth="yes"/>
    </contour>
    <contour>
      <point x="218" y="11" type="line"/>
      <point x="848" y="11" type="line" smooth="yes"/>
      <point x="1162" y="11"/>
      <point x="1474" y="386"/>
      <point x="1474" y="692" type="qcurve" smooth="yes"/>
      <point x="1474" y="763" type="line" smooth="yes"/>
      <point x="1474" y="1050"/>
      <point x="1162" y="1447"/>
      <point x="848" y="1446" type="qcurve" smooth="yes"/>
      <point x="218" y="1444" type="line"/>
    </contour>
  </outline>
</glyph>
<glyph name="F" format="2">
  <advance width="1413.936170212766"/>
  <unicode hex="0046"/>
  <anchor x="524.332542476657" y="0.0" name="bottom"/>
  <anchor x="569.0895453849687" y="1457.0" name="top"/>
  <outline>
    <contour>
      <point x="207.5" y="0.0" type="line"/>
      <point x="207.5" y="1456.0" type="line"/>
      <point x="1318.436170212766" y="1456.0" type="line"/>
      <point x="1318.436170212766" y="1445.077922077922" type="line"/>
      <point x="218.43617021276597" y="1445.077922077922" type="line"/>
      <point x="218.43617021276597" y="0.0" type="line"/>
    </contour>
    <contour>
      <point x="213.58510638297872" y="718.974025974026" type="line"/>
      <point x="213.58510638297872" y="729.8961038961039" type="line"/>
      <point x="1219.436170212766" y="729.8961038961039" type="line"/>
      <point x="1219.436170212766" y="718.974025974026" type="line"/>
    </contour>
  </outline>
</glyph>
<glyph name="G" format="2">
  <advance width="1712.9958671360785"/>
  <unicode hex="0047"/>
  <anchor x="614.3516761059238" y="0.0" name="bottom"/>
  <anchor x="604.4175723251186" y="1456.0" name="top"/>
  <outline>
    <contour>
      <point x="152.5" y="682.0" type="qcurve" smooth="yes"/>
      <point x="152.5" y="774.0" type="line" smooth="yes"/>
      <point x="152.5" y="1106.0851063829787"/>
      <point x="544.3202969539262" y="1486.0"/>
      <point x="889.0974284402266" y="1486.0" type="qcurve" smooth="yes"/>
      <point x="1197.092147558549" y="1486.0"/>
      <point x="1558.3359099954077" y="1218.7652686361548"/>
      <point x="1547.453313944589" y="1040.0212765957447" type="qcurve" smooth="yes"/>
      <point x="1546.5005645663075" y="1030.0" type="line"/>
      <point x="1535.135542629726" y="1030.0" type="line"/>
      <point x="1535.135542629726" y="1040.0" type="line" smooth="yes"/>
      <point x="1535.135542629726" y="1212.1295938104447"/>
      <point x="1197.9090958788647" y="1474.922077922078"/>
      <point x="889.2017449869891" y="1474.922077922078" type="qcurve" smooth="yes"/>
      <point x="547.0481223200495" y="1474.922077922078"/>
      <point x="163.47872340425533" y="1100.139264990329"/>
      <point x="163.47872340425533" y="774.0" type="qcurve" smooth="yes"/>
      <point x="163.47872340425533" y="682.0" type="line" smooth="yes"/>
      <point x="163.47872340425533" y="355.8607350096712"/>
      <point x="549.9842925328155" y="-18.922077922077932"/>
      <point x="912.4103780805143" y="-18.922077922077932" type="qcurve" smooth="yes"/>
      <point x="1143.057860094903" y="-18.922077922077932"/>
      <point x="1444.7485075769173" y="92.33766233766234"/>
      <point x="1535.6873564977805" y="164.74025974025975" type="qcurve"/>
      <point x="1535.6873564977805" y="717.077922077922" type="line"/>
      <point x="775.2700903107302" y="717.077922077922" type="line"/>
      <point x="775.2700903107302" y="728.0" type="line"/>
      <point x="1546.4958671360782" y="728.0" type="line"/>
      <point x="1546.4958671360782" y="160.0" type="line"/>
      <point x="1465.8699678555029" y="90.0"/>
      <point x="1146.162865452319" y="-30.0"/>
      <point x="908.90318383591" y="-30.0" type="qcurve" smooth="yes"/>
      <point x="547.2564671666921" y="-30.0"/>
      <point x="152.5" y="346.0"/>
    </contour>
  </outline>
</glyph>
<glyph name="H" format="2">
  <advance width="1696.2500382672586"/>
  <unicode hex="0048"/>
  <anchor x="904.5908464717588" y="0.0" name="bottom"/>
  <anchor x="904.5908464717588" y="1100.0" name="center"/>
  <anchor x="904.5908464717588" y="1456.0" name="top"/>
  <anchor x="1482.410990356651" y="0.0" name="cy_descender"/>
  <anchor x="-53.50267870809735" y="1074.0" name="tonos"/>
  <outline>
    <contour>
      <point x="207.5" y="0.0" type="line"/>
      <point x="207.5" y="1456.0" type="line"/>
      <point x="218.43617021276597" y="1456.0" type="line"/>
      <point x="218.43617021276597" y="0.0" type="line"/>
    </contour>
    <contour>
      <point x="205.44512475126282" y="753.1167429692609" type="line"/>
      <point x="205.44512475126282" y="764.0388208913389" type="line"/>
      <point x="1484.4274452778202" y="764.0388208913389" type="line"/>
      <point x="1484.4274452778202" y="753.1167429692609" type="line"/>
    </contour>
    <contour>
      <point x="1477.8138680544926" y="0.0" type="line"/>
      <point x="1477.8138680544926" y="1456.0" type="line"/>
      <point x="1488.7500382672586" y="1456.0" type="line"/>
      <point x="1488.7500382672586" y="0.0" type="line"/>
    </contour>
  </outline>
</glyph>
<glyph name="J" format="2">
  <advance width="1230.9298943823665"/>
  <unicode hex="004A"/>
  <anchor x="356.8479259145875" y="0.0" name="bottom"/>
  <anchor x="639.0716363079749" y="1456.0" name="top"/>
  <outline>
    <contour>
      <point x="62.5" y="400.0" type="qcurve" smooth="yes"/>
      <point x="62.5" y="410.0" type="line"/>
      <point x="73.43617021276597" y="410.0" type="line"/>
      <point x="73.43617021276597" y="400.0" type="line" smooth="yes"/>
      <point x="73.43617021276597" y="206.68831168831167"/>
      <point x="314.1323768837928" y="-18.922077922077932"/>
      <point x="549.7635083422624" y="-18.922077922077932" type="qcurve" smooth="yes"/>
      <point x="787.0701046236788" y="-18.922077922077932"/>
      <point x="1027.4937241696005" y="221.68831168831167"/>
      <point x="1027.4937241696005" y="425.0" type="qcurve" smooth="yes"/>
      <point x="1027.4937241696005" y="1456.0" type="line"/>
      <point x="1038.4298943823665" y="1456.0" type="line"/>
      <point x="1038.4298943823665" y="425.0" type="line" smooth="yes"/>
      <point x="1038.4298943823665" y="215.0"/>
      <point x="789.364380835757" y="-30.0"/>
      <point x="550.4649471911832" y="-30.0" type="qcurve" smooth="yes"/>
      <point x="310.8640746976887" y="-30.0"/>
      <point x="62.5" y="200.9787234042553"/>
    </contour>
  </outline>
</glyph>
<glyph name="K" format="2">
  <advance width="1757.8052196540639"/>
  <unicode hex="004B"/>
  <anchor x="672.8170059696923" y="0.0" name="bottom"/>
  <anchor x="672.8170059696923" y="1456.0" name="top"/>
  <outline>
    <contour>
      <point x="272.09574468085106" y="0.0" type="line"/>
      <point x="272.09574468085106" y="1456.0" type="line"/>
      <point x="283.031914893617" y="1456.0" type="line"/>
      <point x="283.031914893617" y="0.0" type="line"/>
    </contour>
    <contour>
      <point x="1561.8336795609105" y="0.0" type="line"/>
      <point x="740.6792915488002" y="875.1316681940438" type="line"/>
      <point x="756.7800397979488" y="875.8572631256696" type="line"/>
      <point x="1614.0499005051279" y="0.0" type="line"/>
    </contour>
    <contour>
      <point x="279.0744680851064" y="525.5489582360086" type="line"/>
      <point x="279.0744680851064" y="516.1078609894621" type="line"/>
      <point x="1451.77698338704" y="1456.0" type="line"/>
      <point x="1512.4893656779468" y="1456.0" type="line"/>
    </contour>
  </outline>
</glyph>
<glyph name="L" format="2">
  <advance width="1452"/>
  <unicode hex="004C"/>
  <anchor x="593" y="0.0" name="bottom"/>
  <anchor x="707" y="728.0" name="center"/>
  <anchor x="222" y="1456.0" name="top"/>
  <anchor x="600" y="1052.0" name="topright"/>
  <outline>
    <contour>
      <point x="207" y="0" type="line"/>
      <point x="207" y="1456" type="line"/>
      <point x="218" y="1456" type="line"/>
      <point x="218" y="11" type="line"/>
      <point x="1361" y="11" type="line"/>
      <point x="1361" y="0" type="line"/>
    </contour>
  </outline>
</glyph>
<glyph name="M" format="2">
  <advance width="2337.1110515842647"/>
  <unicode hex="004D"/>
  <anchor x="788.0249502525639" y="0.0" name="bottom"/>
  <anchor x="797.1436552885352" y="1456.0" name="top"/>
  <outline>
    <contour>
      <point x="207.5" y="0.0" type="line"/>
      <point x="207.5" y="1456.0" type="line"/>
      <point x="222.54973749654602" y="1456.0" type="line"/>
      <point x="1084.6421245981937" y="103.52872827463369" type="line" smooth="yes"/>
      <point x="1101.9763508342262" y="77.03592251923801"/>
      <point x="1151.5720189805604" y="-0.2797823636641743"/>
      <point x="1162.5081891933264" y="-30.279782363664175" type="qcurve"/>
      <point x="1162.6784019592837" y="-30.279782363664175" type="line"/>
      <point x="1173.6145721720495" y="-0.2797823636641743"/>
      <point x="1224.1889637226388" y="80.67353158092482"/>
      <point x="1241.5231899586713" y="106.46489848739964" type="qcurve" smooth="yes"/>
      <point x="2113.5872881136925" y="1456.0" type="line"/>
      <point x="2129.6110515842647" y="1456.0" type="line"/>
      <point x="2129.6110515842647" y="0.0" type="line"/>
      <point x="2118.8025409459665" y="0.0" type="line"/>
      <point x="2118.8025409459665" y="1362.4266799326497" type="line" smooth="yes"/>
      <point x="2118.8025409459665" y="1392.4266799326497"/>
      <point x="2118.845094137456" y="1467.4266799326494"/>
      <point x="2118.930200520435" y="1496.4479565283941" type="qcurve"/>
      <point x="2118.7599877544776" y="1496.4479565283941" type="line"/>
      <point x="2109.8238175417114" y="1473.2990203581815"/>
      <point x="2060.164319608143" y="1391.1542170518903"/>
      <point x="2042.8300933721107" y="1365.3628501454155" type="qcurve" smooth="yes"/>
      <point x="1167.25287004439" y="0.0" type="line"/>
      <point x="1157.848614725241" y="0.0" type="line"/>
      <point x="304.96180927598346" y="1338.937318230522" type="line" smooth="yes"/>
      <point x="285.94742078677484" y="1367.1102862390937"/>
      <point x="229.1595744680851" y="1466.4479565283941"/>
      <point x="218.2659574468085" y="1496.4479565283941" type="qcurve"/>
      <point x="218.09574468085106" y="1496.4479565283941" type="line"/>
      <point x="218.1808510638298" y="1465.4692331241388"/>
      <point x="218.22340425531917" y="1367.9585948262666"/>
      <point x="218.22340425531917" y="1337.9585948262666" type="qcurve" smooth="yes"/>
      <point x="218.22340425531917" y="0.0" type="line"/>
    </contour>
  </outline>
</glyph>
<glyph name="N" format="2">
  <advance width="1739.7488902495024"/>
  <unicode hex="004E"/>
  <anchor x="610.9371651614879" y="0.0" name="bottom"/>
  <anchor x="610.9371651614879" y="1456.0" name="top"/>
  <anchor x="979.9344099188734" y="0.0" name="engtail"/>
  <outline>
    <contour>
      <point x="207.5" y="0.0" type="line"/>
      <point x="207.5" y="1456.0" type="line"/>
      <point x="221.54255319148936" y="1456.0" type="line"/>
      <point x="1412.1415312071979" y="83.82520311465665" type="line" smooth="yes"/>
      <point x="1435.2410260793852" y="56.07638939967122"/>
      <point x="1496.3669830093372" y="-6.174796885343348"/>
      <point x="1521.2701668452473" y="-31.174796885343348" type="qcurve"/>
      <point x="1521.4403796112047" y="-31.174796885343348" type="line"/>
      <point x="1521.4191030154598" y="-1.1747968853433477"/>
      <point x="1521.3978264197153" y="73.82520311465666"/>
      <point x="1521.3978264197153" y="103.82520311465665" type="qcurve" smooth="yes"/>
      <point x="1521.3978264197153" y="1456.0" type="line"/>
      <point x="1532.2488902495024" y="1456.0" type="line"/>
      <point x="1532.2488902495024" y="0.0" type="line"/>
      <point x="1517.227613653758" y="0.0" type="line"/>
      <point x="327.32537705674093" y="1371.2007709113172" type="line" smooth="yes"/>
      <point x="304.22588218455354" y="1398.9495846263028"/>
      <point x="242.4244604316547" y="1461.2007709113172"/>
      <point x="218.45744680851067" y="1486.2007709113172" type="qcurve"/>
      <point x="218.3085106382979" y="1486.2007709113172" type="line"/>
      <point x="218.32978723404256" y="1456.2007709113172"/>
      <point x="218.35106382978725" y="1381.2007709113172"/>
      <point x="218.35106382978725" y="1351.2007709113172" type="qcurve" smooth="yes"/>
      <point x="218.35106382978725" y="0.0" type="line"/>
    </contour>
  </outline>
</glyph>
<glyph name="O" format="2">
  <advance width="1798.8824429817848"/>
  <unicode hex="004F"/>
  <anchor x="900.8440991887342" y="0.0" name="bottom"/>
  <anchor x="900.8440991887342" y="728.0" name="center"/>
  <anchor x="1130.6063064442062" y="0.0" name="ogonek"/>
  <anchor x="900.8440991887342" y="1456.0" name="top"/>
  <anchor x="1127.4168835144649" y="1456.0" name="topright"/>
  <anchor x="28.097811112811883" y="1074.0" name="tonos"/>
  <anchor x="174.58778509107609" y="742.2841726618705" name="yu_dash"/>
  <outline>
    <contour>
      <point x="152.5" y="708.6546762589928" type="qcurve" smooth="yes"/>
      <point x="152.5" y="747.3453237410072" type="line" smooth="yes"/>
      <point x="152.5" y="1095.9712230215828"/>
      <point x="551.7423848155519" y="1486.0"/>
      <point x="899.4412214908924" y="1486.0" type="qcurve" smooth="yes"/>
      <point x="1247.1400581662328" y="1486.0"/>
      <point x="1646.3824429817848" y="1095.9712230215828"/>
      <point x="1646.3824429817848" y="747.3453237410072" type="qcurve" smooth="yes"/>
      <point x="1646.3824429817848" y="708.6546762589928" type="line" smooth="yes"/>
      <point x="1646.3824429817848" y="360.0287769784173"/>
      <point x="1247.1400581662328" y="-30.0"/>
      <point x="899.4412214908924" y="-30.0" type="qcurve" smooth="yes"/>
      <point x="551.7423848155519" y="-30.0"/>
      <point x="152.5" y="360.0287769784173"/>
    </contour>
    <contour>
      <point x="163.47872340425533" y="701.6402877697842" type="line" smooth="yes"/>
      <point x="163.47872340425533" y="364.4248709349735"/>
      <point x="553.9990815857952" y="-18.922077922077932"/>
      <point x="899.4412214908924" y="-18.922077922077932" type="qcurve" smooth="yes"/>
      <point x="1244.8833613959894" y="-18.922077922077932"/>
      <point x="1635.4037195775295" y="364.4248709349735"/>
      <point x="1635.4037195775295" y="701.6402877697842" type="qcurve" smooth="yes"/>
      <point x="1635.4037195775295" y="754.3597122302158" type="line" smooth="yes"/>
      <point x="1635.4037195775295" y="1093.5325758735373"/>
      <point x="1244.8833613959894" y="1474.922077922078"/>
      <point x="899.4412214908924" y="1474.922077922078" type="qcurve" smooth="yes"/>
      <point x="553.9990815857952" y="1474.922077922078"/>
      <point x="163.47872340425533" y="1093.5325758735373"/>
      <point x="163.47872340425533" y="754.3597122302158" type="qcurve" smooth="yes"/>
    </contour>
  </outline>
</glyph>
<glyph name="P" format="2">
  <advance width="1377"/>
  <unicode hex="0050"/>
  <anchor x="452.2275371192408" y="0.0" name="bottom"/>
  <anchor x="475.3750191336293" y="1456.0" name="top"/>
  <outline>
    <contour>
      <point x="207" y="0" type="line"/>
      <point x="207" y="1456" type="line"/>
      <point x="873" y="1456" type="line" smooth="yes"/>
      <point x="1048" y="1456"/>
      <point x="1289" y="1215"/>
      <point x="1289" y="1015" type="qcurve" smooth="yes"/>
      <point x="1289" y="815"/>
      <point x="1047" y="570"/>
      <point x="873" y="570" type="qcurve" smooth="yes"/>
      <point x="212" y="570" type="line"/>
      <point x="212" y="580" type="line"/>
      <point x="858" y="581" type="line" smooth="yes"/>
      <point x="1037" y="581"/>
      <point x="1278" y="821"/>
      <point x="1278" y="1015" type="qcurve" smooth="yes"/>
      <point x="1278" y="1209"/>
      <point x="1038" y="1446"/>
      <point x="858" y="1446" type="qcurve" smooth="yes"/>
      <point x="218" y="1445" type="line"/>
      <point x="218" y="0" type="line"/>
    </contour>
  </outline>
</glyph>
<glyph name="Q" format="2">
  <advance width="1808.669677024338"/>
  <unicode hex="0051"/>
  <anchor x="603.4175723251186" y="0.0" name="bottom"/>
  <anchor x="603.4175723251186" y="1456.0" name="top"/>
  <outline>
    <contour>
      <point x="152.5" y="708.6546762589928" type="qcurve" smooth="yes"/>
      <point x="152.5" y="747.3453237410072" type="line" smooth="yes"/>
      <point x="152.5" y="1095.9712230215828"/>
      <point x="556.6360018368284" y="1486.0"/>
      <point x="904.334838512169" y="1486.0" type="qcurve" smooth="yes"/>
      <point x="1252.0336751875095" y="1486.0"/>
      <point x="1656.169677024338" y="1095.9712230215828"/>
      <point x="1656.169677024338" y="747.3453237410072" type="qcurve" smooth="yes"/>
      <point x="1656.169677024338" y="708.6546762589928" type="line" smooth="yes"/>
      <point x="1656.169677024338" y="360.0287769784173"/>
      <point x="1252.0336751875095" y="-30.0"/>
      <point x="904.334838512169" y="-30.0" type="qcurve" smooth="yes"/>
      <point x="556.6360018368284" y="-30.0"/>
      <point x="152.5" y="360.0287769784173"/>
    </contour>
    <contour>
      <point x="163.47872340425533" y="701.6402877697842" type="line" smooth="yes"/>
      <point x="163.47872340425533" y="364.4248709349735"/>
      <point x="558.8926986070718" y="-18.922077922077932"/>
      <point x="904.334838512169" y="-18.922077922077932" type="qcurve" smooth="yes"/>
      <point x="1249.776978417266" y="-18.922077922077932"/>
      <point x="1645.1909536200826" y="364.4248709349735"/>
      <point x="1645.1909536200826" y="701.6402877697842" type="qcurve" smooth="yes"/>
      <point x="1645.1909536200826" y="754.3597122302158" type="line" smooth="yes"/>
      <point x="1645.1909536200826" y="1093.5325758735373"/>
      <point x="1249.776978417266" y="1474.922077922078"/>
      <point x="904.334838512169" y="1474.922077922078" type="qcurve" smooth="yes"/>
      <point x="558.8926986070718" y="1474.922077922078"/>
      <point x="163.47872340425533" y="1093.5325758735373"/>
      <point x="163.47872340425533" y="754.3597122302158" type="qcurve" smooth="yes"/>
    </contour>
    <contour>
      <point x="1594.1003367518751" y="-182.468085106383" type="line"/>
      <point x="1168.4978132995125" y="231.63578614864394" type="line"/>
      <point x="1175.0722813846187" y="239.18897763800567" type="line"/>
      <point x="1600.781187815705" y="-174.80851063829786" type="line"/>
    </contour>
  </outline>
</glyph>
<glyph name="R" format="2">
  <advance width="1391.8814510944437"/>
  <unicode hex="0052"/>
  <anchor x="516.3973702739935" y="0.0" name="bottom"/>
  <anchor x="516.3973702739935" y="1456.0" name="top"/>
  <outline>
    <contour>
      <point x="209.5443165467626" y="0.0" type="line"/>
      <point x="209.5443165467626" y="1456.0" type="line"/>
      <point x="949.9984723710394" y="1456.0" type="line" smooth="yes"/>
      <point x="1099.828259605082" y="1456.0"/>
      <point x="1256.9346425838055" y="1222.0"/>
      <point x="1256.9346425838055" y="1028.0" type="qcurve" smooth="yes"/>
      <point x="1256.9346425838055" y="834.0"/>
      <point x="1100.8069830093373" y="593.025974025974"/>
      <point x="949.9984723710394" y="594.0" type="qcurve" smooth="yes"/>
      <point x="215.4166569722945" y="594.0" type="line"/>
      <point x="215.4166569722945" y="604.8701298701299" type="line"/>
      <point x="949.9984723710394" y="604.8701298701299" type="line" smooth="yes"/>
      <point x="1099.4541231032858" y="604.8701298701299"/>
      <point x="1245.9984723710395" y="842.8958275766787"/>
      <point x="1245.9984723710395" y="1028.0" type="qcurve" smooth="yes"/>
      <point x="1245.9984723710395" y="1215.0381320806853"/>
      <point x="1097.5107685854632" y="1444.155844155844"/>
      <point x="949.9984723710394" y="1445.1298701298701" type="qcurve" smooth="yes"/>
      <point x="220.48048675952856" y="1445.1298701298701" type="line"/>
      <point x="220.48048675952856" y="0.0" type="line"/>
    </contour>
    <contour>
      <point x="1301.9984723710395" y="0.0" type="line"/>
      <point x="914.815626439992" y="600.8961038961039" type="line"/>
      <point x="930.7755800024252" y="605.4139264990329" type="line"/>
      <point x="1314.3814510944437" y="0.0" type="line"/>
    </contour>
  </outline>
</glyph>
<glyph name="S" format="2">
  <advance width="1444"/>
  <unicode hex="0053"/>
  <anchor x="494.46081432726163" y="0.0" name="bottom"/>
  <anchor x="484.67358028470846" y="1456.0" name="top"/>
  <outline>
    <contour>
      <point x="127" y="399" type="qcurve" smooth="yes"/>
      <point x="127" y="412" type="line"/>
      <point x="138" y="412" type="line"/>
      <point x="138" y="399" type="line" smooth="yes"/>
      <point x="138" y="205"/>
      <point x="455" y="-19"/>
      <point x="731" y="-19" type="qcurve" smooth="yes"/>
      <point x="1036" y="-19"/>
      <point x="1312" y="192"/>
      <point x="1310" y="351" type="qcurve"/>
      <point x="1312" y="530"/>
      <point x="1036" y="710"/>
      <point x="714" y="765" type="qcurve" smooth="yes"/>
      <point x="390" y="820"/>
      <point x="168" y="976"/>
      <point x="168" y="1116" type="qcurve" smooth="yes"/>
      <point x="168" y="1266"/>
      <point x="445" y="1488"/>
      <point x="710" y="1488" type="qcurve" smooth="yes"/>
      <point x="978" y="1488"/>
      <point x="1265" y="1251"/>
      <point x="1265" y="1065" type="qcurve" smooth="yes"/>
      <point x="1265" y="1052" type="line"/>
      <point x="1254" y="1052" type="line"/>
      <point x="1254" y="1065" type="line" smooth="yes"/>
      <point x="1254" y="1244"/>
      <point x="968" y="1473"/>
      <point x="710" y="1473" type="qcurve" smooth="yes"/>
      <point x="448" y="1473"/>
      <point x="179" y="1263"/>
      <point x="179" y="1116" type="qcurve" smooth="yes"/>
      <point x="179" y="986"/>
      <point x="391" y="836"/>
      <point x="707" y="780" type="qcurve" smooth="yes"/>
      <point x="1036" y="722"/>
      <point x="1325" y="539"/>
      <point x="1323" y="357" type="qcurve"/>
      <point x="1325" y="189"/>
      <point x="1043" y="-30"/>
      <point x="731" y="-30" type="qcurve" smooth="yes"/>
      <point x="450" y="-30"/>
      <point x="127" y="201"/>
    </contour>
  </outline>
</glyph>
<glyph name="T" format="2">
  <advance width="1652"/>
  <unicode hex="0054"/>
  <anchor x="541" y="0.0" name="bottom"/>
  <anchor x="541" y="728.0" name="center"/>
  <anchor x="541" y="1456.0" name="top"/>
  <anchor x="550" y="0.0" name="cy_descender"/>
  <outline>
    <contour>
      <point x="821" y="0" type="line"/>
      <point x="821" y="1452" type="line"/>
      <point x="832" y="1452" type="line"/>
      <point x="832" y="0" type="line"/>
    </contour>
    <contour>
      <point x="61" y="1444" type="line"/>
      <point x="61" y="1456" type="line"/>
      <point x="1591" y="1456" type="line"/>
      <point x="1591" y="1446" type="line"/>
    </contour>
  </outline>
</glyph>
<glyph name="U" format="2">
  <advance width="1579.8039951017909"/>
  <unicode hex="0055"/>
  <anchor x="548.9577529465789" y="0.0" name="bottom"/>
  <anchor x="683.6131945507424" y="0.0" name="ogonek"/>
  <anchor x="555.2707025868667" y="1456.0" name="top"/>
  <anchor x="905.8561151079136" y="1456.0" name="topright"/>
  <outline>
    <contour>
      <point x="192.5" y="470.0" type="qcurve" smooth="yes"/>
      <point x="192.5" y="1456.0" type="line"/>
      <point x="203.43617021276597" y="1456.0" type="line"/>
      <point x="203.43617021276597" y="470.0" type="line" smooth="yes"/>
      <point x="203.43617021276597" y="228.88670903564525"/>
      <point x="527.4773268978076" y="-18.922077922077932"/>
      <point x="790.252716975356" y="-18.922077922077932" type="qcurve" smooth="yes"/>
      <point x="1051.0800551048524" y="-18.922077922077932"/>
      <point x="1376.367824889025" y="224.99060513954134"/>
      <point x="1376.367824889025" y="470.0" type="qcurve" smooth="yes"/>
      <point x="1376.367824889025" y="1456.0" type="line"/>
      <point x="1387.3039951017909" y="1456.0" type="line"/>
      <point x="1387.3039951017909" y="470.0" type="line" smooth="yes"/>
      <point x="1387.3039951017909" y="220.0"/>
      <point x="1051.721108219807" y="-30.0"/>
      <point x="790.252716975356" y="-30.0" type="qcurve" smooth="yes"/>
      <point x="528.7843257309046" y="-30.0"/>
      <point x="192.5" y="220.0"/>
    </contour>
  </outline>
</glyph>
<glyph name="V" format="2">
  <advance width="1579.700443900199"/>
  <unicode hex="0056"/>
  <anchor x="800.3239306295407" y="0.0" name="bottom"/>
  <anchor x="809.3935358129718" y="1456.0" name="top"/>
  <outline>
    <contour>
      <point x="37.5" y="1456.0" type="line"/>
      <point x="56.56358129854228" y="1456.0" type="line"/>
      <point x="725.7193191012263" y="93.49220242485207" type="line" smooth="yes"/>
      <point x="740.3946596798272" y="63.02067326520107"/>
      <point x="778.5305084476216" y="-27.14471782618114"/>
      <point x="788.6561015901287" y="-53.78439331982878" type="qcurve"/>
      <point x="788.847590951831" y="-53.78439331982878" type="line"/>
      <point x="800.3760617921799" y="-27.14471782618114"/>
      <point x="837.0045920710239" y="59.10577964817979"/>
      <point x="853.6373794581356" y="93.49220242485207" type="qcurve" smooth="yes"/>
      <point x="1519.3710293991942" y="1456.0" type="line"/>
      <point x="1542.200443900199" y="1456.0" type="line"/>
      <point x="795.317618245829" y="-10.0" type="line"/>
      <point x="785.7857033522118" y="-10.0" type="line"/>
    </contour>
  </outline>
</glyph>
<glyph name="W" format="2">
  <advance width="2234.5700290831164"/>
  <unicode hex="0057"/>
  <anchor x="756.2560844941069" y="0.0" name="bottom"/>
  <anchor x="765.374789530078" y="1456.0" name="top"/>
  <outline>
    <contour>
      <point x="597.2411602632787" y="-10.0" type="line"/>
      <point x="87.5" y="1456.0" type="line"/>
      <point x="106.035675024501" y="1456.0" type="line"/>
      <point x="559.5983657395718" y="73.20809735190574" type="line" smooth="yes"/>
      <point x="570.8282754288417" y="41.31241389866833"/>
      <point x="586.9516778950423" y="-3.7493494566048957"/>
      <point x="598.9447897885062" y="-28.91956222256234" type="qcurve"/>
      <point x="599.1575557459531" y="-28.91956222256234" type="line"/>
      <point x="610.4492287904962" y="-2.770626052349619"/>
      <point x="627.2740701056177" y="39.63225164549215"/>
      <point x="639.2266952395531" y="73.20809735190574" type="qcurve" smooth="yes"/>
      <point x="1109.1533463475143" y="1456.0" type="line"/>
      <point x="1123.0776348249942" y="1456.0" type="line"/>
      <point x="1590.1128595879861" y="72.2293739476504" type="line" smooth="yes"/>
      <point x="1601.3640458730006" y="39.35496709015768"/>
      <point x="1618.6130414817083" y="3.1017143731823236"/>
      <point x="1630.8834379305067" y="-29.898285626817675" type="qcurve"/>
      <point x="1631.074927292209" y="-29.898285626817675" type="line"/>
      <point x="1644.046762589928" y="3.1017143731823236"/>
      <point x="1657.5325559944417" y="38.930812796571274"/>
      <point x="1669.4639045326323" y="72.2293739476504" type="qcurve" smooth="yes"/>
      <point x="2128.148055526289" y="1456.0" type="line"/>
      <point x="2147.0700290831164" y="1456.0" type="line"/>
      <point x="1639.009031073014" y="-10.0" type="line"/>
      <point x="1626.2430736262052" y="-10.0" type="line"/>
      <point x="1159.7365681922547" y="1348.3945553145766" type="line" smooth="yes"/>
      <point x="1147.7839430583194" y="1381.2689621720695"/>
      <point x="1127.345400275524" y="1443.3945553145766"/>
      <point x="1116.8807592224093" y="1476.3945553145766" type="qcurve"/>
      <point x="1116.710546456452" y="1476.3945553145766" type="line"/>
      <point x="1106.2459054033368" y="1443.3945553145766"/>
      <point x="1085.8073626205419" y="1380.2902387678141"/>
      <point x="1073.8547374866066" y="1348.3945553145766" type="qcurve" smooth="yes"/>
      <point x="610.0071177100873" y="-10.0" type="line"/>
    </contour>
  </outline>
</glyph>
<glyph name="X" format="2">
  <advance width="1435.6480962784344"/>
  <unicode hex="0058"/>
  <anchor x="413.8331368616077" y="0.0" name="bottom"/>
  <anchor x="413.8331368616077" y="1456.0" name="top"/>
  <anchor x="759.314232835892" y="0.0" name="cy_descender"/>
  <outline>
    <contour>
      <point x="62.5" y="0.0" type="line"/>
      <point x="743.2100783037564" y="806.0" type="line"/>
      <point x="746.3137060398655" y="806.0" type="line"/>
      <point x="1308.6677457702253" y="1456.0" type="line"/>
      <point x="1350.5484871014492" y="1456.0" type="line"/>
      <point x="673.6954035555749" y="670.0" type="line"/>
      <point x="669.8903369705453" y="670.0" type="line"/>
      <point x="104.38074133122349" y="0.0" type="line"/>
    </contour>
    <contour>
      <point x="86.53536888643272" y="1456.0" type="line"/>
      <point x="126.24063545516175" y="1456.0" type="line"/>
      <point x="681.9856512689821" y="806.0" type="line"/>
      <point x="684.3027337731914" y="806.0" type="line"/>
      <point x="1373.1480962784344" y="0.0" type="line"/>
      <point x="1330.9096614391271" y="0.0" type="line"/>
      <point x="757.5326712931949" y="670.0" type="line"/>
      <point x="755.2155887889855" y="670.0" type="line"/>
    </contour>
  </outline>
</glyph>
<glyph name="Y" format="2">
  <advance width="1426"/>
  <unicode hex="0059"/>
  <anchor x="442" y="0.0" name="bottom"/>
  <anchor x="452" y="1456.0" name="top"/>
  <anchor x="-275" y="1074.0" name="tonos"/>
  <outline>
    <contour>
      <point x="715" y="0" type="line"/>
      <point x="715" y="544" type="line"/>
      <point x="52" y="1456" type="line"/>
      <point x="65" y="1456" type="line"/>
      <point x="643" y="661" type="line" smooth="yes"/>
      <point x="662" y="634"/>
      <point x="698" y="585"/>
      <point x="720" y="554" type="qcurve"/>
      <point x="720" y="554" type="line"/>
      <point x="741" y="584"/>
      <point x="777" y="632"/>
      <point x="797" y="661" type="qcurve" smooth="yes"/>
      <point x="1360" y="1456" type="line"/>
      <point x="1374" y="1456" type="line"/>
      <point x="726" y="544" type="line"/>
      <point x="726" y="0" type="line"/>
    </contour>
  </outline>
</glyph>
<glyph name="Z" format="2">
  <advance width="1537.2948109597428"/>
  <unicode hex="005A"/>
  <anchor x="537.6131945507424" y="0.0" name="bottom"/>
  <anchor x="537.6131945507424" y="1456.0" name="top"/>
  <outline>
    <contour>
      <point x="136.5909090909091" y="0.0" type="line"/>
      <point x="136.5909090909091" y="8.497098646034829" type="line"/>
      <point x="1330.3774493530348" y="1445.077922077922" type="line"/>
      <point x="217.74675324675326" y="1445.077922077922" type="line"/>
      <point x="217.74675324675326" y="1456.0" type="line"/>
      <point x="1376.4701356350674" y="1456.0" type="line"/>
      <point x="1376.4701356350674" y="1445.5454545454545" type="line"/>
      <point x="183.65292391673842" y="10.922077922077932" type="line"/>
      <point x="1433.7948109597428" y="10.922077922077932" type="line"/>
      <point x="1433.7948109597428" y="0.0" type="line"/>
    </contour>
  </outline>
</glyph>
<glyph name="bracketleft" format="2">
  <advance width="717.7971069952548"/>
  <unicode hex="005B"/>
  <outline>
    <contour>
      <point x="181.5" y="-310.0" type="line"/>
      <point x="181.5" y="1456.0" type="line"/>
      <point x="600.2971069952548" y="1456.0" type="line"/>
      <point x="600.2971069952548" y="1445.025974025974" type="line"/>
      <point x="192.2872340425532" y="1445.025974025974" type="line"/>
      <point x="192.2872340425532" y="-299.02597402597405" type="line"/>
      <point x="600.2971069952548" y="-299.02597402597405" type="line"/>
      <point x="600.2971069952548" y="-310.0" type="line"/>
    </contour>
  </outline>
</glyph>
<glyph name="bracketright" format="2">
  <advance width="717.7971069952548"/>
  <unicode hex="005D"/>
  <outline>
    <contour>
      <point x="536.2971069952548" y="-310.0" type="line"/>
      <point x="117.5" y="-310.0" type="line"/>
      <point x="117.5" y="-299.02597402597405" type="line"/>
      <point x="525.5098729527017" y="-299.02597402597405" type="line"/>
      <point x="525.5098729527017" y="1445.025974025974" type="line"/>
      <point x="117.5" y="1445.025974025974" type="line"/>
      <point x="117.5" y="1456.0" type="line"/>
      <point x="536.2971069952548" y="1456.0" type="line"/>
    </contour>
  </outline>
</glyph>
<glyph name="asciicircum" format="2">
  <advance width="1487.2621307209552"/>
  <unicode hex="005E"/>
  <outline>
    <contour>
      <point x="68.11151079136691" y="720.0" type="line"/>
      <point x="739.5143884892086" y="1456.0" type="line"/>
      <point x="750.961196999847" y="1456.0" type="line"/>
      <point x="1418.4491810806674" y="720.0" type="line"/>
      <point x="1362.3202969539261" y="720.0" type="line"/>
      <point x="745.2377927445277" y="1450.6739629572937" type="line"/>
      <point x="116.24728302464413" y="720.0" type="line"/>
    </contour>
  </outline>
</glyph>
<glyph name="underscore" format="2">
  <advance width="1515.6546762589928"/>
  <unicode hex="005F"/>
  <outline>
    <contour>
      <point x="37.5" y="-254.51063829787233" type="line"/>
      <point x="37.5" y="-244.0" type="line"/>
      <point x="1478.1546762589928" y="-244.0" type="line"/>
      <point x="1478.1546762589928" y="-254.51063829787233" type="line"/>
    </contour>
  </outline>
</glyph>
<glyph name="a" format="2">
  <advance width="1221"/>
  <unicode hex="0061"/>
  <anchor x="723.8453237410072" y="0.0" name="bottom"/>
  <anchor x="1075.6091382213378" y="0.0" name="ogonek"/>
  <anchor x="792.5192866983009" y="916.0" name="top"/>
  <outline>
    <contour>
      <point x="551" y="-20" type="qcurve" smooth="yes"/>
      <point x="297" y="-20"/>
      <point x="127" y="133"/>
      <point x="127" y="276" type="qcurve" smooth="yes"/>
      <point x="127" y="413"/>
      <point x="311" y="573"/>
      <point x="629" y="573" type="qcurve" smooth="yes"/>
      <point x="1032" y="573" type="line"/>
      <point x="1032" y="562" type="line"/>
      <point x="618" y="562" type="line" smooth="yes"/>
      <point x="319" y="562"/>
      <point x="139" y="412"/>
      <point x="139" y="276" type="qcurve" smooth="yes"/>
      <point x="139" y="138"/>
      <point x="307" y="-10"/>
      <point x="550" y="-10" type="qcurve" smooth="yes"/>
      <point x="738" y="-10"/>
      <point x="1027" y="117"/>
      <point x="1027" y="206" type="qcurve"/>
      <point x="1027" y="624" type="line" smooth="yes"/>
      <point x="1027" y="813"/>
      <point x="840" y="935"/>
      <point x="623" y="935" type="qcurve" smooth="yes"/>
      <point x="414" y="935"/>
      <point x="216" y="828"/>
      <point x="216" y="668" type="qcurve" smooth="yes"/>
      <point x="216" y="663" type="line"/>
      <point x="205" y="663" type="line"/>
      <point x="205" y="668" type="line" smooth="yes"/>
      <point x="205" y="836"/>
      <point x="412" y="946"/>
      <point x="625" y="946" type="qcurve" smooth="yes"/>
      <point x="843" y="946"/>
      <point x="1038" y="818"/>
      <point x="1038" y="624" type="qcurve" smooth="yes"/>
      <point x="1038" y="240" type="line" smooth="yes"/>
      <point x="1038" y="152"/>
      <point x="1057" y="46"/>
      <point x="1078" y="11" type="qcurve"/>
      <point x="1078" y="0" type="line"/>
      <point x="1068" y="0" type="line"/>
      <point x="1048" y="38"/>
      <point x="1031" y="107"/>
      <point x="1028" y="168" type="qcurve"/>
      <point x="1009" y="97"/>
      <point x="740" y="-20"/>
    </contour>
  </outline>
</glyph>
<glyph name="b" format="2">
  <advance width="1326.9970916883515"/>
  <unicode hex="0062"/>
  <anchor x="443.6227613653758" y="0.0" name="bottom"/>
  <anchor x="394.45744680851067" y="1536.0" name="top"/>
  <outline>
    <contour>
      <point x="185.5" y="0.0" type="line"/>
      <point x="185.5" y="1536.0" type="line"/>
      <point x="196.3085106382979" y="1536.0" type="line"/>
      <point x="196.3085106382979" y="192.373726992432" type="line"/>
      <point x="196.09574468085106" y="192.373726992432" type="line"/>
      <point x="195.9255319148936" y="0.0" type="line"/>
    </contour>
    <contour>
      <point x="709.061704711942" y="-9.233766233766232" type="qcurve" smooth="yes"/>
      <point x="918.9479868638937" y="-9.233766233766232"/>
      <point x="1193.6034746670748" y="229.6420779220779"/>
      <point x="1193.6034746670748" y="438.1038961038961" type="qcurve" smooth="yes"/>
      <point x="1193.6034746670748" y="481.7922077922078" type="line" smooth="yes"/>
      <point x="1193.6034746670748" y="706.8171649626969"/>
      <point x="923.973131931592" y="925.2337662337663"/>
      <point x="709.0710995724007" y="925.2337662337663" type="qcurve" smooth="yes"/>
      <point x="467.35644315274504" y="925.2337662337663"/>
      <point x="195.3936170212766" y="667.3997457861287"/>
      <point x="195.3936170212766" y="490.7402597402597" type="qcurve" smooth="yes"/>
      <point x="195.3936170212766" y="453.0" type="line" smooth="yes"/>
      <point x="195.3936170212766" y="248.6148217739707"/>
      <point x="468.3830843211587" y="-9.233766233766232"/>
    </contour>
    <contour>
      <point x="700.8515458978492" y="-20.0" type="qcurve" smooth="yes"/>
      <point x="467.21014772155746" y="-20.0"/>
      <point x="187.11702127659575" y="252.52051948051948"/>
      <point x="187.11702127659575" y="452.0" type="qcurve" smooth="yes"/>
      <point x="187.11702127659575" y="486.0" type="line" smooth="yes"/>
      <point x="187.11702127659575" y="666.4068085106384"/>
      <point x="472.02188887188123" y="936.0"/>
      <point x="701.8255718718752" y="936.0" type="qcurve" smooth="yes"/>
      <point x="930.0183652227154" y="936.0"/>
      <point x="1204.4970916883515" y="708.6655319148937"/>
      <point x="1204.4970916883515" y="474.0" type="qcurve" smooth="yes"/>
      <point x="1204.4970916883515" y="442.0" type="line" smooth="yes"/>
      <point x="1204.4970916883515" y="226.90893617021277"/>
      <point x="925.1576302130442" y="-20.0"/>
    </contour>
  </outline>
</glyph>
<glyph name="c" format="2">
  <advance width="1222"/>
  <unicode hex="0063"/>
  <anchor x="435.88634624215524" y="0.0" name="bottom"/>
  <anchor x="451.54592071024035" y="916.0" name="top"/>
  <outline>
    <contour>
      <point x="122" y="442" type="qcurve" smooth="yes"/>
      <point x="122" y="474" type="line" smooth="yes"/>
      <point x="122" y="699"/>
      <point x="393" y="946"/>
      <point x="653" y="946" type="qcurve" smooth="yes"/>
      <point x="886" y="946"/>
      <point x="1115" y="754"/>
      <point x="1115" y="606" type="qcurve" smooth="yes"/>
      <point x="1115" y="601" type="line"/>
      <point x="1105" y="601" type="line"/>
      <point x="1105" y="606" type="line" smooth="yes"/>
      <point x="1105" y="741"/>
      <point x="885" y="935"/>
      <point x="655" y="935" type="qcurve" smooth="yes"/>
      <point x="399" y="935"/>
      <point x="133" y="686"/>
      <point x="133" y="474" type="qcurve" smooth="yes"/>
      <point x="133" y="442" type="line" smooth="yes"/>
      <point x="133" y="229"/>
      <point x="400" y="-20"/>
      <point x="655" y="-20" type="qcurve" smooth="yes"/>
      <point x="885" y="-20"/>
      <point x="1105" y="173"/>
      <point x="1105" y="309" type="qcurve" smooth="yes"/>
      <point x="1105" y="314" type="line"/>
      <point x="1115" y="314" type="line"/>
      <point x="1115" y="309" type="line" smooth="yes"/>
      <point x="1115" y="160"/>
      <point x="886" y="-30"/>
      <point x="652" y="-30" type="qcurve" smooth="yes"/>
      <point x="393" y="-30"/>
      <point x="122" y="220"/>
    </contour>
  </outline>
</glyph>
<glyph name="d" format="2">
  <advance width="1327.9758150926068"/>
  <unicode hex="0064"/>
  <anchor x="448.17327414664015" y="0.0" name="bottom"/>
  <anchor x="711.506811572019" y="1313.0" name="center"/>
  <anchor x="409.0243379764274" y="1536.0" name="top"/>
  <anchor x="812.1683759375478" y="1052.0" name="topright"/>
  <outline>
    <contour>
      <point x="1131.6673044543088" y="1536.0" type="line"/>
      <point x="1142.4758150926068" y="1536.0" type="line"/>
      <point x="1142.4758150926068" y="0.0" type="line"/>
      <point x="1132.0502831777133" y="0.0" type="line"/>
      <point x="1131.8800704117557" y="415.415735496709" type="line"/>
      <point x="1131.6673044543088" y="415.415735496709" type="line"/>
    </contour>
    <contour>
      <point x="627.7179235887332" y="925.2337662337663" type="qcurve" smooth="yes"/>
      <point x="409.68229277534033" y="925.2337662337663"/>
      <point x="132.41959104725063" y="700.0171649626969"/>
      <point x="132.41959104725063" y="481.7922077922078" type="qcurve" smooth="yes"/>
      <point x="132.41959104725063" y="438.1038961038961" type="line" smooth="yes"/>
      <point x="132.41959104725063" y="236.44207792207789"/>
      <point x="405.88892444154646" y="-9.233766233766232"/>
      <point x="625.7698716406813" y="-9.233766233766232" type="qcurve" smooth="yes"/>
      <point x="860.4196088986781" y="-9.233766233766232"/>
      <point x="1130.6294486930487" y="224.15626416137053"/>
      <point x="1130.6294486930487" y="436.94805194805195" type="qcurve" smooth="yes"/>
      <point x="1130.6294486930487" y="463.97402597402595" type="line" smooth="yes"/>
      <point x="1130.6294486930487" y="639.104935064935"/>
      <point x="871.9613567880152" y="925.2337662337663"/>
    </contour>
    <contour>
      <point x="630.8875956432975" y="936.0" type="qcurve" smooth="yes"/>
      <point x="865.3995971700122" y="936.0"/>
      <point x="1138.9060444377296" y="638.735075987842"/>
      <point x="1138.9060444377296" y="463.97402597402595" type="qcurve" smooth="yes"/>
      <point x="1138.9060444377296" y="435.0425531914894" type="line" smooth="yes"/>
      <point x="1138.9060444377296" y="226.12378004973746"/>
      <point x="859.5689624106186" y="-20.0"/>
      <point x="628.9395436952454" y="-20.0" type="qcurve" smooth="yes"/>
      <point x="397.83345938005056" y="-20.0"/>
      <point x="121.52597402597402" y="233.70893617021278"/>
      <point x="121.52597402597402" y="442.0" type="qcurve" smooth="yes"/>
      <point x="121.52597402597402" y="474.0" type="line" smooth="yes"/>
      <point x="121.52597402597402" y="701.8655319148936"/>
      <point x="402.69480229245727" y="936.0"/>
    </contour>
  </outline>
</glyph>
<glyph name="e" format="2">
  <advance width="1246.3506046226848"/>
  <unicode hex="0065"/>
  <anchor x="457.5452318995867" y="0.0" name="bottom"/>
  <anchor x="578.1028643788478" y="0.0" name="ogonek"/>
  <anchor x="444.46081432726163" y="916.0" name="top"/>
  <outline>
    <contour>
      <point x="121.52127659574468" y="442.0" type="qcurve" smooth="yes"/>
      <point x="121.52127659574468" y="474.0" type="line" smooth="yes"/>
      <point x="121.52127659574468" y="680.72"/>
      <point x="391.9358916271238" y="946.0"/>
      <point x="644.9796418184601" y="946.0" type="qcurve" smooth="yes"/>
      <point x="866.849609673963" y="946.0"/>
      <point x="1107.171819990816" y="753.5710638297872"/>
      <point x="1112.2123067503444" y="585.9574468085107" type="qcurve" smooth="yes"/>
      <point x="1112.2123067503444" y="483.2077922077922" type="line"/>
      <point x="114.53436399816319" y="483.2077922077922" type="line"/>
      <point x="114.53436399816319" y="493.87012987012986" type="line"/>
      <point x="1101.382519516302" y="493.87012987012986" type="line"/>
      <point x="1101.382519516302" y="574.4" type="line" smooth="yes"/>
      <point x="1101.382519516302" y="732.1937662337663"/>
      <point x="874.9147441262242" y="935.2337662337663"/>
      <point x="647.9931894219358" y="935.2337662337663" type="qcurve" smooth="yes"/>
      <point x="402.238858860411" y="935.2337662337663"/>
      <point x="132.41489361702128" y="679.0477922077922"/>
      <point x="132.41489361702128" y="474.0" type="qcurve" smooth="yes"/>
      <point x="132.41489361702128" y="442.0" type="line" smooth="yes"/>
      <point x="132.41489361702128" y="232.0820779220779"/>
      <point x="413.13330527730346" y="-19.233766233766232"/>
      <point x="664.617827373912" y="-19.233766233766232" type="qcurve" smooth="yes"/>
      <point x="858.3650895255058" y="-19.233766233766232"/>
      <point x="1091.3962072673996" y="145.71428571428572"/>
      <point x="1128.8354507883055" y="270.0" type="qcurve"/>
      <point x="1124.3413439461197" y="266.02127659574467" type="line"/>
      <point x="1088.1574315016073" y="136.2127659574468"/>
      <point x="855.416465059508" y="-30.0"/>
      <point x="659.7077554314659" y="-30.0" type="qcurve" smooth="yes"/>
      <point x="409.419295882443" y="-30.0"/>
      <point x="121.52127659574468" y="228.42893617021278"/>
    </contour>
  </outline>
</glyph>
<glyph name="f" format="2">
  <advance width="858.1133476197765"/>
  <unicode hex="0066"/>
  <anchor x="245.38604010408693" y="0.0" name="bottom"/>
  <anchor x="260.08334608908615" y="1536.0" name="top"/>
  <outline>
    <contour>
      <point x="414.4712230215827" y="0.0" type="line"/>
      <point x="414.4712230215827" y="1226.4255319148936" type="line" smooth="yes"/>
      <point x="414.4712230215827" y="1413.1489361702127"/>
      <point x="548.3585642124598" y="1556.0"/>
      <point x="647.2576151844481" y="1556.0" type="qcurve" smooth="yes"/>
      <point x="691.3454002755243" y="1556.0"/>
      <point x="770.3954538496862" y="1547.0212765957447"/>
      <point x="809.5306138068269" y="1540.0" type="qcurve"/>
      <point x="808.2968475730606" y="1530.269135120199" type="line"/>
      <point x="766.4239147504875" y="1537.191213042277"/>
      <point x="694.6029299798624" y="1545.139264990329"/>
      <point x="648.3011454334736" y="1545.139264990329" type="qcurve" smooth="yes"/>
      <point x="553.3088267159137" y="1545.139264990329"/>
      <point x="421.7725394152763" y="1409.2412268582482"/>
      <point x="425.2797336598806" y="1226.4255319148936" type="qcurve" smooth="yes"/>
      <point x="425.2797336598806" y="913.4675324675325" type="line"/>
      <point x="425.2797336598806" y="910.9480519480519" type="line"/>
      <point x="425.2797336598806" y="0.0" type="line"/>
    </contour>
    <contour>
      <point x="62.5" y="905.4935064935064" type="line"/>
      <point x="62.5" y="916.0" type="line"/>
      <point x="444.9968620848002" y="916.0" type="line"/>
      <point x="447.9330322975662" y="916.0" type="line"/>
      <point x="720.4874483392009" y="916.0" type="line"/>
      <point x="720.4874483392009" y="905.4935064935064" type="line"/>
    </contour>
  </outline>
</glyph>
<glyph name="g" format="2">
  <advance width="1327.9758150926068"/>
  <unicode hex="0067"/>
  <anchor x="441.7628195316088" y="-416.0" name="bottom"/>
  <anchor x="432.5466095208939" y="916.0" name="top"/>
  <outline>
    <contour>
      <point x="629.459673267189" y="-436.0" type="qcurve" smooth="yes"/>
      <point x="432.4151997550896" y="-436.0"/>
      <point x="201.1897290678096" y="-310.8510638297872"/>
      <point x="146.81914893617022" y="-148.93617021276597" type="qcurve"/>
      <point x="155.18085106382978" y="-144.0" type="line"/>
      <point x="209.31710834703335" y="-307.13512019895"/>
      <point x="439.7007818448198" y="-424.97402597402595"/>
      <point x="634.2398750797649" y="-424.97402597402595" type="qcurve" smooth="yes"/>
      <point x="867.9101077248176" y="-424.97402597402595"/>
      <point x="1130.6885810500537" y="-217.4025974025974"/>
      <point x="1130.6885810500537" y="20.0" type="qcurve" smooth="yes"/>
      <point x="1130.6885810500537" y="722.884892086331" type="line"/>
      <point x="1126.6927139139752" y="722.884892086331" type="line"/>
      <point x="1126.8629266799326" y="916.0" type="line"/>
      <point x="1141.4970916883515" y="916.0" type="line"/>
      <point x="1141.4970916883515" y="20.0" type="line" smooth="yes"/>
      <point x="1141.4970916883515" y="-232.29787234042553"/>
      <point x="865.4975508954539" y="-436.0"/>
    </contour>
    <contour>
      <point x="606.2343670595438" y="-9.233766233766232" type="qcurve" smooth="yes"/>
      <point x="847.8469369295941" y="-9.233766233766232"/>
      <point x="1105.040878616256" y="240.81804918485773"/>
      <point x="1105.040878616256" y="452.6170212765958" type="qcurve" smooth="yes"/>
      <point x="1105.040878616256" y="480.6170212765958" type="line" smooth="yes"/>
      <point x="1105.040878616256" y="666.645415860735"/>
      <point x="836.7028951516874" y="925.2337662337663"/>
      <point x="604.2769202510332" y="925.2337662337663" type="qcurve" smooth="yes"/>
      <point x="381.29166489411404" y="925.2337662337663"/>
      <point x="133.3936170212766" y="699.4471179883947"/>
      <point x="133.3936170212766" y="474.0" type="qcurve" smooth="yes"/>
      <point x="133.3936170212766" y="442.0" type="line" smooth="yes"/>
      <point x="133.3936170212766" y="242.25804918485773"/>
      <point x="377.3955609980101" y="-9.233766233766232"/>
    </contour>
    <contour>
      <point x="608.7319951256458" y="-20.0" type="qcurve" smooth="yes"/>
      <point x="367.99600795958975" y="-20.0"/>
      <point x="122.5" y="233.70893617021278"/>
      <point x="122.5" y="442.0" type="qcurve" smooth="yes"/>
      <point x="122.5" y="474.0" type="line" smooth="yes"/>
      <point x="122.5" y="701.8655319148936"/>
      <point x="369.9534547681004" y="936.0"/>
      <point x="606.7839431775939" y="936.0" type="qcurve" smooth="yes"/>
      <point x="831.3618128542207" y="936.0"/>
      <point x="1113.3174743609366" y="665.8051063829788"/>
      <point x="1113.3174743609366" y="485.51063829787233" type="qcurve" smooth="yes"/>
      <point x="1113.3174743609366" y="451.6808510638298" type="line" smooth="yes"/>
      <point x="1113.3174743609366" y="246.69106382978723"/>
      <point x="845.732058778509" y="-20.0"/>
    </contour>
  </outline>
</glyph>
<glyph name="h" format="2">
  <advance width="1240.692560844941"/>
  <unicode hex="0068"/>
  <anchor x="618.5926833001683" y="0.0" name="bottom"/>
  <anchor x="199.81157201898054" y="1327.0" name="center"/>
  <anchor x="199.4505587019746" y="1536.0" name="top"/>
  <anchor x="1053.6874330322976" y="0.0" name="engtail"/>
  <outline>
    <contour>
      <point x="196.3085106382979" y="0.0" type="line"/>
      <point x="185.5" y="0.0" type="line"/>
      <point x="185.5" y="1536.0" type="line"/>
      <point x="194.36045869024593" y="1536.0" type="line"/>
    </contour>
    <contour>
      <point x="213.25232205724785" y="763.6007736943907" type="line"/>
      <point x="274.3826669794311" y="848.6621046793404"/>
      <point x="536.6867253365034" y="936.0"/>
      <point x="715.4067918917146" y="936.0" type="qcurve" smooth="yes"/>
      <point x="873.9271679644404" y="936.0"/>
      <point x="1065.192560844941" y="798.9914893617021"/>
      <point x="1065.192560844941" y="576.2255319148936" type="qcurve" smooth="yes"/>
      <point x="1065.192560844941" y="0.0" type="line"/>
      <point x="1054.3840502066432" y="0.0" type="line"/>
      <point x="1054.3840502066432" y="577.2468085106383" type="line" smooth="yes"/>
      <point x="1054.3840502066432" y="791.7328543796629"/>
      <point x="876.5403406481778" y="925.1298701298701"/>
      <point x="722.1448649314866" y="925.1298701298701" type="qcurve" smooth="yes"/>
      <point x="536.3874793505897" y="925.1298701298701"/>
      <point x="274.3002459839258" y="828.9199140427917"/>
      <point x="213.25232205724785" y="749.6010500138159" type="qcurve"/>
    </contour>
  </outline>
</glyph>
<glyph name="k" format="2">
  <advance width="1179"/>
  <unicode hex="006B"/>
  <anchor x="503.4615031379152" y="0.0" name="bottom"/>
  <anchor x="503.4615031379152" y="1536.0" name="top"/>
  <outline>
    <contour>
      <point x="185" y="0" type="line"/>
      <point x="185" y="1536" type="line"/>
      <point x="196" y="1536" type="line"/>
      <point x="196" y="0" type="line"/>
    </contour>
    <contour>
      <point x="1104" y="0" type="line"/>
      <point x="481" y="612" type="line"/>
      <point x="491" y="618" type="line"/>
      <point x="1120" y="0" type="line"/>
    </contour>
    <contour>
      <point x="192" y="437" type="line"/>
      <point x="192" y="449" type="line"/>
      <point x="983" y="916" type="line"/>
      <point x="1006" y="916" type="line"/>
    </contour>
  </outline>
</glyph>
<glyph name="l" format="2">
  <advance width="415.3444818613195"/>
  <unicode hex="006C"/>
  <anchor x="207.5335986529925" y="0.0" name="bottom"/>
  <anchor x="207.5335986529925" y="791.0" name="center"/>
  <anchor x="207.5335986529925" y="1536.0" name="top"/>
  <anchor x="408.95086484004287" y="1052.0" name="topright"/>
  <anchor x="206.83215980407164" y="471.96" name="yu_dash"/>
  <outline>
    <contour>
      <point x="201.91726618705036" y="0.0" type="line"/>
      <point x="201.91726618705036" y="1536.0" type="line"/>
      <point x="212.72577682534825" y="1536.0" type="line"/>
      <point x="212.72577682534825" y="0.0" type="line"/>
    </contour>
  </outline>
</glyph>
<glyph name="m" format="2">
  <advance width="2008.0462268483088"/>
  <unicode hex="006D"/>
  <anchor x="1005.393081279657" y="0.0" name="bottom"/>
  <anchor x="1005.393081279657" y="916.0" name="top"/>
  <outline>
    <contour>
      <point x="185.5" y="0.0" type="line"/>
      <point x="185.5" y="916.0" type="line"/>
      <point x="195.9255319148936" y="916.0" type="line"/>
      <point x="196.3085106382979" y="756.3191489361702" type="line"/>
      <point x="196.3085106382979" y="0.0" type="line"/>
    </contour>
    <contour>
      <point x="1014.9167304454309" y="567.5200331583311" type="qcurve" smooth="yes"/>
      <point x="1014.9167304454309" y="0.0" type="line"/>
      <point x="1004.1082198071331" y="0.0" type="line"/>
      <point x="1004.1082198071331" y="570.4468085106383" type="line" smooth="yes"/>
      <point x="1004.1082198071331" y="797.6609560652114"/>
      <point x="848.4785574138092" y="925.1298701298701"/>
      <point x="689.7528839597568" y="925.1298701298701" type="qcurve" smooth="yes"/>
      <point x="532.939793177892" y="925.1298701298701"/>
      <point x="268.79343433239035" y="817.9381044487427"/>
      <point x="189.37440685749274" y="743.90273556231" type="qcurve"/>
      <point x="189.37440685749274" y="759.2334899143409" type="line"/>
      <point x="263.5932110901497" y="834.4534401768444"/>
      <point x="529.3067215197171" y="936.0"/>
      <point x="681.5211603030369" y="936.0" type="qcurve" smooth="yes"/>
      <point x="843.8745032711053" y="936.0"/>
      <point x="1014.9167304454309" y="805.8275766786405"/>
    </contour>
    <contour>
      <point x="1048.832402130244" y="762.4139817629178" type="line"/>
      <point x="1143.0256209732408" y="865.050898038132"/>
      <point x="1339.757363713892" y="936.0"/>
      <point x="1487.4647722551442" y="936.0" type="qcurve" smooth="yes"/>
      <point x="1645.7285996568867" y="936.0"/>
      <point x="1832.5462268483088" y="803.922077922078"/>
      <point x="1832.5462268483088" y="569.4255319148937" type="qcurve" smooth="yes"/>
      <point x="1832.5462268483088" y="0.0" type="line"/>
      <point x="1821.7377162100106" y="0.0" type="line"/>
      <point x="1821.7377162100106" y="570.4468085106383" type="line" smooth="yes"/>
      <point x="1821.7377162100106" y="797.6609560652114"/>
      <point x="1646.6240306456134" y="925.1298701298701"/>
      <point x="1496.8194580561028" y="925.1298701298701" type="qcurve" smooth="yes"/>
      <point x="1343.7095843082373" y="925.1298701298701"/>
      <point x="1147.2078675495636" y="844.844432163581"/>
      <point x="1049.8111255344993" y="743.90273556231" type="qcurve"/>
    </contour>
  </outline>
</glyph>
<glyph name="n" format="2">
  <advance width="1240.692560844941"/>
  <unicode hex="006E"/>
  <anchor x="467.71751109750494" y="0.0" name="bottom"/>
  <anchor x="475.5472983315475" y="916.0" name="top"/>
  <anchor x="706.4752028164702" y="0.0" name="engtail"/>
  <outline>
    <contour>
      <point x="185.5" y="0.0" type="line"/>
      <point x="185.5" y="916.0" type="line"/>
      <point x="195.9255319148936" y="916.0" type="line"/>
      <point x="196.3085106382979" y="768.704890853827" type="line"/>
      <point x="196.3085106382979" y="0.0" type="line"/>
    </contour>
    <contour>
      <point x="191.3936170212766" y="761.0522243713733" type="qcurve"/>
      <point x="191.3936170212766" y="776.3829787234042" type="line"/>
      <point x="271.9858411143426" y="832.84838512169"/>
      <point x="551.4027246288076" y="936.0"/>
      <point x="720.8581815398745" y="936.0" type="qcurve" smooth="yes"/>
      <point x="878.2615184448186" y="936.0"/>
      <point x="1065.192560844941" y="792.1914893617021"/>
      <point x="1065.192560844941" y="569.4255319148937" type="qcurve" smooth="yes"/>
      <point x="1065.192560844941" y="0.0" type="line"/>
      <point x="1054.3840502066432" y="0.0" type="line"/>
      <point x="1054.3840502066432" y="570.4468085106383" type="line" smooth="yes"/>
      <point x="1054.3840502066432" y="783.958828405637"/>
      <point x="880.8652962680976" y="925.1298701298701"/>
      <point x="729.0429308943009" y="925.1298701298701" type="qcurve" smooth="yes"/>
      <point x="559.1774517385264" y="925.1298701298701"/>
      <point x="260.81757053600006" y="805.6637838665239"/>
    </contour>
  </outline>
</glyph>
<glyph name="r" format="2">
  <advance width="855"/>
  <unicode hex="0072"/>
  <anchor x="282.09161181692946" y="0.0" name="bottom"/>
  <anchor x="344.8829787234043" y="916.0" name="top"/>
  <outline>
    <contour>
      <point x="185" y="0" type="line"/>
      <point x="185" y="916" type="line"/>
      <point x="196" y="916" type="line"/>
      <point x="196" y="775" type="line"/>
      <point x="196" y="0" type="line"/>
    </contour>
    <contour>
      <point x="190" y="765" type="qcurve"/>
      <point x="190" y="780" type="line"/>
      <point x="288" y="863"/>
      <point x="527" y="946"/>
      <point x="625" y="946" type="qcurve" smooth="yes"/>
      <point x="691" y="946"/>
      <point x="768" y="938"/>
      <point x="787" y="932" type="qcurve"/>
      <point x="787" y="920" type="line"/>
      <point x="765" y="927"/>
      <point x="688" y="934"/>
      <point x="622" y="934" type="qcurve" smooth="yes"/>
      <point x="520" y="934"/>
      <point x="283" y="849"/>
    </contour>
  </outline>
</glyph>
<glyph name="s" format="2">
  <advance width="1115.6287310577072"/>
  <unicode hex="0073"/>
  <anchor x="389.3139445890096" y="0.0" name="bottom"/>
  <anchor x="377.84654829328025" y="916.0" name="top"/>
  <outline>
    <contour>
      <point x="117.5" y="296.4" type="line"/>
      <point x="128.3085106382979" y="296.4" type="line"/>
      <point x="128.3085106382979" y="291.4" type="line" smooth="yes"/>
      <point x="128.3085106382979" y="130.6379220779221"/>
      <point x="363.6035382006636" y="-19.233766233766232"/>
      <point x="576.4272156742691" y="-19.233766233766232" type="qcurve" smooth="yes"/>
      <point x="789.7255581950577" y="-19.233766233766232"/>
      <point x="987.3840502066432" y="113.7179220779221"/>
      <point x="987.3840502066432" y="252.8" type="qcurve" smooth="yes"/>
      <point x="987.3840502066432" y="329.0731914893617"/>
      <point x="835.670766875861" y="457.62062758304"/>
      <point x="583.479412214909" y="479.7673350681157" type="qcurve" smooth="yes"/>
      <point x="300.5561753415726" y="505.5484494106842"/>
      <point x="140.54255319148936" y="612.8574965460072"/>
      <point x="140.54255319148936" y="680.9872340425532" type="qcurve" smooth="yes"/>
      <point x="140.54255319148936" y="811.2034042553191"/>
      <point x="338.15882442981786" y="945.2985611510792"/>
      <point x="552.3984386958518" y="946.0" type="qcurve" smooth="yes"/>
      <point x="800.3732159804072" y="946.7014388489208"/>
      <point x="948.6353130261748" y="791.7076810041328"/>
      <point x="948.6353130261748" y="640.416332465942" type="qcurve" smooth="yes"/>
      <point x="948.6353130261748" y="631.5014388489208" type="line"/>
      <point x="937.8480789836217" y="631.5014388489208" type="line"/>
      <point x="937.8480789836217" y="640.5014388489208" type="line" smooth="yes"/>
      <point x="937.8480789836217" y="779.4011791086612"/>
      <point x="769.6604038637009" y="935.9352050826869"/>
      <point x="550.9955609980101" y="935.2337662337663" type="qcurve" smooth="yes"/>
      <point x="348.9402584282395" y="934.5323273848453"/>
      <point x="155.24455660671796" y="800.5203793328974"/>
      <point x="155.24455660671796" y="680.4985611510792" type="qcurve" smooth="yes"/>
      <point x="155.24455660671796" y="618.7377100872494"/>
      <point x="345.2837685596204" y="513.3022452643025"/>
      <point x="590.7944282871575" y="491.0465618110651" type="qcurve" smooth="yes"/>
      <point x="863.2160538803" y="467.2014554280864"/>
      <point x="998.1287310577071" y="333.6900505127812"/>
      <point x="998.1287310577071" y="252.31132710852597" type="qcurve" smooth="yes"/>
      <point x="998.1287310577071" y="103.96664625746212"/>
      <point x="782.8496066125822" y="-30.701438848920862"/>
      <point x="584.8444818613194" y="-30.701438848920862" type="qcurve" smooth="yes"/>
      <point x="384.41808051431195" y="-30.701438848920862"/>
      <point x="117.5" y="116.88936170212767"/>
      <point x="117.5" y="291.4" type="qcurve" smooth="yes"/>
    </contour>
  </outline>
</glyph>
<glyph name="t" format="2">
  <advance width="910.91910301546"/>
  <unicode hex="0074"/>
  <anchor x="312.4910454615031" y="0.0" name="bottom"/>
  <anchor x="239.06689116791674" y="551.0" name="center"/>
  <anchor x="239.06689116791674" y="1176.0" name="top"/>
  <anchor x="576.2068727996326" y="916.0" name="topright"/>
  <outline>
    <contour>
      <point x="37.5" y="905.4935064935064" type="line"/>
      <point x="37.5" y="916.0" type="line"/>
      <point x="823.41910301546" y="916.0" type="line"/>
      <point x="823.41910301546" y="905.4935064935064" type="line"/>
    </contour>
    <contour>
      <point x="407.87410071942446" y="279.64028776978415" type="qcurve" smooth="yes"/>
      <point x="407.87410071942446" y="910.8441558441559" type="line"/>
      <point x="407.87410071942446" y="913.5714285714287" type="line"/>
      <point x="407.87410071942446" y="1176.0" type="line"/>
      <point x="418.68261135772235" y="1176.0" type="line"/>
      <point x="418.68261135772235" y="276.13309352517985" type="line" smooth="yes"/>
      <point x="418.68261135772235" y="129.5340091563113"/>
      <point x="501.92006913949353" y="-19.025974025974023"/>
      <point x="610.7482014388489" y="-19.025974025974023" type="qcurve" smooth="yes"/>
      <point x="674.5215827338129" y="-19.025974025974023"/>
      <point x="790.5090310730138" y="-0.7529664580024473"/>
      <point x="822.0162253176181" y="13.57198916191723" type="qcurve"/>
      <point x="822.0162253176181" y="2.1043165467625897" type="line"/>
      <point x="794.6133476197765" y="-10.597122302158274"/>
      <point x="671.9519363232818" y="-29.02127659574468"/>
      <point x="604.7742997091689" y="-30.0" type="qcurve" smooth="yes"/>
      <point x="494.7806520740854" y="-30.0"/>
      <point x="407.87410071942446" y="119.82014388489209"/>
    </contour>
  </outline>
</glyph>
<glyph name="u" format="2">
  <advance width="1240.692560844941"/>
  <unicode hex="0075"/>
  <anchor x="437.37708556559005" y="0.0" name="bottom"/>
  <anchor x="709.0400275524262" y="0.0" name="ogonek"/>
  <anchor x="444.22814939537733" y="916.0" name="top"/>
  <anchor x="698.7071789377009" y="916.0" name="topright"/>
  <anchor x="704.6577376396755" y="0.0" name="cy_descender"/>
  <outline>
    <contour>
      <point x="519.8343793050666" y="-20.0" type="qcurve" smooth="yes"/>
      <point x="362.43104240012246" y="-20.0"/>
      <point x="175.5" y="123.80851063829788"/>
      <point x="175.5" y="346.5744680851064" type="qcurve" smooth="yes"/>
      <point x="175.5" y="916.0" type="line"/>
      <point x="186.3085106382979" y="916.0" type="line"/>
      <point x="186.3085106382979" y="345.5531914893617" type="line" smooth="yes"/>
      <point x="186.3085106382979" y="132.0411715943631"/>
      <point x="359.8272645768436" y="-9.129870129870142"/>
      <point x="511.64962995064013" y="-9.129870129870142" type="qcurve" smooth="yes"/>
      <point x="679.5551091064146" y="-9.129870129870142"/>
      <point x="957.3349903089411" y="95.63621613347615"/>
      <point x="1048.3189438236643" y="103.98777562862672" type="qcurve"/>
      <point x="1052.2389438236644" y="94.53702127659575" type="line"/>
      <point x="934.4067197305985" y="46.89161487831012"/>
      <point x="670.6698362161335" y="-20.0"/>
    </contour>
    <contour>
      <point x="1044.7670289300474" y="0.0" type="line"/>
      <point x="1044.3840502066432" y="406.7939318663887" type="line"/>
      <point x="1044.3840502066432" y="916.0" type="line"/>
      <point x="1055.192560844941" y="916.0" type="line"/>
      <point x="1055.192560844941" y="0.0" type="line"/>
    </contour>
  </outline>
</glyph>
<glyph name="v" format="2">
  <advance width="1279.0212765957447"/>
  <unicode hex="0076"/>
  <anchor x="612.6671015380713" y="0.0" name="bottom"/>
  <anchor x="612.6671015380713" y="916.0" name="top"/>
  <outline>
    <contour>
      <point x="66.2589928057554" y="916.0" type="line"/>
      <point x="107.72677276802489" y="916.0" type="line"/>
      <point x="561.4030307668758" y="106.83047604469616" type="line" smooth="yes"/>
      <point x="583.4739984215997" y="72.12182458288689"/>
      <point x="621.6287310577071" y="3.844864533904797"/>
      <point x="638.531914893617" y="-23.169523955303838" type="qcurve"/>
      <point x="638.6595744680851" y="-23.169523955303838" type="line"/>
      <point x="655.5627583039951" y="3.844864533904797"/>
      <point x="693.9947754954369" y="71.42038573396603"/>
      <point x="716.7671819990816" y="106.83047604469616" type="qcurve" smooth="yes"/>
      <point x="1168.573854815015" y="916.0" type="line"/>
      <point x="1211.3594060921475" y="916.0" type="line"/>
      <point x="643.9574468085107" y="0.0" type="line"/>
      <point x="633.1063829787234" y="0.0" type="line"/>
    </contour>
  </outline>
</glyph>
<glyph name="w" format="2">
  <advance width="1999.2700137762129"/>
  <unicode hex="0077"/>
  <anchor x="580.7455992652688" y="0.0" name="bottom"/>
  <anchor x="580.7455992652688" y="916.0" name="top"/>
  <outline>
    <contour>
      <point x="62.5" y="916.0" type="line"/>
      <point x="104.39663168608524" y="916.0" type="line"/>
      <point x="482.2452931272004" y="117.75813561916424" type="line" smooth="yes"/>
      <point x="502.71913847976595" y="80.94516761059238"/>
      <point x="526.1793203734884" y="23.843242002142965"/>
      <point x="546.3810653604776" y="-16.156757997857035" type="qcurve"/>
      <point x="546.5087249349456" y="-16.156757997857035" type="line"/>
      <point x="567.6891933261902" y="23.843242002142965"/>
      <point x="594.5143971564943" y="84.30549211694476"/>
      <point x="612.6538920286816" y="117.75813561916424" type="qcurve" smooth="yes"/>
      <point x="988.6928858681499" y="916.0" type="line"/>
      <point x="998.8771909247953" y="916.0" type="line"/>
      <point x="1388.9399681139312" y="117.75813561916424" type="line" smooth="yes"/>
      <point x="1408.0794629861184" y="82.62532986376856"/>
      <point x="1434.1985305372723" y="23.843242002142965"/>
      <point x="1456.0804377774377" y="-16.156757997857035" type="qcurve"/>
      <point x="1456.208097351906" y="-16.156757997857035" type="line"/>
      <point x="1476.409842338895" y="23.843242002142965"/>
      <point x="1502.2043747129953" y="80.6893219041788"/>
      <point x="1520.3013163936935" y="117.75813561916424" type="qcurve" smooth="yes"/>
      <point x="1889.0457855323918" y="915.0212765957447" type="line"/>
      <point x="1936.7700137762129" y="915.0212765957447" type="line"/>
      <point x="1463.4208633093526" y="0.0" type="line"/>
      <point x="1448.59107607531" y="0.0" type="line"/>
      <point x="1070.9835450788305" y="767.9234042553192" type="line" smooth="yes"/>
      <point x="1050.483887953467" y="803.0562100107148"/>
      <point x="1012.096892698607" y="887.9234042553192"/>
      <point x="996.7626664625747" y="927.9234042553192" type="qcurve"/>
      <point x="996.6350068881065" y="927.9234042553192" type="line"/>
      <point x="980.5993418031533" y="887.9234042553192"/>
      <point x="944.8712322057248" y="804.0349334149702"/>
      <point x="924.3715750803611" y="767.9234042553192" type="qcurve" smooth="yes"/>
      <point x="553.615107913669" y="0.0" type="line"/>
      <point x="538.7853206796266" y="0.0" type="line"/>
    </contour>
  </outline>
</glyph>
<glyph name="x" format="2">
  <advance width="1122"/>
  <unicode hex="0078"/>
  <anchor x="331.195928363692" y="0.0" name="bottom"/>
  <anchor x="350.8362161334762" y="916.0" name="top"/>
  <anchor x="617.7504209398439" y="0.0" name="cy_descender"/>
  <outline>
    <contour>
      <point x="57.5" y="0.0" type="line"/>
      <point x="558.527322822593" y="474.8510638297872" type="line"/>
      <point x="558.7613653757845" y="474.8510638297872" type="line"/>
      <point x="1032" y="916" type="line"/>
      <point x="1047.3844328792286" y="916.0" type="line"/>
      <point x="564.399663248125" y="467.8723404255319" type="line"/>
      <point x="564.1656206949334" y="467.8723404255319" type="line"/>
      <point x="73" y="0" type="line"/>
    </contour>
    <contour>
      <point x="79.45744680851064" y="916.0" type="line"/>
      <point x="95" y="916" type="line"/>
      <point x="563.2507270779121" y="474.8510638297872" type="line"/>
      <point x="563.4209398438696" y="474.8510638297872" type="line"/>
      <point x="1064.4482626664626" y="0.0" type="line"/>
      <point x="1048" y="0" type="line"/>
      <point x="557.7188121842952" y="467.8723404255319" type="line"/>
      <point x="557.5485994183376" y="467.8723404255319" type="line"/>
    </contour>
  </outline>
</glyph>
<glyph name="y" format="2">
  <advance width="1263"/>
  <unicode hex="0079"/>
  <anchor x="1021.6400131580504" y="0.0" name="bottom"/>
  <anchor x="721.8886700175527" y="916.0" name="top"/>
  <outline>
    <contour>
      <point x="143" y="-415" type="qcurve"/>
      <point x="143" y="-403" type="line"/>
      <point x="185" y="-419"/>
      <point x="236" y="-425"/>
      <point x="286" y="-425" type="qcurve" smooth="yes"/>
      <point x="400" y="-425"/>
      <point x="536" y="-248"/>
      <point x="716" y="60" type="qcurve"/>
      <point x="716" y="60" type="line"/>
      <point x="153" y="916" type="line"/>
      <point x="165" y="916" type="line"/>
      <point x="625" y="221" type="line" smooth="yes"/>
      <point x="652" y="180"/>
      <point x="701" y="105"/>
      <point x="719" y="70" type="qcurve"/>
      <point x="719" y="70" type="line"/>
      <point x="737" y="103"/>
      <point x="786" y="179"/>
      <point x="810" y="221" type="qcurve" smooth="yes"/>
      <point x="1212" y="916" type="line"/>
      <point x="1225" y="916" type="line"/>
      <point x="715" y="38" type="line" smooth="yes"/>
      <point x="544" y="-257"/>
      <point x="405" y="-436"/>
      <point x="287" y="-436" type="qcurve" smooth="yes"/>
      <point x="235" y="-436"/>
      <point x="182" y="-427"/>
    </contour>
  </outline>
</glyph>
<glyph name="z" format="2">
  <advance width="1251.728914740548"/>
  <unicode hex="007A"/>
  <anchor x="423.4329746481897" y="0.0" name="bottom"/>
  <anchor x="423.4329746481897" y="916.0" name="top"/>
  <outline>
    <contour>
      <point x="157.17532467532467" y="0.0" type="line"/>
      <point x="157.17532467532467" y="10.350649350649348" type="line"/>
      <point x="992.4096795291036" y="905.2337662337663" type="line"/>
      <point x="194.3961038961039" y="905.2337662337663" type="line"/>
      <point x="194.3961038961039" y="916.0" type="line"/>
      <point x="1074.9737158601386" y="916.0" type="line"/>
      <point x="1074.9737158601386" y="905.7272727272727" type="line"/>
      <point x="223.51437735691525" y="10.766233766233768" type="line"/>
      <point x="1099.5795640911974" y="10.766233766233768" type="line"/>
      <point x="1099.5795640911974" y="0.0" type="line"/>
    </contour>
  </outline>
</glyph>
<glyph name="braceleft" format="2">
  <advance width="785.1352364916577"/>
  <unicode hex="007B"/>
  <outline>
    <contour>
      <point x="717.6352364916577" y="-312.0" type="line"/>
      <point x="465.3870350528088" y="-312.0"/>
      <point x="297.67197305984996" y="-90.02196540639828"/>
      <point x="349.77697841726615" y="127.91007194244604" type="qcurve" smooth="yes"/>
      <point x="397.6726618705036" y="331.89568345323744" type="line" smooth="yes"/>
      <point x="421.69393846624826" y="434.2793509872953"/>
      <point x="275.73182305219655" y="567.9607586657946"/>
      <point x="101.5" y="567.9607586657946" type="qcurve"/>
      <point x="101.5" y="581.0132673082313" type="line"/>
      <point x="275.73182305219655" y="581.0132673082313"/>
      <point x="422.3953773151691" y="712.317771314863"/>
      <point x="397.6726618705036" y="816.1043165467626" type="qcurve" smooth="yes"/>
      <point x="349.77697841726615" y="1020.089928057554" type="line" smooth="yes"/>
      <point x="294.7358028470841" y="1250.7453696617174"/>
      <point x="466.36575845706415" y="1460.0"/>
      <point x="717.6352364916577" y="1460.0" type="qcurve"/>
      <point x="717.6352364916577" y="1446.583854993927" type="line"/>
      <point x="502.8035358946885" y="1446.583854993927"/>
      <point x="323.3961178114706" y="1248.7004657672042"/>
      <point x="376.71858258074394" y="1025.0" type="qcurve" smooth="yes"/>
      <point x="426.01714373182307" y="817.5071942446043" type="line" smooth="yes"/>
      <point x="446.9958671360784" y="728.4667074850757"/>
      <point x="352.5662788917802" y="593.1489361702128"/>
      <point x="241.8264197152916" y="574.0" type="qcurve"/>
      <point x="352.5662788917802" y="554.8510638297872"/>
      <point x="446.9958671360784" y="419.5332925149242"/>
      <point x="426.01714373182307" y="330.4928057553957" type="qcurve" smooth="yes"/>
      <point x="376.71858258074394" y="123.0" type="line" smooth="yes"/>
      <point x="326.2900111521725" y="-89.1295898346258"/>
      <point x="502.8035358946885" y="-298.58385499392693"/>
      <point x="717.6352364916577" y="-298.58385499392693" type="qcurve"/>
    </contour>
  </outline>
</glyph>
<glyph name="bar" format="2">
  <advance width="511.12214908923926"/>
  <unicode hex="007C"/>
  <outline>
    <contour>
      <point x="247.5" y="-416.0" type="line"/>
      <point x="247.5" y="1536.0" type="line"/>
      <point x="263.6221490892392" y="1536.0" type="line"/>
      <point x="263.6221490892392" y="-416.0" type="line"/>
    </contour>
  </outline>
</glyph>
<glyph name="braceright" format="2">
  <advance width="785"/>
  <unicode hex="007D"/>
  <outline>
    <contour>
      <point x="67.5" y="-312.0" type="qcurve"/>
      <point x="67.5" y="-298.58385499392693" type="line"/>
      <point x="282.33170059696926" y="-298.58385499392693"/>
      <point x="474" y="-101"/>
      <point x="421" y="123" type="qcurve" smooth="yes"/>
      <point x="372" y="330" type="line" smooth="yes"/>
      <point x="351" y="419"/>
      <point x="447" y="554"/>
      <point x="555" y="574" type="qcurve"/>
      <point x="446" y="592"/>
      <point x="351" y="727"/>
      <point x="372" y="817" type="qcurve" smooth="yes"/>
      <point x="421" y="1025" type="line" smooth="yes"/>
      <point x="471" y="1237"/>
      <point x="282.33170059696926" y="1446.583854993927"/>
      <point x="67.5" y="1446.583854993927" type="qcurve"/>
      <point x="67.5" y="1460.0" type="line"/>
      <point x="300" y="1460"/>
      <point x="487.4632634318077" y="1238.723404255319"/>
      <point x="436.0596969233124" y="1021.4928057553957" type="qcurve" smooth="yes"/>
      <point x="386.7611357722333" y="815.4028776978417" type="line" smooth="yes"/>
      <point x="362.7398591764886" y="712.317771314863"/>
      <point x="508.00053574161944" y="580.0392413342054"/>
      <point x="683.6352364916577" y="580.0392413342054" type="qcurve"/>
      <point x="683.6352364916577" y="566.9867326917687" type="line"/>
      <point x="508.00053574161944" y="566.9867326917687"/>
      <point x="362.7398591764886" y="435.682228685137"/>
      <point x="386.7611357722333" y="332.59712230215825" type="qcurve" smooth="yes"/>
      <point x="436.0596969233124" y="125.80575539568345" type="line" smooth="yes"/>
      <point x="490.3994336445737" y="-103.44680851063829"/>
      <point x="292" y="-312"/>
    </contour>
  </outline>
</glyph>
<glyph name="sterling" format="2">
  <advance width="767.3279504056329"/>
  <unicode hex="00A3"/>
  <outline>
    <contour>
      <point x="733.8279504056329" y="0.0" type="line"/>
      <point x="73.5" y="0.0" type="line"/>
      <point x="73.5" y="10.0" type="line"/>
      <point x="129.5" y="10.0" type="line" smooth="yes"/>
      <point x="205.8404255319149" y="10.0"/>
      <point x="304.4220779220779" y="285.9894998618403"/>
      <point x="285.54255319148933" y="488.531914893617" type="qcurve" smooth="yes"/>
      <point x="232.5" y="1039.0" type="line" smooth="yes"/>
      <point x="214.5" y="1228.0"/>
      <point x="329.02364916577375" y="1476.0"/>
      <point x="455.95086484004287" y="1476.0" type="qcurve" smooth="yes"/>
      <point x="578.0277054951783" y="1476.0"/>
      <point x="691.7853972141436" y="1298.3829787234042"/>
      <point x="691.7853972141436" y="1103.0" type="qcurve" smooth="yes"/>
      <point x="691.7853972141436" y="1087.0" type="line"/>
      <point x="664.0146946272769" y="1087.0" type="line"/>
      <point x="664.0146946272769" y="1103.0" type="line" smooth="yes"/>
      <point x="664.0146946272769" y="1293.974025974026"/>
      <point x="565.5352804244585" y="1464.844155844156"/>
      <point x="456.0028128919909" y="1464.844155844156" type="qcurve" smooth="yes"/>
      <point x="341.4703453595234" y="1464.844155844156"/>
      <point x="243.9649571307309" y="1219.090909090909"/>
      <point x="260.88703505280887" y="1039.0" type="qcurve" smooth="yes"/>
      <point x="313.1430430123986" y="498.09880606153376" type="line" smooth="yes"/>
      <point x="330.0297520480438" y="318.7411006259927"/>
      <point x="251.81172806987897" y="46.01312716060917"/>
      <point x="174.10059816197887" y="11.129870129870142" type="qcurve"/>
      <point x="733.8279504056329" y="11.129870129870142" type="line"/>
    </contour>
    <contour>
      <point x="529.8279504056329" y="700.0" type="line"/>
      <point x="89.5" y="700.0" type="line"/>
      <point x="89.5" y="710.8441558441558" type="line"/>
      <point x="529.8279504056329" y="710.8441558441558" type="line"/>
    </contour>
  </outline>
</glyph>
<glyph name="currency" format="2">
  <advance width="1118.09811725088"/>
  <unicode hex="00A4"/>
  <guideline y="901.0000000000002" identifier="bRYxxRaQQf"/>
  <guideline y="555.0000000000002" identifier="917FhrihjR"/>
  <outline>
    <contour>
      <point x="241.04905862544007" y="712.9787234042553" type="qcurve"/>
      <point x="241.04905862544007" y="565.0425531914893"/>
      <point x="419.1767181999082" y="373.0"/>
      <point x="556.04905862544" y="373.0" type="qcurve" smooth="yes"/>
      <point x="692.9001224552273" y="373.0"/>
      <point x="869.04905862544" y="564.063829787234"/>
      <point x="869.04905862544" y="712.0" type="qcurve" smooth="yes"/>
      <point x="869.04905862544" y="858.9148936170212"/>
      <point x="692.9001224552273" y="1049.0"/>
      <point x="556.04905862544" y="1049.0" type="qcurve" smooth="yes"/>
      <point x="419.1767181999082" y="1049.0"/>
      <point x="241.04905862544007" y="859.8936170212766"/>
    </contour>
    <contour>
      <point x="225.39430583193018" y="714.0851063829788" type="qcurve"/>
      <point x="225.39430583193018" y="866.5936782488902"/>
      <point x="411.646869738252" y="1064.505816623297"/>
      <point x="556.0277820296953" y="1064.505816623297" type="qcurve" smooth="yes"/>
      <point x="699.4299709168836" y="1064.505816623297"/>
      <point x="885.4052502678708" y="866.5936782488902"/>
      <point x="885.4052502678708" y="713.1063829787234" type="qcurve" smooth="yes"/>
      <point x="885.4052502678708" y="558.661640900046"/>
      <point x="699.4299709168836" y="357.74950252563906"/>
      <point x="556.0277820296953" y="357.74950252563906" type="qcurve" smooth="yes"/>
      <point x="411.646869738252" y="357.74950252563906"/>
      <point x="225.39430583193018" y="558.661640900046"/>
    </contour>
    <contour>
      <point x="982.1637431143783" y="1169.160829832956" type="line"/>
      <point x="782.232815019054" y="964.2511783333764" type="line"/>
      <point x="774.193853980093" y="972.4200095022076" type="line"/>
      <point x="974.1247820754173" y="1177.3296610017871" type="line"/>
    </contour>
    <contour>
      <point x="322.7083527982808" y="466.87288908856334" type="line"/>
      <point x="141.2792207792208" y="277.5476531733994" type="line"/>
      <point x="133.26623376623377" y="285.69051031625656" type="line"/>
      <point x="314.69536578529386" y="474.9897722054464" type="line"/>
    </contour>
    <contour>
      <point x="1001.1175977703607" y="274.8026960029103" type="line"/>
      <point x="800.207946270781" y="480.6863734765158" type="line"/>
      <point x="808.2728813357161" y="488.829230619373" type="line"/>
      <point x="1010.1565588093216" y="282.97152717174146" type="line"/>
    </contour>
    <contour>
      <point x="323.96422458606753" y="958.7424742714809" type="line"/>
      <point x="123.05457308648798" y="1161.7040738230085" type="line"/>
      <point x="131.06756009947497" y="1169.8469309658656" type="line"/>
      <point x="331.97721159905456" y="966.8853314143379" type="line"/>
    </contour>
  </outline>
</glyph>
<glyph name="section" format="2">
  <advance width="989.4255319148936"/>
  <unicode hex="00A7"/>
  <guideline y="1658.0" identifier="QzZ5gIiCyn"/>
  <guideline y="577.9999999999998" identifier="9Hxjf2sdFw"/>
  <outline>
    <contour>
      <point x="555.2753523072672" y="283.97402597402595" type="qcurve"/>
      <point x="555.2753523072672" y="292.9090909090909" type="line"/>
      <point x="667.2234042553191" y="292.9090909090909"/>
      <point x="820.2234042553191" y="376.0"/>
      <point x="820.2234042553191" y="463.0" type="qcurve"/>
      <point x="820.2234042553191" y="556.0"/>
      <point x="655.171456203371" y="676.8701298701299"/>
      <point x="472.22340425531917" y="734.0" type="qcurve" smooth="yes"/>
      <point x="303.6867919314727" y="789.1063829787234"/>
      <point x="216.86170212765958" y="960.7493782812932"/>
      <point x="216.86170212765958" y="1139.7659574468084" type="qcurve" smooth="yes"/>
      <point x="216.86170212765958" y="1305.0"/>
      <point x="345.94680851063833" y="1490.0"/>
      <point x="489.22340425531917" y="1491.0" type="qcurve" smooth="yes"/>
      <point x="623.5" y="1492.0"/>
      <point x="751.5851063829787" y="1294.0"/>
      <point x="750.5851063829787" y="1100.0" type="qcurve"/>
      <point x="740.2234042553191" y="1100.0" type="line"/>
      <point x="741.2234042553191" y="1283.7662337662337"/>
      <point x="621.9117159436308" y="1480.1818181818182"/>
      <point x="489.22340425531917" y="1480.1818181818182" type="qcurve" smooth="yes"/>
      <point x="354.093534125449" y="1480.1818181818182"/>
      <point x="227.22340425531917" y="1306.2077922077922"/>
      <point x="227.22340425531917" y="1139.025974025974" type="qcurve" smooth="yes"/>
      <point x="227.22340425531917" y="976.922077922078"/>
      <point x="303.4701575020724" y="800.2857142857142"/>
      <point x="474.24937828129316" y="745.0519480519481" type="qcurve" smooth="yes"/>
      <point x="660.1974302293451" y="687.0519480519481"/>
      <point x="830.9255319148936" y="562.3191489361702"/>
      <point x="830.9255319148936" y="463.3191489361702" type="qcurve" smooth="yes"/>
      <point x="830.9255319148936" y="370.44901906604036"/>
      <point x="671.9376899696048" y="283.97402597402595"/>
    </contour>
    <contour>
      <point x="390.2722727968496" y="764.4545454545455" type="qcurve"/>
      <point x="401.2531716102664" y="756.0" type="line"/>
      <point x="291.22340425531917" y="756.0"/>
      <point x="167.22340425531917" y="649.0"/>
      <point x="167.22340425531917" y="567.0" type="qcurve" smooth="yes"/>
      <point x="167.22340425531917" y="487.0"/>
      <point x="313.22340425531917" y="387.0"/>
      <point x="502.22340425531917" y="317.0" type="qcurve" smooth="yes"/>
      <point x="678.2234042553191" y="252.0"/>
      <point x="760.563829787234" y="39.57446808510639"/>
      <point x="760.563829787234" y="-135.51063829787233" type="qcurve" smooth="yes"/>
      <point x="760.563829787234" y="-298.0"/>
      <point x="601.5" y="-509.0"/>
      <point x="465.22340425531917" y="-509.0" type="qcurve" smooth="yes"/>
      <point x="328.94680851063833" y="-509.0"/>
      <point x="150.88297872340425" y="-301.0425531914894"/>
      <point x="150.88297872340425" y="-75.31092964589368" type="qcurve"/>
      <point x="161.22340425531917" y="-70.0" type="line"/>
      <point x="161.22340425531917" y="-293.31168831168833"/>
      <point x="330.9766510085659" y="-498.1818181818182"/>
      <point x="465.22340425531917" y="-498.1818181818182" type="qcurve" smooth="yes"/>
      <point x="596.8337938657087" y="-498.1818181818182"/>
      <point x="750.2234042553191" y="-293.67532467532465"/>
      <point x="750.2234042553191" y="-136.0" type="qcurve" smooth="yes"/>
      <point x="750.2234042553191" y="40.0"/>
      <point x="668.6130146449295" y="244.97402597402598"/>
      <point x="497.7818458137607" y="306.12987012987014" type="qcurve" smooth="yes"/>
      <point x="312.7818458137607" y="374.92207792207796"/>
      <point x="156.5" y="479.36861011329097"/>
      <point x="156.5" y="567.2127659574468" type="qcurve" smooth="yes"/>
      <point x="156.5" y="653.9010776457585"/>
      <point x="287.00262503453996" y="764.4545454545455"/>
    </contour>
  </outline>
</glyph>
<glyph name="logicalnot" format="2">
  <advance width="937.1193938466248"/>
  <unicode hex="00AC"/>
  <outline>
    <contour>
      <point x="803.6193938466248" y="726.974025974026" type="line"/>
      <point x="803.6193938466248" y="367.58273381294964" type="line"/>
      <point x="776.1465636001836" y="367.58273381294964" type="line"/>
      <point x="776.1465636001836" y="715.8961038961039" type="line"/>
      <point x="95.5" y="715.8961038961039" type="line"/>
      <point x="95.5" y="726.974025974026" type="line"/>
    </contour>
  </outline>
</glyph>
<glyph name="plusminus" format="2">
  <advance width="926.7446808510638"/>
  <unicode hex="00B1"/>
  <outline>
    <contour>
      <point x="94.5" y="678.9231593448645" type="line"/>
      <point x="94.5" y="706.0981172508801" type="line"/>
      <point x="832.2446808510638" y="706.0981172508801" type="line"/>
      <point x="832.2446808510638" y="678.9231593448645" type="line"/>
    </contour>
    <contour>
      <point x="459.5" y="248.0" type="line"/>
      <point x="459.5" y="1164.2086330935251" type="line"/>
      <point x="470.1808510638298" y="1164.2086330935251" type="line"/>
      <point x="470.1808510638298" y="248.0" type="line"/>
    </contour>
    <contour>
      <point x="94.5" y="1.0" type="line"/>
      <point x="94.5" y="11.340425531914889" type="line"/>
      <point x="832.2446808510638" y="11.340425531914889" type="line"/>
      <point x="832.2446808510638" y="1.0" type="line"/>
    </contour>
  </outline>
</glyph>
<glyph name="twosuperior" format="2">
  <advance width="524.2943517526405"/>
  <unicode hex="00B2"/>
  <outline>
    <contour>
      <point x="122.65708560534827" y="697.0" type="line"/>
      <point x="122.65708560534827" y="706.6233766233767" type="line"/>
      <point x="289.9227766722792" y="1006.3404255319149" type="line" smooth="yes"/>
      <point x="319.51037191799475" y="1062.6936979291947"/>
      <point x="363.9804071636308" y="1178.253941527629"/>
      <point x="363.9804071636308" y="1250.4028776978416" type="qcurve" smooth="yes"/>
      <point x="363.9804071636308" y="1360.0391011865831"/>
      <point x="306.8376901683958" y="1477.5194805194806"/>
      <point x="253.68184601255166" y="1477.5194805194806" type="qcurve" smooth="yes"/>
      <point x="193.55197588268152" y="1477.5194805194806"/>
      <point x="127.9804071636308" y="1337.8180416705598"/>
      <point x="127.9804071636308" y="1207.2985611510792" type="qcurve" smooth="yes"/>
      <point x="127.9804071636308" y="1198.0" type="line"/>
      <point x="108.56382978723404" y="1198.0" type="line"/>
      <point x="108.56382978723404" y="1207.2985611510792" type="line" smooth="yes"/>
      <point x="108.56382978723404" y="1341.2347313638452"/>
      <point x="185.25906934027248" y="1487.0"/>
      <point x="261.0160722485841" y="1487.0" type="qcurve" smooth="yes"/>
      <point x="325.69003520587785" y="1487.0"/>
      <point x="392.13339966324816" y="1363.8936170212767"/>
      <point x="392.13339966324816" y="1249.0425531914893" type="qcurve" smooth="yes"/>
      <point x="392.13339966324816" y="1172.9574468085107"/>
      <point x="343.43871672487927" y="1053.142716995235"/>
      <point x="315.35236491657736" y="1001.3404255319149" type="qcurve" smooth="yes"/>
      <point x="152.54494762852332" y="707.6623376623377" type="line"/>
      <point x="418.79435175264047" y="707.6623376623377" type="line"/>
      <point x="418.79435175264047" y="697.0" type="line"/>
    </contour>
  </outline>
</glyph>
<glyph name="micro" format="2">
  <advance width="956.987524873718"/>
  <unicode hex="00B5"/>
  <outline>
    <contour>
      <point x="279.5" y="1052.0" type="line"/>
      <point x="307.8444818613195" y="1052.0" type="line"/>
      <point x="115.45487147170908" y="60.28571428571428" type="line" smooth="yes"/>
      <point x="112.85746887430649" y="49.220779220779235"/>
      <point x="204.8574688743065" y="-9.129870129870142"/>
      <point x="264.0522740691117" y="-9.129870129870142" type="qcurve" smooth="yes"/>
      <point x="364.7405857574234" y="-9.129870129870142"/>
      <point x="540.1951312119688" y="72.25974025974025"/>
      <point x="611.7016247184623" y="146.3116883116883" type="qcurve"/>
      <point x="787.8444818613194" y="1052.0" type="line"/>
      <point x="815.487524873718" y="1052.0" type="line"/>
      <point x="612.4662482779734" y="0.0" type="line"/>
      <point x="585.206183988979" y="0.0" type="line"/>
      <point x="611.0359712230215" y="135.0" type="line"/>
      <point x="610.9083116485534" y="135.0" type="line"/>
      <point x="541.8657584570642" y="62.02127659574468"/>
      <point x="361.8444818613195" y="-20.0"/>
      <point x="261.8444818613195" y="-20.0" type="qcurve" smooth="yes"/>
      <point x="215.84448186131948" y="-20.0"/>
      <point x="140.84448186131948" y="15.0"/>
      <point x="111.84448186131948" y="42.0" type="qcurve"/>
      <point x="23.844481861319473" y="-416.0" type="line"/>
      <point x="-4.5" y="-416.0" type="line"/>
    </contour>
  </outline>
</glyph>
<glyph name="periodcentered" format="2">
  <advance width="689.7302158273382"/>
  <unicode hex="00B7"/>
  <outline>
    <contour>
      <point x="310.3936170212766" y="749.0" type="qcurve" smooth="yes"/>
      <point x="310.3936170212766" y="762.635542629726"/>
      <point x="328.6873564977805" y="782.0356650849533"/>
      <point x="345.2158273381295" y="782.0356650849533" type="qcurve" smooth="yes"/>
      <point x="361.74429817847846" y="782.0356650849533"/>
      <point x="379.3365988060615" y="762.635542629726"/>
      <point x="379.3365988060615" y="749.0" type="qcurve" smooth="yes"/>
      <point x="379.3365988060615" y="735.364457370274"/>
      <point x="361.74429817847846" y="715.9643349150467"/>
      <point x="345.2158273381295" y="715.9643349150467" type="qcurve" smooth="yes"/>
      <point x="328.6873564977805" y="715.9643349150467"/>
      <point x="310.3936170212766" y="735.364457370274"/>
    </contour>
  </outline>
</glyph>
<glyph name="guillemotright" format="2">
  <advance width="1015.4130567886116"/>
  <unicode hex="00BB"/>
  <guideline y="98.0" identifier="MTEldNnfdj"/>
  <guideline y="443.0000000000001" identifier="G9bQni2n1K"/>
  <outline>
    <contour>
      <point x="124.5" y="153.0" type="line"/>
      <point x="382.5" y="551.0" type="line"/>
      <point x="124.5" y="949.0" type="line"/>
      <point x="153.0619452489956" y="949.0" type="line"/>
      <point x="413.0785244145109" y="554.5744680851063" type="line"/>
      <point x="413.0785244145109" y="547.4468085106383" type="line"/>
      <point x="153.0619452489956" y="153.0" type="line"/>
    </contour>
    <contour>
      <point x="582.0359712230215" y="153.0" type="line"/>
      <point x="840.0359712230215" y="551.0" type="line"/>
      <point x="582.0359712230215" y="949.0" type="line"/>
      <point x="609.8964776230963" y="949.0" type="line"/>
      <point x="869.9130567886116" y="554.5744680851063" type="line"/>
      <point x="869.9130567886116" y="547.4468085106383" type="line"/>
      <point x="609.8964776230963" y="153.0" type="line"/>
    </contour>
  </outline>
</glyph>
<glyph name="AE" format="2">
  <advance width="1764.7912903719578"/>
  <unicode hex="00C6"/>
  <anchor x="972.7553191489362" y="1456.0" name="top"/>
  <outline>
    <contour>
      <point x="22.5" y="0.0" type="line"/>
      <point x="903.5" y="1456.0" type="line"/>
      <point x="1649.2912903719578" y="1456.0" type="line"/>
      <point x="1649.2912903719578" y="1445.077922077922" type="line"/>
      <point x="938.9288994336446" y="1445.077922077922" type="line"/>
      <point x="938.9288994336446" y="10.922077922077932" type="line"/>
      <point x="1659.2912903719578" y="10.922077922077932" type="line"/>
      <point x="1659.2912903719578" y="0.0" type="line"/>
      <point x="909.7553191489362" y="0.0" type="line"/>
      <point x="909.7553191489362" y="1447.4468085106382" type="line"/>
      <point x="35.15957446808511" y="0.0" type="line"/>
    </contour>
    <contour>
      <point x="923.0016837593754" y="747.974025974026" type="line"/>
      <point x="923.0016837593754" y="758.8961038961039" type="line"/>
      <point x="1557.2912903719578" y="758.8961038961039" type="line"/>
      <point x="1557.2912903719578" y="747.974025974026" type="line"/>
    </contour>
    <contour>
      <point x="291.31237911025147" y="435.7922077922078" type="line"/>
      <point x="303.6782260292899" y="447.15584415584414" type="line"/>
      <point x="922.3640746976887" y="447.15584415584414" type="line"/>
      <point x="922.3640746976887" y="435.7922077922078" type="line"/>
    </contour>
  </outline>
</glyph>
<glyph name="multiply" format="2">
  <advance width="1107.4172661870502"/>
  <unicode hex="00D7"/>
  <outline>
    <contour>
      <point x="891.1944680851063" y="289.5573243532833" type="line"/>
      <point x="177.3646808510638" y="1019.1317924383898" type="line"/>
      <point x="206.37769171896522" y="1048.5065054339507" type="line"/>
      <point x="920.2074789530078" y="317.9320373488444" type="line"/>
    </contour>
    <contour>
      <point x="197.79021276595742" y="289.5573243532833" type="line"/>
      <point x="177.42851063829784" y="309.2807286086025" type="line"/>
      <point x="899.9096066125823" y="1048.5065054339507" type="line"/>
      <point x="920.2713087402418" y="1027.7831011786316" type="line"/>
    </contour>
  </outline>
</glyph>
<glyph name="Thorn" format="2">
  <advance width="933.7507270779122"/>
  <unicode hex="00DE"/>
  <guideline y="901.0000000000002" identifier="i9jYwjBDP4"/>
  <guideline y="555.0000000000002" identifier="T8KKW8oxop"/>
  <outline>
    <contour>
      <point x="207.5" y="0.0" type="line"/>
      <point x="207.5" y="1456.0" type="line"/>
      <point x="236.52464411449563" y="1456.0" type="line"/>
      <point x="236.52464411449563" y="0.0" type="line"/>
    </contour>
    <contour>
      <point x="222.06620235726314" y="314.97872340425533" type="line"/>
      <point x="222.06620235726314" y="324.7402597402597" type="line"/>
      <point x="514.5246441144957" y="324.7402597402597" type="line" smooth="yes"/>
      <point x="674.5246441144957" y="324.7402597402597"/>
      <point x="816.5246441144957" y="545.5584415584416"/>
      <point x="816.5246441144957" y="737.9574468085107" type="qcurve" smooth="yes"/>
      <point x="816.5246441144957" y="934.2337662337662"/>
      <point x="674.5246441144957" y="1152.2597402597403"/>
      <point x="514.5246441144957" y="1152.2597402597403" type="qcurve" smooth="yes"/>
      <point x="223.04492576151844" y="1152.2597402597403" type="line"/>
      <point x="223.04492576151844" y="1163.0" type="line"/>
      <point x="521.5390326037043" y="1163.0" type="line" smooth="yes"/>
      <point x="692.6611816929435" y="1163.0"/>
      <point x="846.2507270779122" y="935.9787234042553"/>
      <point x="846.2507270779122" y="738.0" type="qcurve" smooth="yes"/>
      <point x="846.2507270779122" y="541.9787234042553"/>
      <point x="692.6611816929435" y="314.97872340425533"/>
      <point x="521.5390326037043" y="314.97872340425533" type="qcurve" smooth="yes"/>
    </contour>
  </outline>
</glyph>
<glyph name="germandbls" format="2">
  <advance width="954.7747589162711"/>
  <unicode hex="00DF"/>
  <outline>
    <contour>
      <point x="213.80192866983012" y="1092.0" type="qcurve" name="hr00"/>
      <point x="213.80192866983012" y="0.0" type="line"/>
      <point x="185.5" y="0.0" type="line"/>
      <point x="185.5" y="1087.7913669064749" type="line" smooth="yes"/>
      <point x="185.5" y="1310.659574468085"/>
      <point x="318.72577682534825" y="1534.0"/>
      <point x="426.8866146099423" y="1534.0" type="qcurve" smooth="yes"/>
      <point x="539.028394305832" y="1534.0"/>
      <point x="651.2109291290371" y="1353.4374468085107"/>
      <point x="651.2109291290371" y="1181.68" type="qcurve" smooth="yes"/>
      <point x="651.2109291290371" y="1092.6761089851523"/>
      <point x="603.7443012398592" y="955.3389254553803"/>
      <point x="556.3695882442983" y="888.2502525639063" type="qcurve" smooth="yes"/>
      <point x="522.742354201745" y="835.777385580897"/>
      <point x="500.6666095208939" y="755.7106382978723"/>
      <point x="500.6666095208939" y="707.8987234042553" type="qcurve" smooth="yes"/>
      <point x="500.6666095208939" y="647.1456941680697"/>
      <point x="536.9042185825808" y="569.7131516914128"/>
      <point x="677.4349181080668" y="490.88198683606305" type="qcurve" smooth="yes"/>
      <point x="782.3362773610899" y="451.38395224246136"/>
      <point x="872.2109291290371" y="349.63043624674725"/>
      <point x="872.2109291290371" y="288.01734578294815" type="qcurve" smooth="yes"/>
      <point x="872.2109291290371" y="143.29787234042553"/>
      <point x="752.9151232205725" y="-20.0"/>
      <point x="645.8780805143119" y="-20.0" type="qcurve" smooth="yes"/>
      <point x="537.7792744527782" y="-20.0"/>
      <point x="426.48277973365987" y="146.61702127659575"/>
      <point x="426.48277973365987" y="294.63829787234044" type="qcurve" smooth="yes"/>
      <point x="426.48277973365987" y="304.0" type="line"/>
      <point x="436.80192866983015" y="304.0" type="line"/>
      <point x="436.80192866983015" y="295.0" type="line" smooth="yes"/>
      <point x="436.80192866983015" y="148.66233766233768"/>
      <point x="540.8279026958043" y="-9.259740259740255"/>
      <point x="636.8019286698301" y="-9.259740259740255" type="qcurve" smooth="yes"/>
      <point x="736.8279026958041" y="-9.259740259740255"/>
      <point x="844.8019286698301" y="136.80623376623376"/>
      <point x="844.8019286698301" y="272.76" type="qcurve" smooth="yes"/>
      <point x="844.8019286698301" y="333.43489361702126"/>
      <point x="757.6291627123832" y="431.44170212765954"/>
      <point x="694.5091627123832" y="461.12170212765955" type="qcurve" smooth="yes"/>
      <point x="550.834269095362" y="541.6306382978723"/>
      <point x="483.95086484004287" y="637.1310638297872"/>
      <point x="483.95086484004287" y="692.9165957446809" type="qcurve" smooth="yes"/>
      <point x="483.95086484004287" y="732.4646808510638"/>
      <point x="504.1159712230215" y="829.5778723404255"/>
      <point x="540.7619286698301" y="883.88" type="qcurve" smooth="yes"/>
      <point x="580.3117159038726" y="945.5259574468084"/>
      <point x="623.8019286698301" y="1094.9497872340423"/>
      <point x="623.8019286698301" y="1178.0459574468084" type="qcurve" smooth="yes"/>
      <point x="623.8019286698301" y="1351.4597402597403"/>
      <point x="534.0621884100899" y="1523.2597402597403"/>
      <point x="432.80192866983015" y="1523.2597402597403" type="qcurve" smooth="yes"/>
      <point x="328.83729755626285" y="1523.2597402597403"/>
      <point x="213.80192866983012" y="1299.436861011329"/>
    </contour>
  </outline>
</glyph>
<glyph name="ae" format="2">
  <advance width="1367.590081126588"/>
  <unicode hex="00E6"/>
  <anchor x="720.9425225776824" y="1052.0" name="top"/>
  <outline>
    <contour>
      <point x="370.6406704423695" y="-20.97872340425532" type="qcurve" smooth="yes"/>
      <point x="252.9416623297107" y="-20.97872340425532"/>
      <point x="124.56382978723404" y="132.0212765957447"/>
      <point x="124.56382978723404" y="292.09718352977194" type="qcurve" smooth="yes"/>
      <point x="124.56382978723404" y="417.4748936170213"/>
      <point x="267.6839522424614" y="573.2"/>
      <point x="431.4258380529619" y="573.2" type="qcurve" smooth="yes"/>
      <point x="663.413439461197" y="573.2" type="line"/>
      <point x="663.413439461197" y="562.9532467532467" type="line"/>
      <point x="435.50543395071173" y="562.9532467532467" type="line" smooth="yes"/>
      <point x="301.4415378468157" y="562.9532467532467"/>
      <point x="151.5054339507118" y="422.012964907433"/>
      <point x="151.5054339507118" y="285.02127659574467" type="qcurve" smooth="yes"/>
      <point x="151.5054339507118" y="135.95530256977068"/>
      <point x="289.486213171491" y="-10.316385741917642"/>
      <point x="380.1862850145415" y="-10.316385741917642" type="qcurve" smooth="yes"/>
      <point x="535.0129664182441" y="-10.316385741917642"/>
      <point x="653.5054339507118" y="216.71997789444598"/>
      <point x="653.5054339507118" y="350.42127659574464" type="qcurve"/>
      <point x="653.5054339507118" y="580.9169600489821" type="line" smooth="yes"/>
      <point x="653.5054339507118" y="756.6729779481194"/>
      <point x="542.8430962883741" y="934.358938933407"/>
      <point x="435.50543395071173" y="934.358938933407" type="qcurve" smooth="yes"/>
      <point x="337.0077716130494" y="934.358938933407"/>
      <point x="211.80399510179092" y="805.0914064658746"/>
      <point x="211.80399510179092" y="667.0212765957447" type="qcurve" smooth="yes"/>
      <point x="211.80399510179092" y="661.3198377468239" type="line"/>
      <point x="185.58510638297872" y="661.3198377468239" type="line"/>
      <point x="185.58510638297872" y="667.0212765957447" type="line" smooth="yes"/>
      <point x="185.58510638297872" y="809.988085106383"/>
      <point x="321.8682687892239" y="945.0212765957447"/>
      <point x="432.80606153375174" y="945.0212765957447" type="qcurve" smooth="yes"/>
      <point x="520.4916148783101" y="945.0212765957447"/>
      <point x="640.4063064442063" y="808.4006490127048"/>
      <point x="663.4221123526711" y="601.8707607530996" type="qcurve"/>
      <point x="708.2947772845553" y="800.7257553956834"/>
      <point x="860.4966018674423" y="946.0"/>
      <point x="961.1624070006221" y="946.0" type="qcurve" smooth="yes"/>
      <point x="1101.3740915352826" y="946.0"/>
      <point x="1256.6424215521201" y="700.72"/>
      <point x="1253.7062513393544" y="492.0" type="qcurve" smooth="yes"/>
      <point x="1253.7062513393544" y="483.2077922077922" type="line"/>
      <point x="667.495628348385" y="483.2077922077922" type="line"/>
      <point x="667.495628348385" y="493.87012987012986" type="line"/>
      <point x="1226.7006551354661" y="493.87012987012986" type="line"/>
      <point x="1227.702093984387" y="502.32207792207794" type="line" smooth="yes"/>
      <point x="1226.7006551354661" y="700.6867200884222"/>
      <point x="1093.1251591420978" y="935.2337662337663"/>
      <point x="969.265923771621" y="935.2337662337663" type="qcurve" smooth="yes"/>
      <point x="830.8844849227002" y="935.2337662337663"/>
      <point x="681.0206551354661" y="701.4503896103896"/>
      <point x="681.0206551354661" y="474.0" type="qcurve" smooth="yes"/>
      <point x="681.0206551354661" y="442.0" type="line" smooth="yes"/>
      <point x="681.0206551354661" y="215.52363636363637"/>
      <point x="832.1291721748328" y="-19.233766233766232"/>
      <point x="949.9279718352976" y="-19.233766233766232" type="qcurve" smooth="yes"/>
      <point x="1060.9547867470046" y="-19.233766233766232"/>
      <point x="1202.26068427822" y="126.11163304780325"/>
      <point x="1234.06726465636" y="229.87234042553192" type="qcurve"/>
      <point x="1241.791357722333" y="224.91489361702128" type="line"/>
      <point x="1213.176402877698" y="125.4468085106383"/>
      <point x="1063.0137670289303" y="-30.0"/>
      <point x="948.8023786927903" y="-30.0" type="qcurve" smooth="yes"/>
      <point x="823.7931262064127" y="-30.0"/>
      <point x="697.9344496770641" y="168.1409520893923"/>
      <point x="677.8952375253707" y="322.3046547696907" type="qcurve"/>
      <point x="643.1514139404144" y="170.09412501167895"/>
      <point x="508.0121255325112" y="-20.97872340425532"/>
    </contour>
  </outline>
</glyph>
<glyph name="eth" format="2">
  <advance width="879.8385887035053"/>
  <unicode hex="00F0"/>
  <outline>
    <contour>
      <point x="241.36865981102932" y="1571.0" type="qcurve"/>
      <point x="245.78065207408542" y="1581.0" type="line"/>
      <point x="465.3502984846166" y="1503.8956834532373"/>
      <point x="750.487524873718" y="931.0956834532374"/>
      <point x="750.487524873718" y="556.7971223021582" type="qcurve"/>
      <point x="750.487524873718" y="503.10431654676256" type="line"/>
      <point x="750.487524873718" y="271.97856115107913"/>
      <point x="593.3273197612123" y="-20.0"/>
      <point x="438.8705801316394" y="-20.0" type="qcurve" smooth="yes"/>
      <point x="303.7487953467014" y="-20.0"/>
      <point x="122.5" y="241.88"/>
      <point x="122.5" y="436.72" type="qcurve" smooth="yes"/>
      <point x="122.5" y="657.4672340425532"/>
      <point x="309.1955640593908" y="912.72"/>
      <point x="441.21100566355426" y="912.72" type="qcurve" smooth="yes"/>
      <point x="561.2912903719578" y="912.72"/>
      <point x="731.0558701974591" y="674.9014388489209"/>
      <point x="732.4587478953008" y="539.2" type="qcurve"/>
      <point x="724.2700137762131" y="539.2" type="line"/>
      <point x="723.5685749272923" y="661.444406519548"/>
      <point x="561.7682176999489" y="901.9537662337663"/>
      <point x="447.05724781876626" y="901.9537662337663" type="qcurve" smooth="yes"/>
      <point x="331.65742466319847" y="901.9537662337663"/>
      <point x="150.84448186131948" y="648.8877922077921"/>
      <point x="150.84448186131948" y="436.72" type="qcurve" smooth="yes"/>
      <point x="150.84448186131948" y="234.4379220779221"/>
      <point x="330.216949393787" y="-9.233766233766232"/>
      <point x="440.94837796521557" y="-9.233766233766232" type="qcurve" smooth="yes"/>
      <point x="576.8507156275532" y="-9.233766233766232"/>
      <point x="722.8444818613194" y="269.1620779220779"/>
      <point x="722.8444818613194" y="501.0" type="qcurve" smooth="yes"/>
      <point x="722.8444818613194" y="560.2" type="line" smooth="yes"/>
      <point x="722.8444818613194" y="930.6285714285714"/>
      <point x="451.3589886311454" y="1498.1818181818182"/>
    </contour>
    <contour>
      <point x="695.689466663751" y="1438.4440453163857" type="line"/>
      <point x="236.98733900417662" y="1123.3376623376623" type="line"/>
      <point x="230.93539095222857" y="1131.3246753246754" type="line"/>
      <point x="689.637518611803" y="1445.4310583033987" type="line"/>
    </contour>
  </outline>
</glyph>
<glyph name="divide" format="2">
  <advance width="1099.0"/>
  <unicode hex="00F7"/>
  <outline>
    <contour>
      <point x="516.0381141894994" y="977.3555028317771" type="qcurve" smooth="yes"/>
      <point x="516.0381141894994" y="992.0548752487372"/>
      <point x="532.6304148170825" y="1010.7535588550436"/>
      <point x="549.4787234042553" y="1010.7535588550436" type="qcurve" smooth="yes"/>
      <point x="565.3270319914282" y="1010.7535588550436"/>
      <point x="582.9406092147559" y="992.0548752487372"/>
      <point x="582.9406092147559" y="977.3555028317771" type="qcurve" smooth="yes"/>
      <point x="582.9406092147559" y="963.6774070105618"/>
      <point x="565.3270319914282" y="945.0"/>
      <point x="549.4787234042553" y="945.0" type="qcurve" smooth="yes"/>
      <point x="532.6304148170825" y="945.0"/>
      <point x="516.0381141894994" y="963.6774070105618"/>
    </contour>
    <contour>
      <point x="516.0381141894994" y="376.90050512781266" type="qcurve" smooth="yes"/>
      <point x="516.0381141894994" y="391.578600949028"/>
      <point x="532.6304148170825" y="410.2985611510791"/>
      <point x="549.4787234042553" y="410.2985611510791" type="qcurve" smooth="yes"/>
      <point x="566.028470840349" y="410.2985611510791"/>
      <point x="582.9406092147559" y="391.578600949028"/>
      <point x="582.9406092147559" y="376.90050512781266" type="qcurve" smooth="yes"/>
      <point x="582.9406092147559" y="363.9238481555181"/>
      <point x="566.028470840349" y="345.2251645492117"/>
      <point x="549.4787234042553" y="345.2251645492117" type="qcurve" smooth="yes"/>
      <point x="532.6304148170825" y="345.2251645492117"/>
      <point x="516.0381141894994" y="363.9238481555181"/>
    </contour>
    <contour>
      <point x="94.5" y="667.8701298701299" type="line"/>
      <point x="94.5" y="679.1558441558442" type="line"/>
      <point x="1004.5" y="679.1558441558442" type="line"/>
      <point x="1004.5" y="667.8701298701299" type="line"/>
    </contour>
  </outline>
</glyph>
<glyph name="idotless" format="2">
  <advance width="417.3444818613195"/>
  <unicode hex="0131"/>
  <anchor x="208.5335986529925" y="916.0" name="top"/>
  <anchor x="208.5335986529925" y="0.0" name="bottom"/>
  <anchor x="201.64893617021278" y="0.0" name="ogonek"/>
  <anchor x="207.21615184448186" y="471.96" name="yu_dash"/>
  <outline>
    <contour>
      <point x="202.91726618705036" y="0.0" type="line"/>
      <point x="202.91726618705036" y="916.0" type="line"/>
      <point x="214.42721567426912" y="916.0" type="line"/>
      <point x="214.42721567426912" y="0.0" type="line"/>
    </contour>
  </outline>
</glyph>
<glyph name="kgreenlandic" format="2">
  <advance width="937.6683759375478"/>
  <unicode hex="0138"/>
  <outline>
    <contour>
      <point x="211.0359712230216" y="916.0" type="line"/>
      <point x="211.0359712230216" y="0.0" type="line"/>
      <point x="182.7127659574468" y="0.0" type="line"/>
      <point x="182.7127659574468" y="916.0" type="line"/>
    </contour>
    <contour>
      <point x="822.6870036438381" y="916.0" type="line"/>
      <point x="369.1805101373447" y="473.87012987012986" type="line"/>
      <point x="197.06620235726314" y="473.87012987012986" type="line"/>
      <point x="197.06620235726314" y="484.8961038961039" type="line"/>
      <point x="386.3986919555265" y="484.8961038961039" type="line"/>
      <point x="809.8485620853966" y="916.0" type="line"/>
    </contour>
    <contour>
      <point x="840.5253329251492" y="0.0" type="line"/>
      <point x="363.1969845400276" y="470.2857951936324" type="line"/>
      <point x="379.4671391397521" y="475.5645400275525" type="line"/>
      <point x="871.1470993418031" y="0.0" type="line"/>
    </contour>
  </outline>
</glyph>
<glyph name="OE" format="2">
  <advance width="1622.1975355885504"/>
  <unicode hex="0152"/>
  <outline>
    <contour>
      <point x="578.0515693551818" y="-21.0" type="qcurve" smooth="yes"/>
      <point x="407.09894422124637" y="-21.0"/>
      <point x="152.5" y="363.2120771467932"/>
      <point x="152.5" y="732.3390479106077" type="qcurve" smooth="yes"/>
      <point x="152.5" y="742.214143578754" type="line" smooth="yes"/>
      <point x="152.5" y="1091.57515689576"/>
      <point x="373.9605081891933" y="1477.0"/>
      <point x="583.7234420256003" y="1477.0" type="qcurve" smooth="yes"/>
      <point x="606.67771314863" y="1477.0"/>
      <point x="713.2274605847236" y="1464.0"/>
      <point x="766.9494872187356" y="1456.0" type="qcurve"/>
      <point x="1509.6337058013164" y="1456.0" type="line"/>
      <point x="1509.6337058013164" y="1445.077922077922" type="line"/>
      <point x="790.2678940285184" y="1445.077922077922" type="line"/>
      <point x="790.2678940285184" y="8.261915668901743" type="line"/>
      <point x="1519.6337058013164" y="8.261915668901743" type="line"/>
      <point x="1519.6337058013164" y="0.0" type="line"/>
      <point x="766.9494872187356" y="0.0" type="line"/>
      <point x="713.2274605847236" y="-10.914893617021276"/>
      <point x="638.8161491806829" y="-21.0"/>
    </contour>
    <contour>
      <point x="587.4388489208633" y="-10.3116883116883" type="qcurve" smooth="yes"/>
      <point x="640.4388489208633" y="-10.3116883116883"/>
      <point x="721.4128748948892" y="0.636363636363626"/>
      <point x="759.4128748948892" y="9.558441558441558" type="qcurve"/>
      <point x="759.4128748948892" y="1446.3636363636365" type="line"/>
      <point x="707.4128748948892" y="1454.3376623376623"/>
      <point x="611.4388489208633" y="1466.2337662337663"/>
      <point x="589.4388489208633" y="1466.2337662337663" type="qcurve" smooth="yes"/>
      <point x="388.08819957021393" y="1466.2337662337663"/>
      <point x="182.4388489208633" y="1082.5410334346504"/>
      <point x="182.4388489208633" y="743.6595744680851" type="qcurve" smooth="yes"/>
      <point x="182.4388489208633" y="730.936170212766" type="line" smooth="yes"/>
      <point x="182.4388489208633" y="375.222713456756"/>
      <point x="419.3349528169672" y="-10.3116883116883"/>
    </contour>
    <contour>
      <point x="775.5966863138391" y="750.634188227202" type="line"/>
      <point x="775.5966863138391" y="758.8961038961039" type="line"/>
      <point x="1417.6337058013164" y="758.8961038961039" type="line"/>
      <point x="1417.6337058013164" y="750.634188227202" type="line"/>
    </contour>
  </outline>
</glyph>
<glyph name="oe" format="2">
  <advance width="1482.3553497627431"/>
  <unicode hex="0153"/>
  <outline>
    <contour>
      <point x="478.7956069187203" y="-30.0" type="qcurve" smooth="yes"/>
      <point x="296.61801622531766" y="-30.0"/>
      <point x="122.5" y="206.94808510638296"/>
      <point x="122.5" y="442.0" type="qcurve" smooth="yes"/>
      <point x="122.5" y="473.2985611510792" type="line" smooth="yes"/>
      <point x="122.5" y="709.051914893617"/>
      <point x="297.27673962957294" y="946.6587234042553"/>
      <point x="466.23714679320375" y="946.6587234042553" type="qcurve" smooth="yes"/>
      <point x="570.0024154293586" y="946.6587234042553"/>
      <point x="738.8645032909843" y="773.5514495637532"/>
      <point x="779.8752028164702" y="548.5933139445889" type="qcurve"/>
      <point x="819.2486177866218" y="753.515542629726"/>
      <point x="956.5381417419256" y="947.660162253176"/>
      <point x="1055.3864503290984" y="947.660162253176" type="qcurve" smooth="yes"/>
      <point x="1215.7366447267718" y="947.660162253176"/>
      <point x="1362.8979029542324" y="753.5710638297872"/>
      <point x="1362.8979029542324" y="585.9574468085107" type="qcurve" smooth="yes"/>
      <point x="1362.8979029542324" y="483.2077922077922" type="line"/>
      <point x="776.2631256696772" y="483.2077922077922" type="line"/>
      <point x="776.2631256696772" y="493.87012987012986" type="line"/>
      <point x="1335.1908679014236" y="493.87012987012986" type="line"/>
      <point x="1336.1923067503444" y="574.4" type="line" smooth="yes"/>
      <point x="1335.1908679014236" y="746.8041558441558"/>
      <point x="1207.4360406010644" y="936.8939284869422"/>
      <point x="1074.7399367049604" y="936.8939284869422" type="qcurve" smooth="yes"/>
      <point x="942.306170471194" y="936.8939284869422"/>
      <point x="788.5321444971681" y="682.2851726996407"/>
      <point x="788.5321444971681" y="474.0" type="qcurve" smooth="yes"/>
      <point x="788.5321444971681" y="442.0" type="line" smooth="yes"/>
      <point x="788.5321444971681" y="226.89664548217743"/>
      <point x="962.5936063263233" y="-18.259740259740255"/>
      <point x="1099.2607377927445" y="-18.259740259740255" type="qcurve" smooth="yes"/>
      <point x="1210.9889915533722" y="-18.259740259740255"/>
      <point x="1333.0124353680912" y="131.1038961038961"/>
      <point x="1368.0042859329558" y="270.0" type="qcurve"/>
      <point x="1375.7283789989285" y="266.02127659574467" type="line"/>
      <point x="1345.8574161947038" y="136.2127659574468"/>
      <point x="1207.7167457523344" y="-30.0"/>
      <point x="1071.825923771621" y="-30.0" type="qcurve" smooth="yes"/>
      <point x="983.3311311801622" y="-30.0"/>
      <point x="820.525538037655" y="165.41041481708248"/>
      <point x="778.5577560079595" y="364.0068483085871" type="qcurve"/>
      <point x="737.9499739782643" y="154.28445737027397"/>
      <point x="573.1894872187356" y="-30.0"/>
    </contour>
    <contour>
      <point x="457.6310270932191" y="-18.259740259740255" type="qcurve" smooth="yes"/>
      <point x="598.3468712490633" y="-18.259740259740255"/>
      <point x="763.6310270932191" y="206.46028184581377"/>
      <point x="763.6310270932191" y="442.0" type="qcurve" smooth="yes"/>
      <point x="763.6310270932191" y="474.0" type="line" smooth="yes"/>
      <point x="763.6310270932191" y="708.5656921801603"/>
      <point x="600.2949231971152" y="934.2597402597403"/>
      <point x="456.6570011191931" y="934.2597402597403" type="qcurve" smooth="yes"/>
      <point x="315.94115696334893" y="934.2597402597403"/>
      <point x="151.63102709321907" y="709.2244155844156"/>
      <point x="151.63102709321907" y="474.0" type="qcurve" smooth="yes"/>
      <point x="151.63102709321907" y="442.0" type="line" smooth="yes"/>
      <point x="151.63102709321907" y="206.77558441558443"/>
      <point x="315.94115696334893" y="-18.259740259740255"/>
    </contour>
  </outline>
</glyph>
<glyph name="Schwa" format="2">
  <advance width="1164.7477881524567"/>
  <unicode hex="018F"/>
  <outline>
    <contour>
      <point x="573.9132557783561" y="-30.0" type="qcurve" smooth="yes"/>
      <point x="367.34636461043937" y="-30.0"/>
      <point x="128.80143884892087" y="311.0"/>
      <point x="128.1" y="570.3829787234042" type="qcurve" smooth="yes"/>
      <point x="128.1" y="732.3766233766233" type="line"/>
      <point x="1007.2666921781724" y="732.3766233766233" type="line"/>
      <point x="1005.3092453696618" y="721.3506493506493" type="line"/>
      <point x="591.6805908464718" y="721.4805194805194" type="line"/>
      <point x="154.80825042093986" y="721.4025974025974" type="line"/>
      <point x="154.80825042093986" y="567.0" type="line" smooth="yes"/>
      <point x="154.80825042093986" y="316.97513125172696"/>
      <point x="378.8436193073726" y="-19.051948051948045"/>
      <point x="585.9618888718812" y="-19.051948051948045" type="qcurve" smooth="yes"/>
      <point x="770.5432600921197" y="-19.051948051948045"/>
      <point x="993.7325388984199" y="386.94363083724784"/>
      <point x="993.6805908464718" y="749.0" type="qcurve" smooth="yes"/>
      <point x="993.6286427945237" y="1123.0480795799945"/>
      <point x="755.4037187823657" y="1477.6883116883116"/>
      <point x="554.6805908464718" y="1477.6883116883116" type="qcurve" smooth="yes"/>
      <point x="382.59548446349305" y="1477.6883116883116"/>
      <point x="180.96906832643862" y="1205.0063553467808"/>
      <point x="166.72314403796113" y="985.9386570875932" type="qcurve" smooth="yes"/>
      <point x="165.68059084647177" y="968.0" type="line"/>
      <point x="139.16382978723405" y="968.0" type="line"/>
      <point x="140.18510638297872" y="982.0" type="line" smooth="yes"/>
      <point x="156.5468085106383" y="1212.0"/>
      <point x="372.6655135466096" y="1489.0"/>
      <point x="552.7205908464717" y="1489.0" type="qcurve" smooth="yes"/>
      <point x="770.7979182611357" y="1489.0"/>
      <point x="1022.7477881524568" y="1127.2985611510792"/>
      <point x="1022.7477881524568" y="749.2127659574468" type="qcurve" smooth="yes"/>
      <point x="1022.7477881524568" y="384.7014388489209"/>
      <point x="786.607806520741" y="-30.0"/>
    </contour>
  </outline>
</glyph>
<glyph name="schwa" format="2">
  <advance width="844.752793509873"/>
  <unicode hex="0259"/>
  <outline>
    <contour>
      <point x="725.6527935098729" y="473.2985611510792" type="qcurve" smooth="yes"/>
      <point x="725.6527935098729" y="442.0" type="line" smooth="yes"/>
      <point x="725.6527935098729" y="235.28"/>
      <point x="567.468394305832" y="-30.0"/>
      <point x="410.5217664166539" y="-30.0" type="qcurve" smooth="yes"/>
      <point x="270.0187050359712" y="-30.0"/>
      <point x="125.7936170212766" y="162.42893617021278"/>
      <point x="122.85744680851064" y="330.04255319148933" type="qcurve" smooth="yes"/>
      <point x="122.85744680851064" y="432.7922077922078" type="line"/>
      <point x="701.7763967549364" y="432.7922077922078" type="line"/>
      <point x="701.7763967549364" y="422.12987012987014" type="line"/>
      <point x="149.5904558872935" y="422.12987012987014" type="line"/>
      <point x="151.2232052655748" y="341.6" type="line"/>
      <point x="149.5904558872935" y="183.80623376623376"/>
      <point x="272.4751533175228" y="-19.233766233766232"/>
      <point x="411.0154130577826" y="-19.233766233766232" type="qcurve" smooth="yes"/>
      <point x="547.3452831876529" y="-19.233766233766232"/>
      <point x="697.2232052655747" y="236.95220779220782"/>
      <point x="697.2232052655747" y="442.0" type="qcurve" smooth="yes"/>
      <point x="697.2232052655747" y="474.0" type="line" smooth="yes"/>
      <point x="697.2232052655747" y="683.9179220779221"/>
      <point x="533.6450813750768" y="935.2337662337663"/>
      <point x="392.9878974079648" y="935.2337662337663" type="qcurve" smooth="yes"/>
      <point x="274.4414618291551" y="935.2337662337663"/>
      <point x="145.92473257646992" y="770.2857142857143"/>
      <point x="117.0496249808664" y="646.0" type="qcurve"/>
      <point x="110.02697076381448" y="649.9787234042553" type="line"/>
      <point x="139.89793356803918" y="779.7872340425532"/>
      <point x="277.9446554058218" y="946.0"/>
      <point x="399.30084704825254" y="946.0" type="qcurve" smooth="yes"/>
      <point x="549.9849900505127" y="946.0"/>
      <point x="725.6527935098729" y="687.5710638297872"/>
    </contour>
  </outline>
</glyph>
<glyph name="primemod" format="2">
  <advance width="692.5359712230215"/>
  <unicode hex="02B9"/>
  <outline>
    <contour>
      <point x="353.22271544466554" y="1502.0" type="line"/>
      <point x="380.9295882442982" y="1502.0" type="line"/>
      <point x="285.72428291133326" y="989.7134448285528" type="line"/>
      <point x="261.1233766233766" y="990.8173409324489" type="line"/>
    </contour>
  </outline>
</glyph>
<glyph name="doubleprimemod" format="2">
  <advance width="897.3705035971223"/>
  <unicode hex="02BA"/>
  <outline>
    <contour>
      <point x="351.54255319148933" y="1502.0" type="line"/>
      <point x="379.95086484004287" y="1502.0" type="line"/>
      <point x="285.7502569373073" y="999.089928057554" type="line"/>
      <point x="261.14935064935065" y="1000.19382416145" type="line"/>
    </contour>
    <contour>
      <point x="669.0785244145109" y="1502.0" type="line"/>
      <point x="696.7853972141436" y="1502.0" type="line"/>
      <point x="602.5847893114079" y="999.089928057554" type="line"/>
      <point x="578.6853218723722" y="1000.19382416145" type="line"/>
    </contour>
  </outline>
</glyph>
<glyph name="apostrophemod" format="2">
  <advance width="636.5689575998775"/>
  <unicode hex="02BC"/>
  <outline>
    <contour>
      <point x="231.64893617021278" y="1006.032986376856" type="line"/>
      <point x="336.24468085106383" y="1061.479794887494"/>
      <point x="467.3716516148783" y="1293.1585795193632"/>
      <point x="468.3922393999694" y="1507.1139598959132" type="qcurve"/>
      <point x="458.9049441298025" y="1507.1139598959132"/>
      <point x="448.24743609367823" y="1517.665084953314"/>
      <point x="448.24743609367823" y="1525.2168988213684" type="qcurve" smooth="yes"/>
      <point x="448.24743609367823" y="1534.4275983468544"/>
      <point x="457.9474973212919" y="1546.0"/>
      <point x="465.3071330169907" y="1546.0" type="qcurve" smooth="yes"/>
      <point x="472.8589468850451" y="1546.0"/>
      <point x="483.5795958977499" y="1533.3219041787845"/>
      <point x="483.5795958977499" y="1523.7069493341498" type="qcurve" smooth="yes"/>
      <point x="483.5795958977499" y="1298.3699678555026"/>
      <point x="341.47872340425533" y="1054.9904331853666"/>
      <point x="235.5" y="1001.0755395683453" type="qcurve"/>
    </contour>
  </outline>
</glyph>
<glyph name="gravecomb" format="2">
  <unicode hex="0300"/>
  <anchor x="76.4568345323741" y="1052.0" name="_top"/>
  <anchor x="76.4568345323741" y="1602.5071942446043" name="top"/>
  <outline>
    <contour>
      <point x="218.9136690647482" y="1214.2985611510792" type="line"/>
      <point x="-172.31914893617022" y="1511.8408847390172" type="line"/>
      <point x="-194.24835450788305" y="1549.7247818766264" type="line"/>
      <point x="203.51985424647296" y="1242.424766569723" type="line"/>
    </contour>
  </outline>
</glyph>
<glyph name="circumflexcomb" format="2">
  <unicode hex="0302"/>
  <anchor x="0.0" y="1052.0" name="_top"/>
  <anchor x="0.0" y="1535.8057553956835" name="top"/>
  <outline>
    <contour>
      <point x="5.9546915658962245" y="1535.8057553956835" type="line"/>
      <point x="303.0" y="1220.0" type="line"/>
      <point x="292.2077922077922" y="1220.0" type="line"/>
      <point x="0.0" y="1522.872340425532" type="line"/>
      <point x="-292.2077922077922" y="1220.0" type="line"/>
      <point x="-303.0" y="1220.0" type="line"/>
      <point x="-5.253252716975361" y="1535.8057553956835" type="line"/>
    </contour>
  </outline>
</glyph>
<glyph name="dotaccentcomb" format="2">
  <unicode hex="0307"/>
  <anchor x="2.1043165467625897" y="1052.0" name="_top"/>
  <anchor x="2.1043165467625897" y="1462.2086330935251" name="top"/>
  <outline>
    <contour>
      <point x="-27.148936170212764" y="1339.1043165467627" type="qcurve" smooth="yes"/>
      <point x="-27.148936170212764" y="1352.6355426297262"/>
      <point x="-12.341114342568497" y="1368.2511862850145"/>
      <point x="2.1043165467625897" y="1368.2511862850145" type="qcurve" smooth="yes"/>
      <point x="16.54974743609368" y="1368.2511862850145"/>
      <point x="31.357569263737943" y="1352.6355426297262"/>
      <point x="31.357569263737943" y="1339.1043165467627" type="qcurve" smooth="yes"/>
      <point x="31.357569263737943" y="1325.573090463799"/>
      <point x="16.54974743609368" y="1309.9574468085107"/>
      <point x="2.1043165467625897" y="1309.9574468085107" type="qcurve" smooth="yes"/>
      <point x="-12.341114342568497" y="1309.9574468085107"/>
      <point x="-27.148936170212764" y="1325.573090463799"/>
    </contour>
  </outline>
</glyph>
<glyph name="hungarumlautcomb" format="2">
  <unicode hex="030B"/>
  <anchor x="0.0" y="1052.0" name="_top"/>
  <anchor x="0.0" y="1584.5071942446043" name="top"/>
  <outline>
    <contour>
      <point x="-163.46753246753246" y="1221.948051948052" type="line"/>
      <point x="46.91558242767488" y="1534.592300627583" type="line"/>
      <point x="58.23128731057708" y="1526.5525026787082" type="line"/>
      <point x="-158.0" y="1218.0" type="line"/>
    </contour>
    <contour>
      <point x="146.53246753246754" y="1221.948051948052" type="line"/>
      <point x="357.6170212765957" y="1534.592300627583" type="line"/>
      <point x="368.9327261594979" y="1525.8510638297873" type="line"/>
      <point x="152.0" y="1218.0" type="line"/>
    </contour>
  </outline>
</glyph>
<glyph name="commaaccentturnedcomb" format="2">
  <unicode hex="0312"/>
  <anchor x="3.5071942446043165" y="1052.0" name="_top"/>
  <outline>
    <contour>
      <point x="101.24745398486405" y="1661.7402597402597" type="line"/>
      <point x="-7.687050359712231" y="1298.960202051125" type="line"/>
      <point x="-24.95744680851064" y="1301.1510026021735" type="line"/>
      <point x="93.27342801083809" y="1663.3376623376623" type="line"/>
    </contour>
  </outline>
</glyph>
<glyph name="dotbelowcomb" format="2">
  <unicode hex="0323"/>
  <anchor x="2.805755395683453" y="0.0" name="_bottom"/>
  <anchor x="2.805755395683453" y="-422.2086330935252" name="bottom"/>
  <outline>
    <contour>
      <point x="-27.148936170212764" y="-203.46670748507577" type="qcurve" smooth="yes"/>
      <point x="-27.148936170212764" y="-191.892928210623"/>
      <point x="-11.639675493647635" y="-175.29856115107913"/>
      <point x="2.805755395683453" y="-175.29856115107913" type="qcurve" smooth="yes"/>
      <point x="17.25118628501454" y="-175.29856115107913"/>
      <point x="32.76044696157967" y="-191.892928210623"/>
      <point x="32.76044696157967" y="-203.46670748507577" type="qcurve" smooth="yes"/>
      <point x="32.76044696157967" y="-215.74192560844944"/>
      <point x="17.25118628501454" y="-232.33629266799326"/>
      <point x="2.805755395683453" y="-232.33629266799326" type="qcurve" smooth="yes"/>
      <point x="-11.639675493647635" y="-232.33629266799326"/>
      <point x="-27.148936170212764" y="-215.74192560844944"/>
    </contour>
  </outline>
</glyph>
<glyph name="cedillacomb" format="2">
  <unicode hex="0327"/>
  <anchor x="0.0" y="0.0" name="_bottom"/>
  <anchor x="0.0" y="-457.0" name="bottom"/>
  <outline>
    <contour>
      <point x="-0.5531914893617085" y="20.0" type="line"/>
      <point x="9.042553191489361" y="20.0" type="line"/>
      <point x="-22.83476098369715" y="-105.1948051948052" type="line"/>
      <point x="38.66180092676343" y="-120.07902735562311"/>
      <point x="114.29098423388949" y="-199.03398728930645"/>
      <point x="114.29098423388949" y="-249.95744680851064" type="qcurve" smooth="yes"/>
      <point x="114.29098423388949" y="-341.0"/>
      <point x="7.822899127506508" y="-457.0"/>
      <point x="-164.0" y="-457.0" type="qcurve"/>
      <point x="-164.1818181818182" y="-447.4025974025974" type="line"/>
      <point x="-4.194805194805198" y="-447.4025974025974"/>
      <point x="96.5531914893617" y="-336.1215805471125"/>
      <point x="96.5531914893617" y="-250.0" type="qcurve" smooth="yes"/>
      <point x="96.5531914893617" y="-201.0"/>
      <point x="23.780602376347055" y="-125.0342636087317"/>
      <point x="-30.838905775075993" y="-112.1948051948052" type="qcurve"/>
    </contour>
  </outline>
</glyph>
<glyph name="ogonekcomb" format="2">
  <unicode hex="0328"/>
  <anchor x="94.31294964028777" y="0.0" name="_ogonek"/>
  <anchor x="27.31294964028777" y="-434.0" name="bottom"/>
  <outline>
    <contour>
      <point x="88.23502756236569" y="4.402597402597401" type="qcurve"/>
      <point x="94.31294964028777" y="0.0" type="line"/>
      <point x="32.31294964028777" y="-42.0"/>
      <point x="-42.68705035971223" y="-137.14893617021278"/>
      <point x="-42.68705035971223" y="-203.0" type="qcurve" smooth="yes"/>
      <point x="-42.68705035971223" y="-252.0"/>
      <point x="14.31294964028777" y="-295.02597402597405"/>
      <point x="51.31294964028777" y="-295.0" type="qcurve" smooth="yes"/>
      <point x="84.31294964028777" y="-294.97402597402595"/>
      <point x="132.31294964028777" y="-276.0"/>
      <point x="146.31294964028777" y="-268.0" type="qcurve"/>
      <point x="149.17009249743063" y="-277.012987012987" type="line"/>
      <point x="132.01424834158647" y="-287.1428571428571"/>
      <point x="83.41435886935658" y="-305.42857142857144"/>
      <point x="52.899567828467255" y="-305.42857142857144" type="qcurve" smooth="yes"/>
      <point x="2.648249347468699" y="-305.42857142857144"/>
      <point x="-59.2340425531915" y="-254.4805194805195"/>
      <point x="-59.2340425531915" y="-203.5744680851064" type="qcurve" smooth="yes"/>
      <point x="-59.2340425531915" y="-135.80519082937576"/>
      <point x="21.626147769267313" y="-34.32149566337536"/>
    </contour>
  </outline>
</glyph>
<glyph name="brevebelowcomb" format="2">
  <unicode hex="032E"/>
  <anchor x="0.0" y="0.0" name="_bottom"/>
  <anchor x="0.0" y="-463.0" name="bottom"/>
  <outline>
    <contour>
      <point x="422.959656171167" y="-166.04489021769598" type="qcurve"/>
      <point x="416.72906474820144" y="-194.8956834532374" type="line"/>
      <point x="374.3018705035971" y="-296.0"/>
      <point x="156.26589928057555" y="-463.0"/>
      <point x="0.0" y="-463.0" type="qcurve" smooth="yes"/>
      <point x="-138.22158273381294" y="-463.0"/>
      <point x="-379.753381294964" y="-287.1412949640288"/>
      <point x="-416.7090647482014" y="-196.25856115107914" type="qcurve"/>
      <point x="-422.6870690460619" y="-164.09683826964405" type="line"/>
      <point x="-374.3295068592818" y="-271.6845002693617"/>
      <point x="-141.06190525225577" y="-440.7451859788765"/>
      <point x="0.0" y="-440.7451859788765" type="qcurve" smooth="yes"/>
      <point x="149.7255546565787" y="-440.7451859788765"/>
      <point x="372.3285728996245" y="-277.38472883919997"/>
    </contour>
  </outline>
</glyph>
<glyph name="numeralsign" format="2">
  <advance width="501.2127659574468"/>
  <unicode hex="0374"/>
  <outline>
    <contour>
      <point x="156.53896103896102" y="1101.2467532467533" type="line"/>
      <point x="147.5" y="1103.0" type="line"/>
      <point x="236.5" y="1556.0" type="line"/>
      <point x="247.2872340425532" y="1554.6170212765958" type="line"/>
    </contour>
  </outline>
</glyph>
<glyph name="lownumeralsign" format="2">
  <advance width="649.0"/>
  <unicode hex="0375"/>
  <outline>
    <contour>
      <point x="412.461038961039" y="256.75324675324674" type="line"/>
      <point x="421.5" y="255.0" type="line"/>
      <point x="332.5" y="-198.0" type="line"/>
      <point x="321.7127659574468" y="-196.61702127659575" type="line"/>
    </contour>
  </outline>
</glyph>
<glyph name="Gamma" format="2">
  <advance width="989.1735802847085"/>
  <unicode hex="0393"/>
  <anchor x="575.5754630338283" y="1456.0" name="top"/>
  <anchor x="225.14924230828103" y="708.0" name="center"/>
  <outline>
    <contour>
      <point x="207.5" y="0.0" type="line"/>
      <point x="207.5" y="1456.0" type="line"/>
      <point x="926.6735802847085" y="1456.0" type="line"/>
      <point x="926.6735802847085" y="1445.077922077922" type="line"/>
      <point x="237.37501913362928" y="1445.077922077922" type="line"/>
      <point x="237.37501913362928" y="0.0" type="line"/>
    </contour>
  </outline>
</glyph>
<glyph name="Theta" format="2">
  <advance width="1207.536583499158"/>
  <unicode hex="0398"/>
  <outline>
    <contour>
      <point x="604.1190111740395" y="-30.0" type="qcurve" smooth="yes"/>
      <point x="401.61801622531766" y="-30.0"/>
      <point x="152.5" y="346.7014388489209"/>
      <point x="152.5" y="683.4028776978417" type="qcurve" smooth="yes"/>
      <point x="152.5" y="772.5971223021583" type="line" smooth="yes"/>
      <point x="152.5" y="1109.2985611510792"/>
      <point x="400.9165773763968" y="1486.0"/>
      <point x="604.1190111740395" y="1486.0" type="qcurve" smooth="yes"/>
      <point x="806.6200061227614" y="1486.0"/>
      <point x="1055.036583499158" y="1109.2985611510792"/>
      <point x="1055.036583499158" y="772.5971223021583" type="qcurve" smooth="yes"/>
      <point x="1055.036583499158" y="683.4028776978417" type="line" smooth="yes"/>
      <point x="1055.036583499158" y="346.7014388489209"/>
      <point x="805.9185672738405" y="-30.0"/>
    </contour>
    <contour>
      <point x="604.1190111740395" y="-18.922077922077932" type="qcurve" smooth="yes"/>
      <point x="793.841726618705" y="-18.922077922077932"/>
      <point x="1025.1190111740395" y="353.90328820116054"/>
      <point x="1025.1190111740395" y="682.0" type="qcurve" smooth="yes"/>
      <point x="1025.1190111740395" y="774.0" type="line" smooth="yes"/>
      <point x="1025.1190111740395" y="1104.0541586073502"/>
      <point x="793.841726618705" y="1474.922077922078"/>
      <point x="604.1190111740395" y="1474.922077922078" type="qcurve" smooth="yes"/>
      <point x="414.39629572937395" y="1474.922077922078"/>
      <point x="183.1190111740395" y="1104.0541586073502"/>
      <point x="183.1190111740395" y="774.0" type="qcurve" smooth="yes"/>
      <point x="183.1190111740395" y="682.0" type="line" smooth="yes"/>
      <point x="183.1190111740395" y="353.90328820116054"/>
      <point x="414.39629572937395" y="-18.922077922077932"/>
    </contour>
    <contour>
      <point x="342.1190111740395" y="739.8441558441558" type="line"/>
      <point x="342.1190111740395" y="751.025974025974" type="line"/>
      <point x="866.1190111740395" y="751.025974025974" type="line"/>
      <point x="866.1190111740395" y="739.8441558441558" type="line"/>
    </contour>
  </outline>
</glyph>
<glyph name="Lambda" format="2">
  <advance width="1235.0079595897748"/>
  <unicode hex="039B"/>
  <outline>
    <contour>
      <point x="66.38237364961662" y="0.0" type="line"/>
      <point x="599.4036502453613" y="1466.0" type="line"/>
      <point x="638.67593058508" y="1466.0" type="line"/>
      <point x="1167.782313563803" y="0.0" type="line"/>
      <point x="1136.7227991815314" y="0.0" type="line"/>
      <point x="657.8717353517443" y="1329.0212765957447" type="line" smooth="yes"/>
      <point x="645.8930119474892" y="1362.0212765957447"/>
      <point x="623.9568417347231" y="1424.0212765957447"/>
      <point x="613.0419481177017" y="1454.0851063829787" type="qcurve"/>
      <point x="604.9993949262124" y="1454.0851063829787" type="line"/>
      <point x="593.105777904936" y="1421.0851063829787"/>
      <point x="571.1908842879145" y="1361.0425531914893"/>
      <point x="559.1908842879147" y="1329.0212765957447" type="qcurve" smooth="yes"/>
      <point x="77.31854386238254" y="0.0" type="line"/>
    </contour>
  </outline>
</glyph>
<glyph name="Pi" format="2">
  <advance width="1144.9847696311035"/>
  <unicode hex="03A0"/>
  <outline>
    <contour>
      <point x="185.96808510638297" y="0.0" type="line"/>
      <point x="185.96808510638297" y="1456.0" type="line"/>
      <point x="959.0166845247206" y="1456.0" type="line"/>
      <point x="959.0166845247206" y="0.0" type="line"/>
      <point x="929.8431042400122" y="0.0" type="line"/>
      <point x="929.8431042400122" y="1445.077922077922" type="line"/>
      <point x="215.84310424001225" y="1445.077922077922" type="line"/>
      <point x="215.84310424001225" y="0.0" type="line"/>
    </contour>
  </outline>
</glyph>
<glyph name="Sigma" format="2">
  <advance width="1110.5743915505893"/>
  <unicode hex="03A3"/>
  <outline>
    <contour>
      <point x="12.889610389610397" y="0.0" type="line"/>
      <point x="12.889610389610397" y="9.961038961038966" type="line"/>
      <point x="591.8404255319149" y="724.5106382978723" type="line"/>
      <point x="591.8404255319149" y="723.531914893617" type="line"/>
      <point x="-0.43506493506492916" y="1445.2337662337663" type="line"/>
      <point x="-0.43506493506492916" y="1456.0" type="line"/>
      <point x="975.0743915505893" y="1456.0" type="line"/>
      <point x="975.0743915505893" y="1445.1038961038962" type="line"/>
      <point x="55.93360879133111" y="1445.1038961038962" type="line"/>
      <point x="48.662122968107994" y="1425.1387123514783" type="line"/>
      <point x="622.8616255931425" y="727.6170212765958" type="line"/>
      <point x="622.8616255931425" y="719.9148936170212" type="line"/>
      <point x="63.380829793197776" y="29.91323570046974" type="line"/>
      <point x="69.67828964239494" y="10.922077922077932" type="line"/>
      <point x="1007.0743915505893" y="10.922077922077932" type="line"/>
      <point x="1007.0743915505893" y="0.0" type="line"/>
    </contour>
  </outline>
</glyph>
<glyph name="beta" format="2">
  <advance width="946.752793509873"/>
  <unicode hex="03B2"/>
  <outline>
    <contour>
      <point x="185.5" y="-416.0" type="line"/>
      <point x="185.5" y="1049.5827338129498" type="line" smooth="yes"/>
      <point x="185.5" y="1307.4928057553957"/>
      <point x="338.19386193173125" y="1556.0"/>
      <point x="476.94879840808204" y="1556.0" type="qcurve" smooth="yes"/>
      <point x="610.2150619929589" y="1556.0"/>
      <point x="746.9549211694474" y="1350.9787234042553"/>
      <point x="746.9549211694474" y="1155.9787234042553" type="qcurve"/>
      <point x="746.9549211694474" y="1002.5106382978723"/>
      <point x="627.1121429465989" y="810.2057142857143"/>
      <point x="499.8764424768558" y="794.945974025974" type="qcurve"/>
      <point x="499.8764424768558" y="801.2057142857143" type="line"/>
      <point x="655.6106231897598" y="791.92"/>
      <point x="824.252793509873" y="597.7641558441558"/>
      <point x="824.252793509873" y="423.9412765957447" type="qcurve" smooth="yes"/>
      <point x="824.252793509873" y="204.92"/>
      <point x="671.9768865758457" y="-21.0"/>
      <point x="523.7037269327948" y="-21.0" type="qcurve" smooth="yes"/>
      <point x="397.0112505740089" y="-21.0"/>
      <point x="238.1677636614113" y="109.53122608296341"/>
      <point x="203.5315322210317" y="176.40356650849535" type="qcurve"/>
      <point x="203.5315322210317" y="192.76637391385594" type="line"/>
      <point x="248.69830093372113" y="109.96048632218844"/>
      <point x="400.5101393325792" y="-10.20779220779221"/>
      <point x="512.8444818613195" y="-10.20779220779221" type="qcurve" smooth="yes"/>
      <point x="649.7925338093713" y="-10.20779220779221"/>
      <point x="795.8444818613194" y="207.79012987012985"/>
      <point x="795.8444818613194" y="423.92" type="qcurve" smooth="yes"/>
      <point x="795.8444818613194" y="602.816244043726"/>
      <point x="616.1169288388024" y="794.5137662337662"/>
      <point x="449.8444818613195" y="793.1537662337662" type="qcurve" smooth="yes"/>
      <point x="351.8444818613195" y="793.1537662337662" type="line"/>
      <point x="351.8444818613195" y="803.6602597402597" type="line"/>
      <point x="450.8444818613195" y="803.6602597402597" type="line" smooth="yes"/>
      <point x="577.2600662769038" y="803.6602597402597"/>
      <point x="718.8444818613194" y="988.2987012987013"/>
      <point x="718.8444818613194" y="1156.0" type="qcurve" smooth="yes"/>
      <point x="718.8444818613194" y="1345.948051948052"/>
      <point x="593.2600662769038" y="1545.2337662337663"/>
      <point x="474.8444818613195" y="1545.2337662337663" type="qcurve" smooth="yes"/>
      <point x="349.6366896535273" y="1545.2337662337663"/>
      <point x="213.84448186131948" y="1302.243161094225"/>
      <point x="213.84448186131948" y="1065.0" type="qcurve" smooth="yes"/>
      <point x="213.84448186131948" y="-416.0" type="line"/>
    </contour>
  </outline>
</glyph>
<glyph name="delta" format="2">
  <advance width="895.115184448186"/>
  <unicode hex="03B4"/>
  <outline>
    <contour>
      <point x="438.8870350528088" y="-30.0" type="qcurve" smooth="yes"/>
      <point x="304.88030613806825" y="-30.0"/>
      <point x="122.5" y="209.10638297872342"/>
      <point x="122.5" y="440.2340425531915" type="qcurve" smooth="yes"/>
      <point x="122.5" y="447.72340425531917" type="line" smooth="yes"/>
      <point x="122.5" y="631.4"/>
      <point x="268.1124445124751" y="835.1096249808664"/>
      <point x="515.7992207394625" y="895.6" type="qcurve"/>
      <point x="525.33168827193" y="879.5818181818182" type="line"/>
      <point x="298.27974021998205" y="821.5605194805195"/>
      <point x="150.9083116485535" y="631.6742857142857"/>
      <point x="150.9083116485535" y="449.1914893617021" type="qcurve" smooth="yes"/>
      <point x="150.9083116485535" y="438.97872340425533" type="line" smooth="yes"/>
      <point x="150.9083116485535" y="220.5179220779221"/>
      <point x="319.17064931089124" y="-15.870888535924507"/>
      <point x="440.5684739017297" y="-19.233766233766232" type="qcurve" smooth="yes"/>
      <point x="564.0999999602417" y="-20.915205082687088"/>
      <point x="744.9083116485534" y="214.40363636363637"/>
      <point x="744.9083116485534" y="441.1489361702128" type="qcurve" smooth="yes"/>
      <point x="744.9083116485534" y="448.40425531914894" type="line" smooth="yes"/>
      <point x="744.9083116485534" y="638.5714285714286"/>
      <point x="621.7923052395332" y="826.8605400355041"/>
      <point x="497.063595213909" y="896.9871531346352" type="qcurve" smooth="yes"/>
      <point x="376.09666778652235" y="953.6739249484634"/>
      <point x="219.41489361702128" y="1130.6933592689263"/>
      <point x="219.41489361702128" y="1280.597793420417" type="qcurve" smooth="yes"/>
      <point x="219.41489361702128" y="1395.0248431042398"/>
      <point x="354.411085259452" y="1556.0"/>
      <point x="481.5116332465942" y="1556.0" type="qcurve" smooth="yes"/>
      <point x="558.3160110209704" y="1556.0"/>
      <point x="685.2912903719578" y="1518.0"/>
      <point x="733.5678861166386" y="1487.0" type="qcurve"/>
      <point x="730.8240342238505" y="1476.1818181818182" type="line"/>
      <point x="710.290461413682" y="1493.7582205029014"/>
      <point x="573.7702881077288" y="1545.2337662337663"/>
      <point x="487.82458288688196" y="1545.2337662337663" type="qcurve" smooth="yes"/>
      <point x="372.1128799839377" y="1545.2337662337663"/>
      <point x="247.71682228685137" y="1385.1878419452887"/>
      <point x="247.71682228685137" y="1275.9012987012989" type="qcurve" smooth="yes"/>
      <point x="247.71682228685137" y="1126.3801195926378"/>
      <point x="426.7085698382439" y="938.8968625618986"/>
      <point x="506.72663361435747" y="904.5064935064935" type="qcurve" smooth="yes"/>
      <point x="626.9355134074559" y="842.7652169107488"/>
      <point x="772.615184448186" y="645.7193111893464"/>
      <point x="772.615184448186" y="447.29787234042556" type="qcurve" smooth="yes"/>
      <point x="772.615184448186" y="441.78723404255317" type="line" smooth="yes"/>
      <point x="772.615184448186" y="218.66638297872342"/>
      <point x="584.2809980101026" y="-30.0"/>
    </contour>
  </outline>
</glyph>
<glyph name="epsilon" format="2">
  <advance width="838.9449716822287"/>
  <unicode hex="03B5"/>
  <anchor x="448.9295882442982" y="916.0" name="top"/>
  <outline>
    <contour>
      <point x="428.0153834379305" y="-30.0" type="qcurve"/>
      <point x="289.82976886575847" y="-30.0"/>
      <point x="136.5" y="116.0"/>
      <point x="136.5" y="255.91489361702128" type="qcurve" smooth="yes"/>
      <point x="136.5" y="365.3186223786928"/>
      <point x="250.8331731210776" y="456.0"/>
      <point x="376.91244451247513" y="461.18181818181813" type="qcurve"/>
      <point x="376.91244451247513" y="458.6623376623377" type="line"/>
      <point x="266.45923159344864" y="464.36"/>
      <point x="174.5212765957447" y="560.327659574468"/>
      <point x="174.5212765957447" y="653.7227154446655" type="qcurve" smooth="yes"/>
      <point x="174.5212765957447" y="791.76"/>
      <point x="320.2775906934028" y="945.0"/>
      <point x="447.52671054645646" y="945.0" type="qcurve" smooth="yes"/>
      <point x="592.3921628654523" y="945.0"/>
      <point x="737.4449716822287" y="749.9014388489209"/>
      <point x="737.4449716822287" y="601.2" type="qcurve"/>
      <point x="709.9295882442982" y="601.2" type="line"/>
      <point x="709.9295882442982" y="747.7194805194806"/>
      <point x="581.2153025300125" y="934.2597402597403"/>
      <point x="448.9295882442982" y="934.2597402597403" type="qcurve" smooth="yes"/>
      <point x="333.1856921404021" y="934.2597402597403"/>
      <point x="202.9295882442982" y="778.1194805194806"/>
      <point x="202.9295882442982" y="653.0" type="qcurve" smooth="yes"/>
      <point x="202.9295882442982" y="562.0212987012987"/>
      <point x="290.50153629624623" y="464.71428571428567"/>
      <point x="384.9295882442982" y="464.71428571428567" type="qcurve" smooth="yes"/>
      <point x="594.9295882442982" y="464.71428571428567" type="line"/>
      <point x="594.9295882442982" y="454.2077922077922" type="line"/>
      <point x="384.9295882442982" y="454.2077922077922" type="line" smooth="yes"/>
      <point x="280.6319259066359" y="454.2077922077922"/>
      <point x="164.9295882442982" y="361.80103896103896"/>
      <point x="164.9295882442982" y="256.1276595744681" type="qcurve" smooth="yes"/>
      <point x="164.9295882442982" y="121.26805194805195"/>
      <point x="311.41997785468783" y="-19.233766233766232"/>
      <point x="428.22814939537733" y="-19.233766233766232" type="qcurve"/>
      <point x="555.1373804520904" y="-19.233766233766232"/>
      <point x="708.9295882442982" y="164.22857142857146"/>
      <point x="708.9295882442982" y="314.8" type="qcurve"/>
      <point x="736.4449716822287" y="314.8" type="line"/>
      <point x="736.4449716822287" y="163.09856115107914"/>
      <point x="568.5609980101026" y="-30.0"/>
    </contour>
  </outline>
</glyph>
<glyph name="eta" format="2">
  <advance width="896.987524873718"/>
  <unicode hex="03B7"/>
  <anchor x="466.4615031379152" y="0.0" name="bottom"/>
  <anchor x="468.9721414357876" y="916.0" name="top"/>
  <outline>
    <contour>
      <point x="185.5" y="0.0" type="line"/>
      <point x="185.5" y="916.0" type="line"/>
      <point x="213.4615031379152" y="916.0" type="line"/>
      <point x="213.84448186131948" y="768.704890853827" type="line"/>
      <point x="213.84448186131948" y="0.0" type="line"/>
    </contour>
    <contour>
      <point x="208.9295882442982" y="761.0522243713733" type="qcurve"/>
      <point x="208.9295882442982" y="776.3829787234042" type="line"/>
      <point x="264.9714526251339" y="851.7872340425532"/>
      <point x="430.7552426144191" y="942.8"/>
      <point x="524.4553038420328" y="942.8" type="qcurve" smooth="yes"/>
      <point x="620.8334608908618" y="942.8"/>
      <point x="721.487524873718" y="791.4900505127813"/>
      <point x="721.487524873718" y="565.9183376702894" type="qcurve" smooth="yes"/>
      <point x="721.487524873718" y="-416.0" type="line"/>
      <point x="693.8444818613194" y="-416.0" type="line"/>
      <point x="693.8444818613194" y="570.4468085106383" type="line" smooth="yes"/>
      <point x="693.8444818613194" y="783.958828405637"/>
      <point x="606.1738546162242" y="931.9298701298701"/>
      <point x="515.8055208223584" y="931.9298701298701" type="qcurve" smooth="yes"/>
      <point x="413.1219065642761" y="931.9298701298701"/>
      <point x="248.34793585413516" y="825.0714265835192"/>
    </contour>
  </outline>
</glyph>
